<svg width="402.279" height="406.841" viewBox="0 0 106.436 107.643" xml:space="preserve" xmlns="http://www.w3.org/2000/svg"><path style="fill:#1d3c51;fill-opacity:1;stroke-width:.0846667" d="M147.577 158.925c-1.746-.263-2.817-.8-3.893-1.95-1.374-1.472-1.93-3.58-1.444-5.478.514-2.009 2.168-3.731 4.152-4.324 1.575-.472 3.42-.256 4.81.56.778.458 1.782 1.522 2.201 2.332a6.14 6.14 0 0 1 0 5.721c-.647 1.245-2.003 2.403-3.328 2.842-.789.261-1.875.39-2.498.297m1.465-2.189c2.932-.763 3.961-4.272 1.912-6.514-.52-.568-1.393-1.03-2.218-1.17-1.652-.284-3.488.707-4.231 2.282-.26.548-.272.624-.272 1.592s.013 1.043.272 1.59c.813 1.718 2.778 2.679 4.537 2.22m-54.29 2.027c-.645-.14-1.627-.59-2.03-.931-.518-.438-.771-.866-.768-1.3.004-.463.132-.722.468-.944.446-.294.906-.164 1.326.373.873 1.116 3.98 1.2 4.635.124.333-.546.167-1.229-.39-1.606-.407-.275-.77-.401-2.041-.707-2.022-.488-3.13-1.129-3.649-2.113-.206-.39-.225-.51-.225-1.4s.02-1.01.224-1.397c.52-.985 1.456-1.674 2.59-1.91.62-.129 2.372-.055 2.926.123 1.06.34 1.993 1.077 2.169 1.713.176.64-.293 1.301-.925 1.301-.26 0-.408-.07-.722-.341a5.3 5.3 0 0 0-.83-.57c-.397-.208-.521-.23-1.37-.23-.831-.001-.979.022-1.345.21-.738.38-.956 1.173-.474 1.722.329.375.774.56 2.371.984 2.128.566 3.123 1.189 3.62 2.266.303.657.316 1.759.028 2.5-.38.983-1.475 1.84-2.725 2.135-.673.158-2.13.158-2.864-.001zm-46.649-.151c-.268-.155-.426-.455-.43-.815-.002-.208.6-1.601 2.067-4.79 2.858-6.212 2.555-5.622 2.984-5.812.299-.132.42-.145.69-.073.179.048.391.16.471.249s1.156 2.384 2.39 5.102c2.066 4.545 2.243 4.97 2.206 5.31-.06.557-.434.9-.985.9-.641 0-.813-.181-1.387-1.46-.565-1.26-.492-1.207-1.68-1.207-1.74 0-2.977.58-5.08 2.378-.362.31-.92.407-1.246.218m3.609-4.074a7 7 0 0 1 2.148-.46l.815-.052-.762-1.674c-.42-.921-.776-1.662-.791-1.646-.112.112-1.868 3.955-1.807 3.955.042 0 .221-.055.397-.123m10.706 4.016c-.525-.32-.524-.305-.524-5.075v-4.321H60.41c-1.656 0-1.879-.055-2.12-.523-.186-.358-.118-.944.14-1.218.106-.114.33-.244.496-.29.403-.113 7.652-.113 8.056 0 .166.046.39.176.496.29.258.274.325.86.14 1.218-.242.468-.465.523-2.12.523h-1.486v4.382c-.002 3.334-.027 4.431-.108 4.59-.148.292-.628.595-.941.595-.145 0-.39-.077-.543-.171zm11.622.057a1.2 1.2 0 0 1-.423-.361c-.158-.233-.167-.442-.19-4.668l-.025-4.424h-3.043l-.317-.29c-.284-.26-.316-.332-.316-.713 0-.511.22-.855.643-1.003.206-.072 1.38-.102 4.122-.106 4.162-.005 4.213 0 4.577.462.222.283.25.925.05 1.208-.272.39-.52.442-2.106.442h-1.486v8.893l-.275.3c-.32.349-.79.45-1.211.26m7.751-.033c-.615-.31-.598-.137-.573-5.794l.023-5.052.211-.23c.42-.454.484-.461 4.083-.456 2.345.003 3.412.035 3.62.106.727.25.895 1.19.308 1.728l-.303.278h-5.845v2.625l2.434.005c1.654.003 2.528.037 2.728.106.594.204.864 1.006.515 1.534-.302.459-.346.465-3.116.469l-2.56.003v2.703l2.999.024c2.893.023 3.008.03 3.238.202.132.097.288.323.348.502.14.422-.007.923-.348 1.175-.232.172-.338.178-3.852.2-3.312.02-3.638.01-3.91-.127zm24.486.01c-.536-.272-.525-.167-.525-5.023v-4.407h-3.15l-.283-.283c-.155-.155-.309-.387-.341-.515-.09-.36.1-.86.41-1.081l.273-.195 3.895-.026c2.612-.018 3.997.004 4.206.065.463.135.747.518.747 1.007 0 .223-.058.48-.132.586-.273.39-.52.442-2.107.442h-1.486v8.893l-.275.3c-.337.367-.802.457-1.232.237m5.401.03c-.287-.144-.522-.63-.461-.95.07-.372 4.519-10.042 4.722-10.268.255-.281.745-.392 1.091-.246.154.065.347.194.43.288s1.144 2.356 2.359 5.028c2.376 5.226 2.4 5.297 2.036 5.81-.36.505-1.107.578-1.536.15-.119-.118-.427-.679-.685-1.246-.555-1.22-.536-1.208-1.944-1.147-1.489.065-2.587.534-4.05 1.73-.389.318-.823.663-.966.768a.96.96 0 0 1-.996.082m4.605-4.383a7 7 0 0 1 1.3-.166c.339 0 .615-.02.615-.045s-.341-.797-.758-1.715l-.758-1.669-.468.992-.966 2.04-.497 1.049.422-.16c.233-.09.732-.236 1.11-.326m9.824 4.408c-.097-.039-.278-.192-.402-.34l-.226-.268v-8.867l-1.6-.026c-1.778-.03-1.846-.05-2.098-.644-.238-.565.14-1.283.74-1.403.149-.03 1.937-.053 3.974-.053s3.826.024 3.974.053c.6.12.979.838.74 1.403-.252.594-.32.615-2.098.644l-1.6.026v4.402c0 4.867.012 4.756-.538 5.017-.317.15-.59.168-.866.057m12.436-.083c-.55-.335-.533-.158-.533-5.638 0-5.428-.007-5.351.491-5.677.294-.193.85-.187 1.153.012.475.312.472.275.472 5.688 0 4.787-.007 4.987-.165 5.248-.314.514-.92.67-1.418.367" transform="translate(-47.673 -51.311)"/><path style="fill:#f08511;fill-opacity:1;stroke-width:.0846667" d="M70.161 123.545c-1.555-.394-3.087-1.63-3.819-3.083-.403-.801-.553-1.457-.553-2.419 0-.908.149-1.615.48-2.28.442-.886 14.8-25.702 14.87-25.702.11 0 5.896 3.166 5.9 3.228 0 .03-2.307 2.468-5.13 5.419-3.242 3.39-5.189 5.49-5.29 5.704a1.67 1.67 0 0 0 .029 1.467c.229.422 5.458 5.446 5.923 5.691.412.217 1.073.217 1.499 0 .207-.106 2.179-2.107 5.465-5.546 2.827-2.959 5.165-5.38 5.196-5.378.057.002 3.583 5.773 3.547 5.804-.01.009-5.696 3.78-12.635 8.38-7.123 4.723-12.835 8.454-13.12 8.571-.635.263-1.648.324-2.362.144m59.483.003a4 4 0 0 1-.63-.225c-.101-.053-5.862-3.859-12.802-8.456-6.94-4.598-12.781-8.441-12.98-8.541-.197-.1-.357-.229-.355-.286.008-.22 10.541-28.358 10.615-28.358.06 0 12.134 20.833 21.134 36.466.51.885 1.005 1.83 1.1 2.102a5.42 5.42 0 0 1-.446 4.539c-.355.606-1.498 1.744-2.121 2.112-1.132.668-2.528.924-3.515.646zM84.74 83.69c.092-.152 2.595-4.486 5.564-9.631s5.575-9.585 5.793-9.864c.7-.898 1.709-1.594 2.882-1.99.757-.256 2.408-.324 3.302-.137 1.293.271 2.734 1.191 3.5 2.235.503.686 4.982 8.505 4.91 8.57-.086.075-25.96 11.092-26.052 11.092-.037 0 .009-.124.1-.275" transform="translate(-47.673 -51.311)"/><path style="fill:#01a8df;fill-opacity:1;stroke-width:.0846667" d="M98.809 134.082c-2.35-.11-3.022-.286-3.821-.997-.848-.755-1.212-1.645-1.16-2.838.029-.648.078-.867.302-1.345a3.57 3.57 0 0 1 2.31-1.928c.3-.082.832-.082 2.538.003 3.6.177 6.807-.132 10.19-.98 4.286-1.076 8.42-3.009 11.892-5.562l.45-.33 1.201.785c2.759 1.804 4.97 3.298 4.968 3.356-.002.087-1.803 1.502-2.99 2.351-3.114 2.226-7.287 4.311-11.063 5.527-4.7 1.514-9.84 2.193-14.817 1.958m-16.207-4.323c-1.227-.288-6.179-3.44-8.126-5.173l-.415-.37 3.104-2.048 3.104-2.05 1.027.721a37 37 0 0 0 3.5 2.164c1.49.808 2.162 1.82 2.172 3.266.005.777-.18 1.404-.6 2.032-.798 1.197-2.339 1.793-3.766 1.458M65.01 113.286c-.91-1.627-1.074-1.945-1.592-3.075-3.415-7.447-4.563-15.293-3.424-23.41.072-.512.19-1.122.264-1.355.511-1.634 2.199-2.685 3.88-2.417 1.197.19 2.113.856 2.638 1.919.407.824.45 1.472.207 3.177-.825 5.817-.05 11.972 2.205 17.525l.503 1.238-2.045 3.545c-1.125 1.95-2.074 3.577-2.108 3.615-.035.037-.273-.306-.528-.762m69.17-2.794-2.085-3.616.13-.3c1.42-3.3 2.257-6.42 2.706-10.08.21-1.724.211-5.647 0-7.367-.512-4.191-1.57-7.823-3.314-11.387-1.332-2.723-2.75-4.88-4.787-7.284-.93-1.1-1.254-1.724-1.324-2.554-.094-1.115.278-2.097 1.085-2.866.822-.785 1.83-1.109 2.973-.956 1.18.159 1.877.723 3.669 2.974a40.6 40.6 0 0 1 4.685 7.383c5.793 11.763 5.736 25.288-.156 37.03-.41.814-1.321 2.446-1.44 2.574-.032.036-.997-1.563-2.143-3.551zM67.162 76.436c-.624-.23-.949-.447-1.41-.94a3.54 3.54 0 0 1-.624-3.954c.268-.57 2.036-3.19 2.9-4.299 5.685-7.281 13.476-12.367 22.442-14.65a41.55 41.55 0 0 1 26.54 2.054c2.598 1.106 3.389 1.67 3.923 2.798.25.528.27.634.27 1.463 0 .862-.012.916-.32 1.538-.531 1.076-1.442 1.748-2.649 1.954-.828.142-1.42.006-2.807-.649-9.718-4.582-20.742-4.434-30.293.408-5.468 2.773-9.813 6.7-13.284 12.006-1.257 1.923-1.88 2.365-3.395 2.411-.677.02-.936-.007-1.293-.14" transform="translate(-47.673 -51.311)"/><path d="M134.115 158.635c-.276-.116-.579-.402-.728-.688-.186-.359-.152-1.01.072-1.339.327-.48.609-.634 1.164-.634.37 0 .556.045.735.177.834.619.84 1.733.012 2.346-.262.195-.943.27-1.255.138" style="fill:#f08511;fill-opacity:1;stroke-width:.0846667" transform="translate(-47.673 -51.311)"/></svg>
