<svg id="Calque_2" data-name="Calque 2" xmlns="http://www.w3.org/2000/svg" viewBox="0 0 775.27 200"><defs><style>.cls-1,.cls-2{fill:#fff;stroke-width:0}.cls-2{fill:#0e0c0b}</style></defs><g id="Calque_1-2" data-name="Calque 1"><circle class="cls-2" cx="100" cy="100" r="100"/><path class="cls-1" d="M62.67 126.61c-9.7 0-17.59-7.89-17.59-17.59s7.89-17.59 17.59-17.59h3.42v-8.16h-3.42c-14.22 0-25.75 11.53-25.75 25.75s11.53 25.75 25.75 25.75h3.42v-8.16zm54.92-27.05h8.16v57.53h-8.16zM100 42.92c-14.22 0-25.75 11.53-25.75 25.75v66.1h8.15v-8.16h.01V68.67c0-9.7 7.89-17.59 17.59-17.59s17.59 7.89 17.59 17.59v6.43h8.16v-6.43c0-14.22-11.53-25.75-25.75-25.75"/><path class="cls-1" d="M137.33 83.26H90.55v8.16h46.78c9.7 0 17.59 7.89 17.59 17.59s-7.89 17.59-17.59 17.59h-3.42v8.16h3.42c14.22 0 25.75-11.53 25.75-25.75s-11.53-25.75-25.75-25.75"/><path class="cls-2" d="M225.04 102.96c0-15.24 11.29-26.06 27.08-26.06 10.2 0 18.24 4.61 21.76 12.89l-10.92 6.12c-2.62-4.8-6.5-6.96-10.92-6.96-7.13 0-12.73 5.17-12.73 14.02s5.6 14.02 12.73 14.02c4.42 0 8.31-2.07 10.92-6.96l10.92 6.21c-3.52 8.09-11.56 12.8-21.76 12.8-15.8 0-27.08-10.82-27.08-26.06Zm99.94-3.57v28.88H311.8v-6.3c-2.62 4.61-7.67 7.06-14.81 7.06-11.38 0-18.15-6.59-18.15-15.34s6.05-15.15 20.86-15.15h11.19c0-6.3-3.61-9.97-11.19-9.97-5.15 0-10.47 1.79-13.99 4.7l-5.06-10.26c5.33-3.95 13.18-6.11 20.95-6.11 14.81 0 23.38 7.15 23.38 22.49m-14.08 12.89v-5.17h-9.66c-6.59 0-8.67 2.54-8.67 5.93 0 3.67 2.98 6.11 7.94 6.11 4.69 0 8.76-2.26 10.38-6.87Zm79.71-9.32c0 15.9-10.56 26.06-24.2 26.06-6.05 0-11.01-1.98-14.62-6.12v23.61h-14.08V77.64h13.45v5.83c3.52-4.42 8.76-6.59 15.26-6.59 13.63 0 24.2 10.16 24.2 26.06Zm-14.26 0c0-8.75-5.33-14.02-12.37-14.02s-12.37 5.27-12.37 14.02 5.33 14.02 12.37 14.02 12.37-5.27 12.37-14.02m18.95 20.61 4.69-10.54c4.33 2.92 10.92 4.89 16.88 4.89 6.5 0 8.94-1.79 8.94-4.61 0-8.28-29.34.19-29.34-20.04 0-9.6 8.31-16.37 22.48-16.37 6.68 0 14.08 1.6 18.69 4.42l-4.69 10.44c-4.78-2.82-9.57-3.76-13.99-3.76-6.32 0-9.03 2.07-9.03 4.7 0 8.66 29.34.28 29.34 20.23 0 9.41-8.4 16.09-22.93 16.09-8.22 0-16.52-2.35-21.03-5.46Zm99.94-16.47h-36.75c1.36 6.3 6.5 10.16 13.9 10.16 5.15 0 8.85-1.6 12.19-4.89l7.49 8.47c-4.51 5.36-11.28 8.19-20.04 8.19-16.79 0-27.72-11.01-27.72-26.06s11.1-26.06 25.91-26.06 25.28 9.97 25.28 26.25c0 1.13-.18 2.73-.27 3.95Zm-36.93-8.56h23.92c-.99-6.4-5.6-10.54-11.92-10.54s-11.01 4.04-12.01 10.54Zm77.18-21.64v13.75c-1.19-.1-2.11-.19-3.21-.19-7.88 0-13.1 4.49-13.1 14.32v24.25h-14.29V77.67h13.65v6.78c3.48-4.96 9.34-7.54 16.95-7.54Zm59.52 0-21.1 52.12h-14.97L537.93 76.9h14.97l13.85 35.46 14.32-35.46zm2.62-15.24c0-4.61 3.52-8.19 8.76-8.19s8.76 3.39 8.76 7.9c0 4.89-3.52 8.47-8.76 8.47s-8.76-3.58-8.76-8.19Zm1.51 15.24h14.5v52.12h-14.5zm23.56 26.06c0-15.24 11.29-26.06 27.08-26.06 10.2 0 18.24 4.61 21.76 12.89l-10.92 6.12c-2.62-4.8-6.5-6.96-10.92-6.96-7.13 0-12.73 5.17-12.73 14.02s5.6 14.02 12.73 14.02c4.42 0 8.31-2.07 10.92-6.96l10.92 6.21c-3.52 8.09-11.56 12.8-21.76 12.8-15.8 0-27.08-10.82-27.08-26.06Zm103.64 4.14H689.6c1.35 6.3 6.5 10.16 13.9 10.16 5.15 0 8.85-1.6 12.19-4.89l7.49 8.47c-4.51 5.36-11.29 8.19-20.04 8.19-16.79 0-27.72-11.01-27.72-26.06s11.1-26.06 25.91-26.06 25.28 9.97 25.28 26.25c0 1.13-.18 2.73-.27 3.95Zm-36.93-8.56h23.92c-.99-6.4-5.6-10.54-11.92-10.54s-11.01 4.04-12.01 10.54Zm41.89 25.03 4.69-10.54c4.33 2.92 10.92 4.89 16.88 4.89 6.5 0 8.94-1.79 8.94-4.61 0-8.28-29.34.19-29.34-20.04 0-9.6 8.31-16.37 22.48-16.37 6.68 0 14.09 1.6 18.69 4.42l-4.69 10.44c-4.79-2.82-9.57-3.76-13.99-3.76-6.32 0-9.03 2.07-9.03 4.7 0 8.66 29.34.28 29.34 20.23 0 9.41-8.4 16.09-22.93 16.09-8.22 0-16.52-2.35-21.04-5.46Zm-336.35 24.37h3.31v21.14h12.55v3h-15.86v-24.15Zm41.15 18.1h-12.32l-2.55 6.04h-3.41l10.5-24.15h3.28l10.53 24.15h-3.48zm-1.16-2.76-5-11.83-5 11.83zm30.89-3.27c0-7.14 5.23-12.35 12.29-12.35 3.58 0 6.69 1.28 8.81 3.76l-2.15 2.17c-1.79-1.97-3.97-2.86-6.52-2.86-5.23 0-9.11 3.93-9.11 9.28s3.87 9.28 9.11 9.28c2.55 0 4.73-.93 6.52-2.9l2.15 2.17c-2.12 2.48-5.23 3.79-8.84 3.79-7.02 0-12.25-5.21-12.25-12.35Zm30.07 0c0-7.07 5.23-12.35 12.35-12.35s12.28 5.24 12.28 12.35-5.23 12.35-12.28 12.35-12.35-5.28-12.35-12.35m21.33 0c0-5.35-3.84-9.28-8.97-9.28s-9.04 3.93-9.04 9.28 3.84 9.28 9.04 9.28 8.97-3.93 8.97-9.28m13.1 0c0-7.07 5.23-12.35 12.35-12.35s12.29 5.24 12.29 12.35-5.23 12.35-12.29 12.35-12.35-5.28-12.35-12.35m21.33 0c0-5.35-3.84-9.28-8.97-9.28s-9.04 3.93-9.04 9.28 3.84 9.28 9.04 9.28 8.97-3.93 8.97-9.28m33.7-3.66c0 5.24-3.64 8.42-9.67 8.42h-5.73v7.31h-3.31v-24.15h9.04c6.03 0 9.67 3.17 9.67 8.42m-3.31 0c0-3.45-2.22-5.42-6.46-5.42h-5.63v10.83h5.63c4.24 0 6.46-1.97 6.46-5.41m31.62 12.73v3h-16.82v-24.15h16.36v3h-13.05v7.42h11.62v2.93h-11.62v7.79h13.51Zm-8.11-23.11h-2.98l4.5-4.48h4.04zm35.59 26.11-5-7.42c-.46.04-.96.07-1.46.07h-5.73v7.35h-3.31v-24.15h9.04c6.03 0 9.67 3.17 9.67 8.42 0 3.73-1.86 6.42-5.1 7.62l5.5 8.11zm-.1-15.73c0-3.45-2.22-5.42-6.46-5.42h-5.63v10.87h5.63c4.24 0 6.46-2 6.46-5.45m30.06 9.69h-12.32l-2.55 6.04h-3.41l10.5-24.15h3.28l10.53 24.15h-3.48zm-1.16-2.76-5-11.83-5 11.83zm20.69-12.34h-7.95v-3h19.17v3h-7.95v21.14h-3.28v-21.14Zm21.46-3h3.31v24.15h-3.31zm36.78 0-10.16 24.15h-3.28l-10.2-24.15h3.58l8.34 19.83 8.41-19.83zm26.39 21.14v3h-16.82v-24.15h16.36v3h-13.05v7.42h11.62v2.93h-11.62v7.79h13.51Z"/></g></svg>
