<svg width="190" height="32" viewBox="0 0 190 32" xmlns:xlink="http://www.w3.org/1999/xlink" xmlns="http://www.w3.org/2000/svg"><defs><path id="a" d="M24.44 13.75H0V.12h24.44z"/><path id="c" d="M87.358 23.39H.121V.206h87.237z"/></defs><g fill="none" fill-rule="evenodd"><g transform="translate(0 7.198)"><mask id="b" fill="#fff"><use xlink:href="#a" width="100%" height="100%"/></mask><g/><path d="M24.439 6.71c.057 2.781-1.036 4.987-3.58 6.204-3.184 1.523-6.139.924-8.702-1.455-3.684 2.916-7.662 2.966-10.336.168C-.554 9.141-.614 4.925 1.69 2.374c2.326-2.576 6.377-2.983 9.18-.84l-2.022 2.21c-2.999-1.357-5.662.177-5.575 3.158.061 2.115 1.62 3.7 3.669 3.7 2.223 0 3.855-1.67 3.855-1.67s-.216-1.102-.192-1.872c.054-1.703.473-3.224 1.554-4.564 2.925-3.627 9.925-3.137 11.74 1.694-1.736.055-3.416-.188-5.035-.844-.835-.339-1.697-.457-2.536.028-2.014.844-2.904 2.599-2.338 4.604.555 1.962 2.126 2.981 4.17 2.717 1.59-.205 3.231-1.71 3.068-4.224 1.081-.064 2.141.147 3.21.238" fill="#e30613" mask="url(#b)"/></g><path d="M146.975 28.458c-.36.39-.88.615-1.432.615a1.94 1.94 0 0 1-1.36-.548c-.497-.488-.505-.962-.505-2.172s.008-1.683.505-2.171c.36-.354.849-.548 1.36-.548.957 0 1.691.615 1.86 1.562h-.413c-.161-.737-.711-1.203-1.447-1.203-.39 0-.756.143-1.031.414-.39.383-.42.797-.42 1.946s.03 1.563.42 1.946c.274.27.642.414 1.031.414.43 0 .85-.18 1.133-.519.237-.285.329-.6.329-1.06v-.48h-1.462v-.361h1.875v.872c0 .556-.122.954-.443 1.293m5.107.57-1.3-2.464h-1.5v2.464h-.411v-5.35h2.072c.887 0 1.56.504 1.56 1.436 0 .796-.49 1.315-1.254 1.443l1.315 2.471zm-1.193-4.989h-1.606v2.164h1.606c.697 0 1.2-.346 1.2-1.082s-.504-1.082-1.2-1.082m6.211 4.989-.475-1.3h-2.54l-.474 1.3h-.443l2.004-5.35h.367l2.004 5.35zm-1.745-4.809-1.139 3.149h2.279zm3.556 4.809h-.413v-5.35h.413l3.143 4.636V23.68h.414v5.35h-.414l-3.143-4.652zm8.426-.488c-.321.315-.795.488-1.362.488h-1.827v-5.35h1.827c.567 0 1.04.173 1.362.488.551.542.528 1.39.528 2.113 0 .72.023 1.72-.528 2.26m-.29-4.087c-.314-.315-.735-.413-1.17-.413h-1.316v4.629h1.316c.435 0 .856-.098 1.17-.414.435-.436.405-1.382.405-1.976s.03-1.39-.405-1.826" fill="#e30613"/><path fill="#020203" d="M170.19 23.679v4.418h2.47v.931h-3.534v-5.35zm3.747 5.349v-2.194l-1.637-3.156h1.154l1.018 2.157 1.002-2.157h1.154l-1.636 3.156v2.194zm6.568-.54c-.383.375-.849.585-1.469.585s-1.094-.21-1.476-.585c-.55-.542-.536-1.21-.536-2.134 0-.925-.014-1.594.536-2.135.382-.376.857-.586 1.476-.586.62 0 1.086.21 1.469.586.55.541.543 1.21.543 2.134s.007 1.593-.543 2.135m-.787-3.638a.9.9 0 0 0-.682-.285.9.9 0 0 0-.689.285c-.206.226-.26.474-.26 1.503s.053 1.278.26 1.503a.9.9 0 0 0 .69.285.9.9 0 0 0 .68-.285c.206-.225.267-.474.267-1.503s-.06-1.277-.266-1.503m3.477 4.178h-1.062v-5.35h.948l2.156 3.276V23.68h1.064v5.35h-.949l-2.157-3.284z"/><g transform="translate(99.6 7.48)"><mask id="d" fill="#fff"><use xlink:href="#c" width="100%" height="100%"/></mask><g/><path d="M37.698 15.47c-2.104.97-3.905 1.873-5.254 3.438-.39.452-.87 1.024-.344 1.612.502.56 1.236.73 1.93.314 1.942-1.164 3.138-2.858 3.668-5.364m-.252-6.213c-1.054.128-1.807.726-2.635 1.143-.674.34-1.318.748-2.014 1.032-1.446.59-2.445.29-3.657-1.044-.803.328-1.625.676-2.456 1.001-2.936 1.147-5.003.183-5.973-2.785-.25-.762-.347-1.553-.461-2.344-.165-1.135-.598-1.339-1.647-.847-.085.04-.176.078-.245.14-2.112 1.862-4.555 3.383-6.118 5.809-.4.62-.768 1.196-1.643 1.065-.865-.128-1.167-.71-1.145-1.465-.603-.178-1.005.123-1.438.265-1.12.367-2.228.766-3.392.995-2.744.54-4.293-.612-4.47-3.406C.08 7.692.127 6.571.36 5.452c.14-.678.392-1.331.347-2.066-.038-.623.402-1.152.847-1.572.557-.526 1.228-.447 1.841-.092.639.37.504.9.248 1.47-.72 1.608-1.145 3.277-.96 5.058.146 1.42.693 1.876 2.063 1.48 1.402-.404 2.754-.977 4.135-1.455.42-.144.64-.385.578-.824-.139-.989.298-2.01-.375-2.989-.38-.551.135-1.164.495-1.643.408-.542 1.018-.434 1.565-.277.612.176.685.705.683 1.25-.003 1.261 0 2.523 0 3.911.929-.294 1.36-.933 1.914-1.39 1.018-.838 1.984-1.739 2.997-2.584a5.5 5.5 0 0 1 2.4-1.164c2.036-.436 3.15.361 3.476 2.406.162 1.017.276 2.049.628 3.027.439 1.222 1.066 1.595 2.287 1.2 1.165-.377 2.28-.898 3.425-1.339.467-.18.534-.615.724-.983 1.51-2.922 3.806-4.974 6.892-6.167 1.127-.435 2.287-.553 3.478-.487.38.02.745.074 1.088.27.678.387.94.959.625 1.658-.277.616-.826.964-1.51.649-.916-.423-1.766-.18-2.601.153-1.958.78-3.735 1.823-4.894 3.66a6.5 6.5 0 0 0-.557 1.128c-.114.296-.261.643.046.918.308.277.623.092.909-.061.872-.468 1.72-.983 2.605-1.423 3.055-1.516 4.038-1.02 4.57 2.305.118.735.148 1.484.226 2.321a90 90 0 0 1 9.814-2.3c5.87-1.034 11.789-1.657 17.725-2.124 5.608-.44 11.225-.744 16.847-.922.284-.01.568-.004.85-.024.859-.058 1.571.15 1.567 1.152s-.757 1.15-1.584 1.183c-7.463.301-14.923.644-22.356 1.39-7.149.717-14.266 1.625-21.2 3.616-1.138.327-1.776.767-1.99 2.06-.461 2.785-1.885 5.07-4.24 6.742-1.12.796-2.348.974-3.641.694-2.585-.56-3.61-2.952-2.226-5.196.967-1.57 2.451-2.589 4.032-3.46a48 48 0 0 1 3.167-1.57c.423-.194.75-.359.664-.906-.146-.92-.052-1.88-.538-2.878" fill="#020203" mask="url(#d)"/></g><path d="M16.327 10.573c.84-.485 1.702-.367 2.537-.028 1.619.656 3.3.899 5.035.845 1.42.126 2.826.047 4.232-.202.668-.118 1.265-.293 1.793-.746a2.97 2.97 0 0 1 2.37-.716c.504.063.922.279 1.066.79.151.533.07 1.05-.424 1.382-.428.286-.89.529-1.356.752-1.142.545-2.133 2.539-1.83 3.77.15.612.533.947 1.213.961.813.017 1.476-.335 2.072-.797 1.118-.865 2.193-1.784 3.287-2.679 1.277-1.043 2.143-.86 2.594.71.913 3.18 2.506 3.97 5.932 2.74.804-.287 1.584-.62 2.262-1.145 1.242-.962 1.49-2.138.643-3.455-.506-.787-1.142-1.493-1.724-2.23-.708-.898-.758-1.588-.146-2.103.642-.539 1.957-.397 2.36.44.574 1.193 1.484 2.162 2.029 3.363.904 1.99.612 3.945-1.03 5.386-2.098 1.84-4.602 2.751-7.407 2.685-1.952-.046-3.408-.971-4.314-2.723-.144-.277-.172-.652-.63-.844-.947.386-1.649 1.237-2.528 1.826-.994.665-1.988 1.265-3.226 1.31-2.45.089-3.924-1.36-3.84-3.79.025-.75.102-1.495.414-2.289-1.156-.151-2.214.024-3.273.122-1.069-.09-2.129-.302-3.21-.237-.854-.244-1.722-.45-2.56-.74-1.154-.399-2.114-1.03-2.34-2.358m69.536 4.085c-.282 1.2-.204 2.23-.261 3.248-.04.708-.362 1.176-1.118 1.18-.803.006-1.18-.433-1.21-1.233-.2-5.024.323-9.923 2.494-14.545.461-.983 1.011-1.906 1.72-2.733.545-.635 1.21-.766 1.876-.282.663.482.574 1.142.134 1.741-1.437 1.956-2.195 4.224-3.036 6.454-.06.158-.007.359-.007.532.39.35.71.046 1.048-.07 2.516-.869 5.084-1.432 7.77-1.256.464.03.956.018 1.316.406.36.389.404.845.218 1.31-.222.558-.674.72-1.26.666-2.358-.215-4.593.374-6.79 1.112-.59.2-1.45.274-1.557 1.03-.108.765.71 1.036 1.225 1.396 2.707 1.894 5.488 3.661 8.734 4.526.77.205 1.17.618.979 1.41-.184.757-.724 1.062-1.497.937-.844-.135-1.638-.438-2.42-.77a33.4 33.4 0 0 1-8.358-5.059M57.853 11.76c-1.691.985-2.532 2.414-2.807 4.221-.262 1.725.47 2.611 2.204 2.624 2.46.017 4.316-1.137 5.787-3.004.5-.636.42-1.29.03-1.96-.428-.738-1.11-.727-1.84-.742-1.222-.026-2.584.327-3.374-1.14m7.6 1.221c.826 1.966.226 3.44-1.09 4.832-2.227 2.355-4.937 3.362-8.139 3.163-2.283-.142-3.737-1.503-3.762-3.765-.036-3.269 1.252-5.924 4.144-7.664.924-.556 1.865-.413 2.946-.302 2.013.205 3.698 1.57 5.806 1.33 1.29-.148 1.846.315 1.884 1.14.036.782-.248.993-1.789 1.266m5.665-.12c1.984-1.354 3.98-2.38 6.173-2.98 1.054-.289 2.115-.472 3.19-.03.786.323 1.105.865.848 1.67-.272.849-.892 1.058-1.672.7-.612-.282-1.18-.18-1.786-.017-1.843.497-3.506 1.364-5.1 2.38-.96.612-1.594 1.432-1.723 2.603-.09.807-.392 1.524-1.388 1.412-.975-.11-1.107-.88-1.111-1.68-.01-1.962-.04-3.926-.017-5.89.007-.618.38-1.158.703-1.659.315-.488.859-.525 1.394-.3.542.226.841.604.706 1.21-.181.81-.324 1.617-.217 2.58m33.726-11.086c1.126.017 1.886.762 1.874 1.838-.012 1.13-.851 1.929-1.997 1.903-1.087-.024-1.851-.791-1.864-1.87-.012-1.13.793-1.89 1.987-1.871" fill="#020203"/></g></svg>
