<svg width="3220" height="3220" viewBox="0 0 851.958 851.958" xmlns="http://www.w3.org/2000/svg"><rect style="fill:#343f58;fill-opacity:1;stroke-width:.00814846;stroke-linecap:square;paint-order:markers fill stroke" width="421.833" height="421.833" ry="0" x="215.062" y="215.062"/><path class="st0" style="fill:#b1dde8;fill-opacity:1;stroke-width:1.73927" d="M301.007 321.128V285.4h-16.57v87.411h16.57v-36.074h28.43v36.074h16.57v-87.41h-16.57v35.727zm74.478-35.728-20.93 87.411h17.267l4.186-18.73h30l4.187 18.73h17.267l-20.93-87.41Zm4.012 52.898 10.465-44.746h2.093l10.116 44.746zm109.187-45.96c-2.79-2.775-6.105-5.03-10.116-6.417-4.012-1.561-8.547-2.255-13.78-2.255-5.058 0-9.593.867-13.604 2.428a28.35 28.35 0 0 0-10.291 6.937c-2.79 3.122-5.058 6.764-6.454 11.274-1.57 4.509-2.267 9.538-2.267 15.088v19.425c0 11.62 2.965 20.465 8.72 26.535 5.931 6.07 13.78 9.193 23.897 9.193 10.465 0 18.488-2.775 23.895-8.499 5.407-5.55 8.198-13.701 8.198-24.107v-2.255h-16.57v2.428c0 2.255-.174 4.51-.698 6.59-.349 2.082-1.22 3.99-2.267 5.55-1.047 1.562-2.79 2.95-4.71 3.816-2.093 1.04-4.709 1.388-7.848 1.388-2.966 0-5.408-.52-7.5-1.388-2.094-1.04-3.663-2.254-4.884-3.989s-2.093-3.815-2.791-6.243c-.523-2.428-.872-5.03-.872-7.805v-22.026c0-2.602.349-5.03.872-7.458.698-2.428 1.57-4.51 2.965-6.243 1.395-1.735 2.965-3.122 5.058-4.163 2.093-1.04 4.36-1.56 7.152-1.56 2.965 0 5.581.52 7.5 1.56 2.093 1.04 3.662 2.428 4.709 3.99 1.221 1.733 2.093 3.468 2.442 5.549.523 2.081.698 4.162.698 6.244v2.254h16.57v-2.08q0-7.545-2.093-13.529c-1.221-3.989-3.14-7.457-5.93-10.232m36.453 44.572h3.663l23.896 35.901h19.535v-.867l-28.605-41.798v-2.254l27.035-41.798v-.694H552l-23.198 35.728h-3.663V285.4h-16.57v87.411h16.57zM325.252 469.588V438.89h3.837l25.116-56.713H336.24l-18.14 41.797h-2.267l-18.14-41.797h-17.965l25.116 56.713h3.837v30.698zm63.838 1.734c10.116 0 18.14-3.122 23.721-9.192 5.756-6.07 8.547-14.915 8.547-26.536V416.17c0-11.273-2.791-20.119-8.547-26.362-5.756-6.244-13.605-9.366-23.721-9.366-10.117 0-18.14 3.122-23.722 9.366-5.756 6.243-8.546 15.089-8.546 26.362v19.598c0 11.62 2.79 20.465 8.546 26.535 5.582 6.07 13.605 9.019 23.722 9.019m-15.873-56.193c0-2.775.35-5.376.872-7.804.524-2.428 1.57-4.51 2.791-6.244s2.965-3.122 4.884-4.162c2.093-1.041 4.36-1.561 7.326-1.561q4.186 0 7.325 1.56c2.093 1.041 3.663 2.429 4.884 4.163s2.093 3.816 2.79 6.244c.524 2.428.873 5.03.873 7.804v21.506c0 2.948-.174 5.55-.698 7.978q-.785 3.642-2.616 6.244c-1.22 1.734-2.965 3.121-4.884 3.989-2.093 1.04-4.535 1.387-7.5 1.387s-5.581-.52-7.5-1.387c-2.093-1.041-3.663-2.255-4.884-3.99q-1.831-2.6-2.616-6.243c-.523-2.428-.698-5.03-.698-7.978v-21.506zm90.176 56.193c10.465 0 18.314-2.775 23.721-8.498 5.233-5.724 8.024-13.528 8.024-23.414v-57.233h-16.57v57.233c0 5.203-1.221 9.192-3.663 12.14s-6.28 4.336-11.512 4.336-9.07-1.387-11.512-4.336c-2.442-2.948-3.663-6.937-3.663-12.14v-57.233h-16.57v57.233c0 10.06 2.617 17.864 8.024 23.414 5.407 5.723 13.256 8.498 23.721 8.498m98.897-82.035c-2.267-2.254-5.233-3.989-8.547-5.203-3.488-1.214-7.325-1.907-11.86-1.907h-33.664v87.41h16.57v-32.952h19.012c2.442 0 4.186.694 5.233 1.908s1.57 2.948 1.57 4.856v26.189h16.57V439.41q0-4.423-2.617-7.284c-1.744-1.908-4.011-3.122-6.976-3.295v-2.255c4.011-1.734 6.976-3.99 8.895-7.111 1.919-3.122 2.965-6.417 2.965-10.06v-3.121c0-3.295-.523-6.417-1.744-9.365-1.395-2.775-3.14-5.377-5.407-7.632m-9.593 20.986c0 3.469-1.047 6.07-3.14 7.978s-5.232 2.775-9.244 2.775h-15.698v-22.893h15.872c4.012 0 7.152 1.04 9.245 3.121s3.14 4.683 3.14 7.632v1.387zm-161.514 84.29h9.07v45.786c0 3.989-1.047 7.11-3.14 9.192s-4.884 3.295-8.547 3.295c-4.011 0-6.976-1.04-9.244-3.295-2.093-2.255-3.314-5.203-3.314-9.192v-8.325h-16.57v8.325c0 4.51.698 8.672 2.093 11.967 1.395 3.469 3.489 6.417 6.105 8.672 2.616 2.428 5.756 4.162 9.244 5.376 3.663 1.214 7.675 1.734 12.035 1.734 8.547 0 15.35-2.428 20.408-7.11q7.325-7.285 7.325-20.813V494.39h7.5v-15.263h-33.14v15.436zm72.908-17.17c-10.117 0-18.14 3.121-23.721 9.365-5.756 6.243-8.547 15.088-8.547 26.362v19.424c0 11.62 2.79 20.466 8.547 26.536 5.755 6.07 13.604 9.192 23.72 9.192 10.117 0 18.14-3.122 23.722-9.192 5.756-6.07 8.547-14.916 8.547-26.536V513.12c0-11.274-2.791-20.119-8.547-26.362-5.581-6.244-13.43-9.366-23.721-9.366m15.872 56.193c0 2.948-.174 5.55-.698 7.978q-.784 3.642-2.616 6.244c-1.22 1.734-2.965 3.121-4.884 3.989-2.093 1.04-4.535 1.387-7.5 1.387s-5.581-.52-7.5-1.387c-2.093-1.041-3.663-2.255-4.884-3.99q-1.831-2.601-2.616-6.243c-.523-2.428-.698-5.03-.698-7.978v-21.506c0-2.775.35-5.376.872-7.805.524-2.428 1.57-4.509 2.791-6.243s2.965-3.122 4.884-4.163c2.093-1.04 4.36-1.56 7.326-1.56q4.186 0 7.325 1.56c2.093 1.041 3.663 2.429 4.884 4.163s2.093 3.815 2.79 6.243c.524 2.429.873 5.03.873 7.805v21.506zm82.501-48.041c-2.267-2.082-4.883-3.643-8.197-4.683-3.14-1.214-6.977-1.735-11.163-1.735h-38.547v15.783h8.372v56.02h-8.372v15.782h38.547c4.186 0 7.849-.52 11.163-1.734 3.14-1.214 5.93-2.775 8.197-4.857 2.268-2.08 3.838-4.509 5.059-7.284 1.046-2.775 1.744-5.723 1.744-9.018v-1.561q0-7.545-4.186-11.967c-2.791-3.122-6.28-5.203-10.64-6.244v-2.255c4.186-1.214 7.849-3.295 10.64-6.243q4.186-4.423 4.186-11.967v-1.561c0-3.295-.523-6.244-1.744-9.019-1.047-2.948-2.791-5.376-5.059-7.457m-9.07 55.499c0 3.468-1.046 6.07-3.313 7.457-2.094 1.561-5.059 2.255-8.547 2.255h-12.035v-20.292h12.035c3.488 0 6.279.694 8.547 2.255 2.093 1.56 3.314 3.989 3.314 7.457zm0-35.728c0 3.469-1.046 5.897-3.313 7.458-2.094 1.387-5.059 2.254-8.547 2.254h-12.035v-19.945h12.035c3.488 0 6.279.694 8.547 2.255 2.093 1.388 3.314 3.99 3.314 7.458zm-252.387 45.44v15.782h45v-87.41h-45v15.782h28.43v55.846z"/><path class="st0" style="fill:#b1dde8;fill-opacity:1;stroke-width:1.73927" d="m280.076 522.832 20.93 20.812v-13.007h11.862v-15.61h-11.861V502.02z"/></svg>
