<svg xmlns="http://www.w3.org/2000/svg" viewBox="0 0 245.88 94.84" class="h-6 w-auto"><path fill="#6ed57d" d="M160.45 76.47c0 6.18-3.34 11.58-8.31 14.49a33.8 33.8 0 0 1-15.49 3.88c-18.66.15-34.13-15.2-34.13-33.86 0-14.6 9.24-27.04 22.19-31.79-6.18 2.58-10.53 8.67-10.53 15.78a17.06 17.06 0 0 0 17.07 17.07 17.1 17.1 0 0 0 6.71-1.37c1.78-.64 3.69-.99 5.68-.99s3.82.33 5.56.94c5.44 1.91 9.6 6.54 10.84 12.27.25 1.15.38 2.35.38 3.58Z"/><path fill="#5e46e7" d="M170.24 30.61v30.37c0 4.19-.76 8.2-2.15 11.91-2.93 7.8-8.65 14.22-15.95 18.07 4.97-2.91 8.31-8.31 8.31-14.49 0-1.23-.13-2.42-.38-3.58-1.24-5.72-5.4-10.36-10.84-12.27-.08-2.92-1.13-5.59-2.85-7.71a12.82 12.82 0 0 0-9.99-4.77c-5.17 0-9.63 3.06-11.67 7.46a12.9 12.9 0 0 0-1.16 4.61 17.06 17.06 0 0 1-9.37-15.24c0-7.11 4.35-13.2 10.53-15.77.06-.03.12-.05.18-.07.77-.28 1.56-.53 2.36-.75.02 0 .03 0 .05-.01 2.43-.68 4.95-.99 7.47-.99h32.23a3.24 3.24 0 0 1 3.24 3.24Z"/><path fill="currentColor" d="m79.08 67.04 17.39 6.32c-5.23 12.52-18 21.28-32.83 21.28-19.53 0-35.43-15.25-35.51-34.03v-.14c.08-18.78 15.98-34.03 35.51-34.03 14.84 0 27.6 8.75 32.83 21.28l-17.39 6.32c-2.55-5.72-8.51-9.73-15.44-9.73-9.34 0-16.86 7.26-16.9 16.23.04 8.96 7.56 16.22 16.9 16.22 6.93 0 12.89-4.01 15.44-9.73ZM2.93 16.79C.98 14.92 0 12.59 0 9.8s.97-5.12 2.93-6.99C4.88.94 7.33 0 10.28 0s5.4.94 7.35 2.81 2.93 4.2 2.93 6.99-.98 5.12-2.93 6.99-4.4 2.81-7.35 2.81-5.4-.94-7.35-2.81m16.35 10.7v66.22H1.33V27.49zm226.6 30.47v35.72h-18.02V57.65c0-3.73-1.51-7.11-3.96-9.55s-5.82-3.96-9.55-3.96c-7.46 0-13.51 6.05-13.51 13.51v36.03h-18.02V57.96c0-17.41 14.12-31.53 31.53-31.53 8.71 0 16.59 3.53 22.29 9.23 5.71 5.71 9.23 13.59 9.23 22.29Z"/></svg>