<svg width="148" height="35" viewBox="0 0 148 35" fill="none" xmlns="http://www.w3.org/2000/svg"><g clip-path="url(#a)" fill="#4778ff"><path d="M45.36.796v13.636h9.576V12.29h-7.035V.796zm10.55 3.507v10.13h2.423V4.303zm0-3.507V2.94h2.423V.796zm12.288 5.455v5.454c0 1.87.742 2.728 2.618 2.728h2.54v-1.89h-1.953c-.606 0-.782-.234-.782-.838V6.251h2.736V4.303H70.62V1.965h-2.423v2.338h-4.026V1.965H61.75v2.338h-2.442V6.25h2.442v5.454c0 1.87.743 2.728 2.619 2.728h2.15v-1.89h-1.564c-.606 0-.782-.234-.782-.838V6.251zM74.624.796v13.636h2.423V.796zM88.65 11.51h-2.618c-.234.624-.918 1.364-2.247 1.364-1.74 0-2.697-1.363-2.755-2.63h7.816v-.39c0-.856-.097-1.694-.332-2.454-.645-2.026-2.189-3.39-4.787-3.39-3.127 0-5.218 2.319-5.218 5.358s2.052 5.357 5.276 5.357c2.658 0 4.3-1.442 4.866-3.214m-4.924-5.649c1.622 0 2.54 1.189 2.6 2.533H81.03c.156-1.344 1.133-2.533 2.697-2.533m6.856 8.572h7.133c2.56 0 4.299-1.559 4.299-3.896 0-1.559-.782-2.63-1.954-3.312.879-.604 1.465-1.461 1.465-2.727 0-2.24-1.759-3.702-4.201-3.702h-6.742zm6.937-2.143h-4.397V8.49h4.397c1.349 0 1.954.877 1.954 1.948 0 1.091-.566 1.85-1.954 1.85m-.39-5.942h-4.007V2.94h4.006c1.173 0 1.857.565 1.857 1.656s-.684 1.753-1.857 1.753m6.445-2.045v10.13h2.423V4.303zm0-3.507V2.94h2.423V.796zm11.799 8.28c0 1.87-1.133 3.116-2.794 3.116-1.563 0-2.697-1.246-2.697-3.117s1.134-3.116 2.697-3.116c1.661 0 2.794 1.246 2.794 3.116m-3.185 5.064c1.7 0 2.658-.876 3.088-1.363v.487c0 2.045-.938 3.117-2.599 3.117-1.095 0-1.74-.293-2.052-1.17h-2.482c.391 1.949 2.091 3.02 4.534 3.02 2.814 0 5.022-1.753 5.022-4.967V4.303h-2.423v1.071c-.43-.487-1.388-1.363-3.088-1.363-2.833 0-4.729 2.24-4.729 5.064 0 2.825 1.896 5.065 4.729 5.065M57.359 30.114h-2.755c-.41 1.072-1.427 1.948-3.205 1.948-2.834 0-4.3-2.337-4.3-4.967s1.467-4.968 4.3-4.968c1.641 0 2.58.721 3.068 1.656h2.794c-.84-2.181-2.677-3.798-5.862-3.798-4.201 0-6.84 3.02-6.84 7.11 0 4.11 2.639 7.11 6.84 7.11 3.263 0 5.178-1.694 5.96-4.09m3.045-1.266c0-1.656.86-3.409 2.892-3.409s2.892 1.753 2.892 3.41c0 1.655-.86 3.408-2.892 3.408s-2.892-1.753-2.892-3.409m8.207 0c0-3.039-2.11-5.357-5.315-5.357-3.204 0-5.315 2.318-5.315 5.357s2.11 5.357 5.315 5.357 5.315-2.318 5.315-5.357m3.866-3.799v-1.266h-2.423v10.13h2.423v-5.552c0-1.85 1.114-2.825 2.6-2.825 1.484 0 2.11.76 2.11 2.24v6.137h2.423v-6.331c0-2.65-1.505-4.09-3.948-4.09-1.387 0-2.5.564-3.185 1.557m11.507 0v-1.266H81.56v10.13h2.423v-5.552c0-1.85 1.114-2.825 2.599-2.825s2.11.76 2.11 2.24v6.137h2.423v-6.331c0-2.65-1.504-4.09-3.947-4.09-1.388 0-2.501.564-3.185 1.557m18.639 5.942h-2.619c-.234.623-.918 1.364-2.247 1.364-1.74 0-2.697-1.364-2.755-2.63h7.816v-.39c0-.857-.098-1.695-.332-2.454-.645-2.026-2.189-3.39-4.788-3.39-3.126 0-5.217 2.318-5.217 5.357s2.052 5.357 5.276 5.357c2.658 0 4.299-1.441 4.866-3.214m-4.925-5.65c1.622 0 2.541 1.189 2.599 2.533h-5.295c.156-1.344 1.133-2.532 2.696-2.532m15.806 5.65h-2.58c-.234.76-.879 1.305-2.051 1.305-2.13 0-2.795-1.792-2.795-3.448s.665-3.448 2.795-3.448c1.074 0 1.641.429 1.934 1.11h2.599c-.606-1.792-2.11-3.019-4.533-3.019-3.322 0-5.218 2.318-5.218 5.357s1.896 5.357 5.218 5.357c2.501 0 4.025-1.266 4.631-3.214m2.576-5.26v5.455c0 1.87.743 2.727 2.619 2.727h2.54v-1.89h-1.954c-.606 0-.782-.233-.782-.837V25.73h2.736v-1.948h-2.736v-2.337h-2.423v2.337h-2.443v1.948zm6.426-1.948v10.13h2.423v-10.13zm0-3.506v2.143h2.423v-2.143zm6.289 8.571c0-1.656.86-3.409 2.892-3.409s2.892 1.753 2.892 3.41c0 1.655-.86 3.408-2.892 3.408s-2.892-1.753-2.892-3.409m8.207 0c0-3.039-2.11-5.357-5.315-5.357s-5.315 2.318-5.315 5.357 2.11 5.357 5.315 5.357 5.315-2.318 5.315-5.357m3.866-3.799v-1.266h-2.423v10.13h2.423v-5.552c0-1.85 1.114-2.825 2.599-2.825s2.11.76 2.11 2.24v6.137H148v-6.331c0-2.65-1.504-4.09-3.947-4.09-1.387 0-2.501.564-3.185 1.557"/><path fill-rule="evenodd" clip-rule="evenodd" d="M8.753 26.25V8.75H0v9.5c0 2.321.922 4.547 2.564 6.188l8.001 8A8.75 8.75 0 0 0 16.755 35h9.503v-8.75z"/><path fill-rule="evenodd" clip-rule="evenodd" d="M26.258 8.75v17.5h8.753v-9.5a8.75 8.75 0 0 0-2.564-6.188l-8.002-8A8.75 8.75 0 0 0 18.255 0H8.753v8.75z"/></g><defs><clipPath id="a"><path fill="#fff" d="M0 0h148v35H0z"/></clipPath></defs></svg>
