<svg width="922.595" height="345.904" viewBox="0 0 922.595 345.904" fill="none" class="zfYmgM-jw7veE-OD82Im-vjihDy-Hns7vW" data-fusion-edit="svg" data-fusion-uid="zfYmgM-jw7veE-OD82Im-vjihDy-Hns7vW" xml:space="preserve" xmlns="http://www.w3.org/2000/svg"><rect style="fill:#3c485a;fill-opacity:1;stroke-width:2;stroke-linejoin:bevel;paint-order:markers fill stroke" width="922.595" height="345.904" ry="50.08"/><path d="m210.811 184.99-54.205-53.792-.245-.244c-3.19-3.062-6.645-3.914-9.487-3.914-2.597 0-4.683.71-5.664 1.095-2.045.852-8.71 4.26-8.71 12.941v63.712c0 8.681 6.685 12.09 8.71 12.941 2.024.832 9.017 3.043 15.15-2.819l14.273 14.178c-6.605 6.45-15.09 9.838-23.8 9.838-4.458 0-8.977-.893-13.352-2.678-13.066-5.355-21.183-17.403-21.183-31.44v-63.711c0-14.037 8.117-26.086 21.203-31.46 12.964-5.336 27.154-2.597 37.152 7.139l.246.243 32.08 31.846c9.816 9.757 12.433 23.976 7.832 36.106z" fill="#a8baae"/><path d="m153.764 160.913 54.205 53.793.245.244c3.19 3.062 6.646 3.914 9.488 3.914 2.597 0 4.682-.71 5.664-1.095 2.044-.852 8.71-4.26 8.71-12.941v-63.712c0-8.681-6.686-12.089-8.71-12.94-2.025-.833-9.018-3.044-15.152 2.818l-14.272-14.178c6.605-6.47 15.07-9.858 23.8-9.858 4.458 0 8.977.893 13.353 2.678 13.065 5.375 21.203 17.423 21.203 31.46v63.712c0 14.036-8.117 26.085-21.203 31.46-12.964 5.335-27.175 2.596-37.153-7.14l-.245-.243-32.081-31.846c-9.815-9.757-12.432-23.976-7.832-36.105z" fill="#dfff32"/><path d="M300.298 206.3v-65.472h7.458l3.253 12.351v53.12zm45.197 0-39.051-51.156 1.312-14.316 39.05 51.154zm0 0-3.271-11.505v-53.967h10.71v65.471h-7.457zm40.74.937c-4.35 0-8.302-1.046-11.843-3.137-3.54-2.092-6.361-4.905-8.428-8.457-2.085-3.552-3.127-7.52-3.127-11.883q0-6.545 3.127-11.792c2.085-3.498 4.888-6.275 8.428-8.367 3.54-2.091 7.494-3.137 11.843-3.137s8.393 1.028 11.933 3.083 6.362 4.85 8.429 8.367c2.084 3.516 3.126 7.465 3.126 11.828 0 4.364-1.042 8.33-3.126 11.883-2.085 3.552-4.89 6.383-8.43 8.457-3.54 2.091-7.511 3.137-11.932 3.137zm0-9.917c2.552 0 4.799-.577 6.757-1.731 1.959-1.154 3.487-2.759 4.565-4.815 1.078-2.055 1.635-4.4 1.635-7.014q0-3.921-1.671-6.924a12.5 12.5 0 0 0-4.564-4.724c-1.923-1.154-4.17-1.731-6.704-1.731s-4.708.577-6.667 1.731c-1.96 1.154-3.486 2.723-4.565 4.724-1.096 2.002-1.635 4.31-1.635 6.924s.539 4.959 1.635 7.014c1.079 2.056 2.606 3.66 4.565 4.815 1.959 1.154 4.187 1.73 6.667 1.73zm31.971 8.98v-44.9h10.26v44.9zm29.742 0v-26.741c0-2.993-.934-5.32-2.803-6.96-1.87-1.659-4.17-2.47-6.901-2.47-1.87 0-3.523.378-4.996 1.118-1.456.739-2.624 1.82-3.505 3.227-.862 1.407-1.312 3.102-1.312 5.103l-4.007-2.236c0-3.426.755-6.383 2.246-8.89a15.87 15.87 0 0 1 6.057-5.841q3.826-2.11 8.572-2.11 4.744 0 8.572 2.056c2.552 1.37 4.565 3.3 6.056 5.806 1.492 2.488 2.229 5.481 2.229 8.98v28.993h-10.262zm29.742 0v-26.741c0-2.993-.934-5.32-2.803-6.96-1.87-1.659-4.17-2.47-6.901-2.47-1.797 0-3.451.378-4.942 1.118a8.5 8.5 0 0 0-3.541 3.227c-.862 1.407-1.311 3.102-1.311 5.103l-5.77-2.236c.306-3.426 1.313-6.383 2.984-8.89a17.7 17.7 0 0 1 6.47-5.841c2.64-1.407 5.553-2.11 8.716-2.11s6.146.685 8.769 2.056c2.606 1.37 4.69 3.3 6.236 5.806 1.546 2.488 2.337 5.481 2.337 8.98v28.993h-10.262zm39.519.937q-6.066 0-10.945-3.083c-3.253-2.056-5.84-4.85-7.727-8.367-1.905-3.516-2.84-7.465-2.84-11.828 0-4.364.953-8.403 2.84-11.92 1.887-3.515 4.474-6.328 7.727-8.42q4.906-3.137 10.945-3.137c3.414 0 6.45.74 9.093 2.2s4.744 3.48 6.29 6.04c1.545 2.56 2.336 5.464 2.336 8.691v12.91c0 3.246-.755 6.15-2.282 8.692-1.528 2.56-3.613 4.562-6.29 6.04-2.678 1.46-5.715 2.2-9.13 2.2zm1.67-9.737c3.793 0 6.848-1.28 9.184-3.84 2.336-2.561 3.504-5.825 3.504-9.828 0-2.686-.521-5.048-1.581-7.104q-1.59-3.083-4.421-4.814c-1.905-1.154-4.115-1.731-6.667-1.731s-4.673.577-6.578 1.73q-2.857 1.732-4.474 4.815c-1.097 2.056-1.636 4.436-1.636 7.104s.539 5.05 1.636 7.105q1.617 3.083 4.474 4.814 2.83 1.731 6.578 1.731zm12.023 8.8v-12.064l1.78-10.945-1.78-10.854V161.4h10.262v44.9zm40.363.936q-6.065 0-10.944-3.083c-3.253-2.055-5.841-4.85-7.728-8.366-1.904-3.516-2.84-7.465-2.84-11.829 0-4.363.953-8.402 2.84-11.918s4.475-6.33 7.728-8.421q4.906-3.138 10.944-3.138c3.415 0 6.452.74 9.094 2.2 2.64 1.46 4.744 3.48 6.29 6.04 1.545 2.561 2.336 5.464 2.336 8.692v12.91c0 3.246-.755 6.149-2.282 8.691-1.528 2.56-3.613 4.562-6.29 6.04-2.678 1.461-5.715 2.201-9.13 2.201zm1.69-9.736c2.552 0 4.762-.577 6.667-1.731 1.887-1.154 3.378-2.76 4.42-4.815 1.06-2.055 1.582-4.417 1.582-7.104s-.521-5.049-1.581-7.104q-1.591-3.083-4.421-4.815c-1.905-1.154-4.115-1.73-6.667-1.73s-4.673.576-6.578 1.73q-2.857 1.732-4.475 4.815c-1.096 2.055-1.635 4.435-1.635 7.104s.539 5.049 1.635 7.104q1.618 3.083 4.475 4.815 2.83 1.73 6.578 1.73m22.266 8.799h-10.262v-12.063l1.779-10.945-1.78-10.855v-33.484h10.263z" fill="#fff"/><path d="M607.998 206.3v-65.472h10.71v65.471zm7.368 0v-9.828h34.109v9.827zm47.713-53.121c-1.743 0-3.181-.595-4.331-1.785s-1.725-2.65-1.725-4.4c0-1.749.575-3.21 1.725-4.4s2.588-1.784 4.33-1.784c1.745 0 3.272.595 4.386 1.785s1.672 2.65 1.672 4.4c0 1.748-.558 3.209-1.672 4.399s-2.588 1.785-4.385 1.785m-5.121 53.12v-44.898h10.26V206.3z" fill="#dfff32"/><path d="M679.667 206.3v-44.9h10.26v44.9zm30.676 0v-25.912c0-2.993-.952-5.463-2.84-7.392-1.904-1.93-4.33-2.904-7.313-2.904-1.995 0-3.756.433-5.32 1.317-1.563.865-2.767 2.091-3.63 3.642s-1.312 3.336-1.312 5.337l-4.007-2.235c0-3.426.754-6.474 2.246-9.124a16.47 16.47 0 0 1 6.2-6.275c2.642-1.533 5.607-2.29 8.896-2.29 3.288 0 6.343.865 8.949 2.578a18.56 18.56 0 0 1 6.146 6.636c1.492 2.705 2.247 5.535 2.247 8.457v28.146h-10.262zm20.685-.001v-67.347h10.26V206.3zm28.448 0-18.924-22.918 18.834-21.98h12.202l-21.62 24.685.468-5.896 22.087 26.09h-13.047zm33.821.938q-3.72 0-7.17-.974c-2.3-.649-4.421-1.586-6.344-2.813a21.2 21.2 0 0 1-5.032-4.435l6.524-6.546c1.545 1.804 3.342 3.174 5.355 4.075q3.02 1.353 6.847 1.353 3.45 0 5.23-1.028c1.186-.685 1.779-1.677 1.779-2.993s-.557-2.434-1.671-3.174c-1.115-.757-2.57-1.388-4.331-1.911-1.78-.523-3.631-1.082-5.59-1.64a26.6 26.6 0 0 1-5.588-2.29 12.05 12.05 0 0 1-4.331-3.968q-1.672-2.515-1.672-6.545c0-2.867.665-5.337 2.013-7.393 1.33-2.055 3.235-3.642 5.679-4.778 2.462-1.118 5.39-1.677 8.806-1.677 3.594 0 6.793.631 9.56 1.911s5.086 3.192 6.937 5.752l-6.523 6.546c-1.312-1.623-2.804-2.831-4.475-3.643s-3.612-1.208-5.787-1.208c-2.05 0-3.63.307-4.762.938q-1.671.946-1.671 2.705c0 1.244.557 2.217 1.67 2.903 1.115.685 2.57 1.28 4.332 1.785a316 316 0 0 1 5.589 1.64 26 26 0 0 1 5.589 2.435 12.6 12.6 0 0 1 4.33 4.11c1.115 1.714 1.672 3.95 1.672 6.69 0 4.364-1.527 7.826-4.565 10.387q-4.555 3.84-12.4 3.84z" fill="#dbfe25"/></svg>
