<svg xmlns="http://www.w3.org/2000/svg" viewBox="0 0 692.95 184.21"><defs><style>.cls-1{fill:#03c;}.cls-2{fill:#f0be53;}.cls-3{fill:#8f34df;}.cls-4{fill:#eb287e;}.cls-5{fill:#ec6a3e;}</style></defs><g id="Calque_1" data-name="Calque 1"><path class="cls-1" d="M309.77,76.18Q318,84.21,318,100v41.23H297.12v-38q0-8.56-3.75-12.79t-10.84-4.21q-7.9,0-12.58,4.88t-4.69,14.53v35.6H244.38v-72h19.94v8.43a27.73,27.73,0,0,1,10.31-7,35.9,35.9,0,0,1,13.52-2.47Q301.53,68.15,309.77,76.18Z"/><path class="cls-1" d="M406.08,69.22v72H386.27v-8.56a27.8,27.8,0,0,1-9.9,7.16,31.2,31.2,0,0,1-12.45,2.48q-14.19,0-22.49-8.17t-8.3-24.23V69.22H354v37.61q0,17.4,14.59,17.4,7.5,0,12-4.88t4.55-14.53V69.22Z"/><path class="cls-1" d="M535.86,76.11q8,8,8,23.89v41.23H522.94v-38q0-8.56-3.54-12.79t-10.11-4.21q-7.37,0-11.65,4.75t-4.28,14.12v36.14H472.48v-38q0-17-13.66-17-7.21,0-11.51,4.75T443,105.09v36.14H422.15v-72h19.94v8.3a26.4,26.4,0,0,1,9.84-7,33.22,33.22,0,0,1,12.79-2.4,30.9,30.9,0,0,1,13.78,3,24.38,24.38,0,0,1,9.91,8.76,29.64,29.64,0,0,1,11.18-8.7,35.25,35.25,0,0,1,14.79-3.07Q527.9,68.15,535.86,76.11Z"/><path class="cls-1" d="M620.06,72.76a33.2,33.2,0,0,1,12.92,13,39.25,39.25,0,0,1,4.68,19.48A39.21,39.21,0,0,1,633,124.7a33.2,33.2,0,0,1-12.92,13,36.69,36.69,0,0,1-18.27,4.62q-14.87,0-22.62-9.38v8.3H559.22V41.91H580.1V76.85q7.9-8.7,21.69-8.7A36.69,36.69,0,0,1,620.06,72.76Zm-8.7,47q5.16-5.43,5.15-14.52T611.36,90.7a18.75,18.75,0,0,0-26.37,0q-5.16,5.43-5.15,14.53T585,119.75a18.75,18.75,0,0,0,26.37,0Z"/><path class="cls-1" d="M678.29,70.82A37.59,37.59,0,0,1,693,68.15V87.42c-2.32-.18-3.88-.27-4.69-.27q-9,0-14,5t-5.09,15.06v34H648.24v-72h19.94v9.5A23.28,23.28,0,0,1,678.29,70.82Z"/><path class="cls-2" d="M.05,28.06c0,.57,0,1.13,0,1.7V184.21H29.76a29.75,29.75,0,0,0,29.76-29.76V108.08l-52-58.56A29.67,29.67,0,0,1,.05,28.06Z"/><path class="cls-3" d="M170.22,156.15c0-.56.05-1.13.05-1.7V0H140.51a29.75,29.75,0,0,0-29.76,29.76V76.13l52,58.56A29.7,29.7,0,0,1,170.22,156.15Z"/><path class="cls-4" d="M110.75,76.13,52,10,52,9.93a29.64,29.64,0,0,1,7.57,19.83v78.32l58.74,66.14.1.1a29.64,29.64,0,0,1-7.61-19.87Z"/><path class="cls-5" d="M52,9.93c-.63-.7-1.29-1.36-2-2l-.17-.16A27.09,27.09,0,0,0,47.7,6l-.25-.19c-.73-.54-1.48-1-2.25-1.52L45,4.18c-.77-.46-1.56-.88-2.36-1.27l-.14-.06A29.49,29.49,0,0,0,31.66.07l-.21,0c-.85,0-1.7,0-2.55,0h-.38c-.84,0-1.67.11-2.5.21l-.37,0C24.82.4,24,.56,23.17.74l-.34.08c-.82.2-1.64.43-2.45.7l-.33.11q-1.2.42-2.37.93l-.35.16c-.77.35-1.52.74-2.27,1.17l-.33.19c-.75.44-1.49.91-2.21,1.43l-.25.18c-.74.54-1.46,1.12-2.16,1.73l-.17.15c-.71.63-1.38,1.29-2,2l-.15.16q-.94,1-1.77,2.13c-.06.08-.12.15-.17.23-.55.74-1.06,1.49-1.53,2.27l-.12.21c-.46.78-.89,1.57-1.28,2.37L2.85,17A29.64,29.64,0,0,0,.07,27.87a1.37,1.37,0,0,0,0,.19A29.67,29.67,0,0,0,7.51,49.52l52,58.56V29.76A29.64,29.64,0,0,0,52,9.93Z"/><path class="cls-1" d="M164.43,172.15a26.51,26.51,0,0,0,1.53-2.27,2.25,2.25,0,0,0,.12-.21,24.65,24.65,0,0,0,1.28-2.37l.06-.13a29.76,29.76,0,0,0,2.79-10.83c0-.06,0-.13,0-.19a29.7,29.7,0,0,0-7.46-21.46l-52-58.56v78.32a29.64,29.64,0,0,0,7.61,19.87c.24.28.5.54.75.8l.33.35c.35.35.7.68,1.06,1l.69.6.44.38.77.6.41.32.79.56.44.3c.26.17.52.34.79.5s.33.21.49.3l.76.44.59.32.7.36.74.34c.19.09.39.19.59.27l.93.38.43.17c.39.15.79.29,1.19.42l.21.07a30,30,0,0,0,9.06,1.4h0c.79,0,1.59,0,2.39-.1l.35,0c.77-.07,1.54-.18,2.31-.31l.36-.06c.77-.15,1.54-.32,2.3-.52l.29-.08c.78-.22,1.55-.46,2.32-.75l.17-.07c.78-.29,1.55-.61,2.3-1l.07,0c.76-.36,1.51-.77,2.24-1.2l.2-.12c.72-.43,1.42-.9,2.11-1.4l.2-.14c.69-.51,1.35-1,2-1.62l.18-.16c.71-.63,1.38-1.29,2-2l.15-.16a27.37,27.37,0,0,0,1.77-2.13C164.32,172.3,164.38,172.23,164.43,172.15Z"/></g></svg>