<svg xmlns="http://www.w3.org/2000/svg" width="227" height="58" viewBox="0 0 227 58" fill="none"><path d="M24.5 15a5.5 5.5 0 1 0 0-11 5.5 5.5 0 0 0 0 11m12-6a4.5 4.5 0 1 0 0-9 4.5 4.5 0 0 0 0 9M48 6c1.657 0 3-1.12 3-2.5S49.657 1 48 1s-3 1.12-3 2.5S46.343 6 48 6m8 3a2 2 0 1 0 0-4 2 2 0 0 0 0 4m6.5 5a1.5 1.5 0 1 0 0-3 1.5 1.5 0 0 0 0 3" fill="#707e8e"/><path d="M31.42 33.299q0 2.22-.512 4.297a16.5 16.5 0 0 1-1.49 3.857 15.7 15.7 0 0 1-2.343 3.32 14.7 14.7 0 0 1-3.1 2.564 15.2 15.2 0 0 1-3.736 1.685q-2.026.585-4.297.585-2.197 0-4.199-.561a16.3 16.3 0 0 1-3.71-1.563 15.8 15.8 0 0 1-3.15-2.441 16.2 16.2 0 0 1-2.393-3.174 17.4 17.4 0 0 1-1.538-3.76 16 16 0 0 1-.537-4.174q0-2.124.513-4.15a17.2 17.2 0 0 1 1.465-3.858 17 17 0 0 1 2.343-3.32 15.5 15.5 0 0 1 3.052-2.613 15 15 0 0 1 3.687-1.709q1.977-.61 4.174-.61 3.54 0 6.446 1.099 2.93 1.098 4.98 3.149 2.076 2.026 3.198 4.932 1.148 2.88 1.148 6.445m-10.839.635q0-1.05-.317-2.027a5.3 5.3 0 0 0-.88-1.758 4.3 4.3 0 0 0-1.464-1.245q-.855-.488-1.978-.488-1.147 0-2.05.415a4.7 4.7 0 0 0-1.563 1.148 4.9 4.9 0 0 0-.977 1.684 6 6 0 0 0-.341 2.027q0 1.025.293 2.05t.879 1.856 1.44 1.343q.879.512 2.026.512 1.148 0 2.051-.44a4.8 4.8 0 0 0 1.563-1.22 5.7 5.7 0 0 0 .976-1.782 6.4 6.4 0 0 0 .342-2.075M82.617 39.5q0 3.344-1.172 5.786-1.148 2.417-3.173 4.004-2.003 1.563-4.712 2.32-2.686.732-5.787.732-1.196 0-2.636-.318a35 35 0 0 1-2.881-.78 58 58 0 0 1-2.832-1.026 67 67 0 0 1-2.393-1.05l1.075-9.57q2.075 1.245 4.59 1.904a20.5 20.5 0 0 0 6.103.61q.66-.048 1.245-.22.61-.195 1.025-.56.415-.367.415-1.05 0-.465-.293-.782a2 2 0 0 0-.756-.537 4 4 0 0 0-1.05-.318 10 10 0 0 0-1.148-.17 12 12 0 0 0-1.05-.05h-.78q-2.1 0-3.834-.658a8.8 8.8 0 0 1-2.954-1.856q-1.22-1.22-1.904-2.93-.684-1.733-.684-3.833 0-2.88 1.148-5.15a12.1 12.1 0 0 1 3.1-3.883q1.953-1.611 4.468-2.466t5.2-.854q1.197 0 2.466.098 1.27.072 2.515.293a24 24 0 0 1 2.466.561 14.5 14.5 0 0 1 2.27.855l-.928 9.912a28 28 0 0 0-3.49-.928 16.7 16.7 0 0 0-3.54-.39q-.32 0-.831.024-.488 0-1.05.073-.537.05-1.098.17a4.3 4.3 0 0 0-1.001.343 1.8 1.8 0 0 0-.708.537q-.269.342-.245.805.025.537.391.83.39.294.977.44a6.7 6.7 0 0 0 1.318.122q.732 0 1.44-.024.708-.049 1.319-.074.61-.048 1-.024 1.954.122 3.516.83t2.637 1.88q1.1 1.172 1.66 2.807.585 1.612.586 3.565m44.995-21.387-5.713 32.862-13.867.293-2.978-16.553-2.979 15.283-13.867.488-5.762-31.396 12.11-1.074 2.441 19.287 3.272-17.822h9.521l3.809 18.066 1.953-20.508zm14.16-.488-1.709 33.252-10.302.537-.977-33.105zm27.857-.049-.244 10.352-7.276.293-.879 22.656-10.302.537L150 28.758l-7.275.39.293-11.523zm23.999 1.074-.879 10.303a9 9 0 0 0-1.392-.268 13 13 0 0 0-1.391-.074q-1.734 0-3.32.44a8.5 8.5 0 0 0-2.784 1.343 6.8 6.8 0 0 0-1.928 2.294q-.708 1.368-.708 3.247 0 1.368.39 2.393a4.8 4.8 0 0 0 1.148 1.685q.756.66 1.806 1 1.075.343 2.368.343.904 0 1.856-.171.952-.196 1.904-.513a17 17 0 0 0 3.467-1.611l-.391 11.474a17 17 0 0 1-2.05.88q-1.1.365-2.271.634a19 19 0 0 1-2.319.44q-1.148.146-2.197.146-3.467 0-6.324-1.294a15.1 15.1 0 0 1-4.883-3.516q-2.025-2.245-3.149-5.2-1.123-2.955-1.123-6.299 0-4.005 1.123-7.47 1.147-3.468 3.345-6.006 2.221-2.564 5.469-4.004 3.271-1.465 7.495-1.465 1.684 0 3.418.268a12.4 12.4 0 0 1 3.32 1.001m31.323 32.373-12.207.586-.098-10.302h-5.615L206.689 52h-10.937l.928-34.326 11.621.537-.733 17.53h5.42l.049-18.36 11.133.293z" fill="#1c3350"/><path d="M55.469 29.002q0 1.953-.708 3.735a14.6 14.6 0 0 1-1.88 3.32 19 19 0 0 1-2.637 2.857 32 32 0 0 1-2.978 2.344h7.715l-.587 10.156-22.851-.781v-8.887a37 37 0 0 0 2.71-1.05q1.44-.635 2.807-1.44a19.6 19.6 0 0 0 2.613-1.807 13.7 13.7 0 0 0 2.173-2.173 9.8 9.8 0 0 0 1.489-2.588 8 8 0 0 0 .562-3.003q0-.927-.342-1.635a3.1 3.1 0 0 0-.904-1.172 3.65 3.65 0 0 0-1.367-.708 5.3 5.3 0 0 0-1.636-.244q-.732 0-1.489.17a8 8 0 0 0-1.49.44 7.6 7.6 0 0 0-1.39.733 6.5 6.5 0 0 0-1.148.952l-2.149-9.57a8.4 8.4 0 0 1 2.076-1.514 13 13 0 0 1 2.465-.977q1.294-.39 2.637-.561t2.637-.171q2.88 0 5.371 1.05 2.49 1.025 4.321 2.856 1.856 1.806 2.906 4.297 1.074 2.49 1.074 5.371" fill="#ff611c"/></svg>
