<svg width="194" height="34" viewBox="0 0 194 34" fill="none" xmlns="http://www.w3.org/2000/svg"><path d="m45.645 10.753 1.386.129-.517 1.175zM19.263 0l-.137.614-8.07 3.103L3.71 9.006l.843 1.905L0 27.443l8.41.006 4.075-7.23 1.745 7.263h7.37l-.49-5.87 5.628-1.77 8.102 7.595 6.792.006-4.818-10.82 4.324-1.796 5.2-1.088 1.167-3.11-2.23-.312-2.343-1.58-6.693-1.653-1.15-.949-.35.93z" fill="#ff4e0f"/><path d="M80.025 16.394c0 7.09-6.975 12.066-15.378 12.066s-15.341-4.972-15.341-12.067c0-7.09 6.938-12.066 15.341-12.066s15.377 4.976 15.377 12.067M65.94 26.545V6.313c0-.908-.27-1.615-1.294-1.615-1.056 0-1.294.707-1.294 1.615v20.232c0 .908.307 1.547 1.294 1.547 1.02 0 1.294-.64 1.294-1.547m40.009-18.217c0-2.419-.716-3.194-2.213-3.226l-.918-.033v-.335h7.213v.335l-1.428.033c-1.736.032-2.177 1.143-2.177 3.226v12.03c0 6.452-5.612 8.102-11.36 8.102-7.995 0-11.907-2.958-11.907-9.545V5.438c0-.236-.069-.336-.34-.336l-2.484-.033v-.335h19.358v.335l-2.484.033c-.271 0-.372.1-.372.336v17.946c0 2.319 1.36 3.665 3.503 3.665 2.723 0 5.612-2.486 5.612-6.687V8.328zm20.652 8.269v10.756c0 .235.101.303.376.303l2.484.032v.336h-19.358v-.336l2.484-.032c.271 0 .34-.068.34-.303V5.438c0-.236-.069-.336-.34-.336l-2.484-.033v-.335h22.826c6.634 0 9.762 2.018 9.762 5.847 0 3.194-2.654 5.377-7.622 5.748v.1c5.171.404 7.076 2.354 7.857 5.108.376 1.311.647 2.522.85 3.362.033.135.101.235.271.235.373 0 .919-1.243.987-2.654h.34c-.068 4.033-3.471 5.948-8.471 5.948-4.592 0-7.416-1.615-7.824-6.32-.138-1.446-.239-2.957-.34-4.132-.102-.976-.272-1.344-1.429-1.38zm0-.54h.886c.918 0 1.359-.503 1.359-1.546v-8.03c0-.908-.441-1.38-1.359-1.38h-.886z" fill="#000057"/><path d="m161.886 1.505.137.168c-1.464.94-2.857 2.386-3.811 4-1.768 3.058-2.415 7.091-2.415 11.964 0 4.872.647 8.905 2.415 11.966.951 1.615 2.347 3.058 3.811 4l-.137.169c-6.089-1.747-14.391-6.487-14.391-16.132 0-9.648 8.302-14.385 14.391-16.135" fill="#ff4e0f"/><path d="M164.216 25.099h-.069l-3.912 2.957h-.238v-9.612h.339c1.36 4.672 6.227 9.645 12.145 9.645 3.844 0 4.9-1.075 4.9-1.715 0-.94-.308-1.278-3.775-2.386l-5.955-1.883c-4.285-1.343-7.687-3.765-7.687-9.005 0-4.1 2.856-8.773 9.354-8.773 2.722 0 6.157 1.243 7.553 2.486h.101l2.994-2.018h.307v7.09h-.271c-1.294-4.804-6.906-7.226-10.681-7.226-2.994 0-3.37.908-3.37 1.411 0 .74.17 1.043 2.553 1.815l6.873 2.218c4.458 1.447 7.282 4.201 7.282 8.638 0 5.78-3.334 9.713-10.171 9.713-2.964.006-6.844-1.709-8.272-3.355" fill="#ff4e0f"/><path d="m179.61 33.772-.138-.168c1.465-.94 2.857-2.386 3.811-4 1.768-3.059 2.416-7.092 2.416-11.967 0-4.873-.648-8.906-2.416-11.964-.951-1.614-2.346-3.058-3.811-4l.138-.168C185.699 3.252 194 7.992 194 17.637c0 9.648-8.301 14.388-14.39 16.135" fill="#ff4e0f"/></svg>
