<svg version="1.1" id="Calque_1" xmlns="http://www.w3.org/2000/svg" x="0" y="0" viewBox="0 0 164.4 162.2" xml:space="preserve"><style>.st0{fill:#e13e26}</style><path class="st0" d="M141.2 50.4 27.6 129.2c1 .8 2.1 1.6 3.2 2.4l111.5-77.3c-.3-1.3-.7-2.6-1.1-3.9m-2.7-7.3L21.8 124c.9.9 1.9 1.8 2.8 2.6l115.3-79.9c-.4-1.2-.9-2.4-1.4-3.6m-3.5-6.8L16.6 118.4c.8 1 1.6 1.9 2.5 2.9l117.7-81.6c-.6-1.2-1.2-2.3-1.8-3.4m-3.3-5.2-.9-1.2-118.7 82.4c.3.4.5.8.8 1.2.4.6.9 1.2 1.4 1.9L133 33c-.4-.6-.8-1.3-1.3-1.9m-5.6-7.1L8.2 105.7 10 109l118.5-82.1c-.8-1-1.6-2-2.4-2.9m-5.4-5.5L5 98.7c.5 1.2 1 2.4 1.5 3.5l116.9-81.1c-.9-.8-1.8-1.7-2.7-2.6m-6.2-4.9L2.5 91.2c.3 1.3.7 2.5 1.1 3.8l114-79c-1-.9-2-1.7-3.1-2.4m-7-4.4L.8 83.2c.2 1.4.4 2.7.7 4.1l109.6-76q-1.8-1.2-3.6-2.1m-7.8-3.8L0 74.5c0 1.5.1 2.9.3 4.4L103.7 7.2c-1.3-.7-2.7-1.3-4-1.8m-9-3L.4 65q-.3 2.4-.3 4.8l95.3-66c-1.6-.6-3.2-1-4.7-1.4M80.2.4l-77.9 54c-.5 1.8-.8 3.6-1.2 5.4L85.6 1.2C83.8.9 82 .6 80.2.4m-13-.2L6.5 42.3c-.9 2.1-1.8 4.2-2.5 6.3L74 0c-2.2 0-4.5 0-6.8.2m-19 3.9L16.9 25.8c-2.4 2.9-4.6 5.9-6.5 9.1L59 1.2c-3.6.7-7.2 1.7-10.8 2.9m81.6 112.1-36.6 25.3c7.1-2.1 13.9-5.4 20.3-9.8s11.8-9.7 16.3-15.5m8.3-13.9-60.7 42.1c2.7-.2 5.4-.5 8.1-1l48.9-33.9c1.3-2.3 2.5-4.7 3.7-7.2m3.9-10.8-76.1 52.8c2.1.2 4.1.3 6.2.3l68.1-47.2c.6-1.9 1.2-3.9 1.8-5.9m1.9-9.4-87.6 60.7c1.7.4 3.5.7 5.2 1L143 87.3c.4-1.7.7-3.5.9-5.2m.7-8.6-96.5 66.9 4.5 1.5 91.8-63.6c.1-1.6.1-3.2.2-4.8m-.3-7.8L40.8 137.4c1.3.6 2.7 1.2 4 1.8L144.6 70c-.1-1.4-.2-2.9-.3-4.3m-1.1-7.4L34.3 133.8l3.6 2.1 106-73.5c-.2-1.4-.4-2.7-.7-4.1"/><path class="st0" d="M84.4 143.6c8.6-4 17.5-8.5 27.2-14.2 5.3-3.1 10.4-6.5 15.5-10 2.6-3 4.9-6.3 7-9.7-7.9 6-16.1 11.4-24.4 16.4-13.3 7.9-25.2 13.5-36.7 18.5 3.8 0 7.6-.4 11.4-1m54-42c1-2.3 1.9-4.6 2.7-7-11.4 9.5-23.3 18-35.7 25.3-15.8 9.4-29.8 15.5-43.2 21.3-1.5.6-2.9 1.3-4.4 1.9 2.3.5 4.6.8 6.9 1.1 13.3-5.8 27-11.8 42.6-21.1 10.8-6.4 21.1-13.6 31.1-21.5"/><path class="st0" d="M103 116.9c13.9-8.3 27.2-17.9 39.8-28.8.4-2 .8-3.9 1.1-5.9-13.5 12.1-27.8 22.6-42.8 31.5-15.8 9.4-29.8 15.5-43.2 21.3-3.7 1.6-7.4 3.2-11.2 4.9 1.7.7 3.5 1.2 5.3 1.8l7.5-3.3c13.4-5.9 27.5-12 43.5-21.5"/><path class="st0" d="M98.7 110.6c16.1-9.6 31.4-21 45.8-34.1.1-1.7.2-3.5.1-5.2-15 14-31 26.1-47.8 36.1-15.8 9.4-29.8 15.5-43.2 21.3-5.2 2.3-10.5 4.5-15.9 7 1.4.8 2.8 1.5 4.3 2.2 4.4-2 8.8-3.9 13.1-5.8 13.5-5.8 27.6-11.9 43.6-21.5"/><path class="st0" d="M94.4 104.4c17.7-10.5 34.4-23.2 50-38-.1-1.6-.3-3.1-.5-4.7-16 15.4-33.2 28.6-51.4 39.4-15.8 9.4-29.8 15.5-43.2 21.3-6.2 2.7-12.5 5.5-19.1 8.5q1.8 1.35 3.6 2.4c5.8-2.7 11.4-5.1 17-7.5 13.5-5.8 27.5-11.9 43.6-21.4"/><path class="st0" d="M90 98.2c18.8-11.2 36.5-24.9 53-40.9-.3-1.4-.7-2.8-1-4.2-16.7 16.5-34.7 30.5-53.9 41.9-15.8 9.4-29.8 15.5-43.2 21.3-6.9 3-13.9 6-21.2 9.6 1 .9 2.1 1.8 3.1 2.7 6.7-3.2 13.2-6 19.6-8.8C60 113.8 74 107.7 90 98.2"/><path class="st0" d="M85.7 91.9c19.6-11.6 38-26 55-42.9-.4-1.3-.9-2.6-1.4-3.9-17.1 17.3-35.7 31.9-55.5 43.6C68 98.1 54 104.2 40.6 110c-7.3 3.2-14.7 6.4-22.5 10.1.9 1 1.8 1.9 2.7 2.9 7.3-3.5 14.4-6.6 21.3-9.6 13.5-5.8 27.6-11.9 43.6-21.5"/><path class="st0" d="M81.4 85.7c20.1-11.9 38.9-26.7 56.3-44.2-.6-1.2-1.2-2.4-1.8-3.5-17.4 17.6-36.3 32.5-56.5 44.5-15.8 9.4-29.8 15.5-43.2 21.3-7.4 3.2-15 6.5-22.9 10.4.7 1 1.5 2.1 2.3 3.1 7.6-3.7 14.9-6.9 22.1-10 13.6-6 27.7-12.1 43.7-21.6"/><path class="st0" d="M76.9 79.2c20.3-12.1 39.4-27.1 57-44.8-.7-1.1-1.4-2.2-2.1-3.2C114.3 49 95.3 64 75 76c-15.8 9.4-29.8 15.5-43.2 21.3-7.3 3.2-14.8 6.4-22.6 10.2.6 1.1 1.3 2.2 1.9 3.2 7.7-3.7 15-6.9 22.2-10 13.5-5.8 27.6-11.9 43.6-21.5"/><path class="st0" d="M72.6 73c20.3-12.1 39.4-27.1 57-44.8-.8-1-1.6-2-2.4-2.9-17.4 17.6-36.4 32.6-56.5 44.5-15.8 9.4-29.8 15.5-43.2 21.3-7 3-14.1 6.1-21.6 9.7.5 1.1 1 2.3 1.6 3.4 7.4-3.6 14.5-6.7 21.5-9.7 13.5-5.9 27.6-12 43.6-21.5"/><path class="st0" d="M68.3 66.8c20.1-12 39-26.8 56.4-44.3l-2.7-2.7c-17.2 17.3-35.9 31.9-55.7 43.7C50.5 73 36.6 79 23.1 84.9c-6.5 2.8-13 5.7-19.9 8.9.4 1.2.8 2.4 1.2 3.5 6.9-3.3 13.6-6.2 20.2-9 13.6-5.9 27.6-12 43.7-21.5"/><path class="st0" d="M64 60.5c19.7-11.7 38.2-26.2 55.4-43.2-1-.8-1.9-1.6-2.9-2.4C99.6 31.6 81.4 45.8 62 57.3c-15.8 9.4-29.8 15.5-43.2 21.3-5.7 2.5-11.5 5-17.4 7.8.2 1.3.5 2.5.8 3.8 6.2-2.9 12.2-5.5 18.1-8.1 13.6-5.9 27.6-12 43.7-21.6"/><path class="st0" d="M59.6 54.3C78.7 43 96.7 29 113.3 12.8c-1.1-.7-2.1-1.4-3.2-2.1C93.8 26.5 76.3 40 57.7 51.1 41.9 60.5 28 66.5 14.5 72.4c-4.7 2-9.4 4.1-14.2 6.3.1 1.3.3 2.6.4 3.9C5.9 80.2 11 78 16 75.8c13.6-5.9 27.6-12 43.6-21.5"/><path class="st0" d="M55.3 48.1c18.2-10.8 35.4-24 51.4-39.3L103.1 7C87.6 21.7 71 34.4 53.4 44.8c-15.8 9.4-29.8 15.5-43.2 21.3L0 70.6v4.1c3.9-1.8 7.8-3.4 11.6-5.1 13.6-5.9 27.7-12 43.7-21.5"/><path class="st0" d="M51 41.8C68.1 31.7 84.3 19.4 99.4 5.3l-3.9-1.5C80.9 17.3 65.4 28.9 49.1 38.6 33.2 48 19.3 54.1 5.8 59.9c-1.7.7-3.4 1.5-5.1 2.2-.2 1.4-.4 2.9-.5 4.3 2.4-1 4.7-2.1 7.1-3.1C20.9 57.5 34.9 51.4 51 41.8"/><path class="st0" d="M46.7 35.6c15.6-9.3 30.6-20.4 44.6-33-1.5-.4-2.9-.7-4.4-1.1-13.4 11.8-27.4 22.1-42.2 30.9-15.4 9.2-29 15.1-42.2 20.8-.4 1.5-.8 3-1.1 4.6.5-.2 1-.4 1.5-.7 13.7-5.9 27.7-12 43.8-21.5"/><path class="st0" d="M82 .7C80.3.5 78.5.3 76.8.2 65.2 10 53 18.7 40.4 26.2 28 33.5 16.7 38.8 5.9 43.6c-.7 1.6-1.3 3.3-1.9 4.9 11.9-5.2 24.4-10.9 38.3-19.2C56.2 21.1 69.4 11.5 82 .7M71.1 0c-2.2 0-4.3.2-6.5.4Q50.8 11.2 36.1 19.9c-8.6 5.1-16.6 9.2-24.3 12.9-1.2 1.9-2.3 3.7-3.3 5.7 9.3-4.2 19-9 29.6-15.3C49.4 16.3 60.5 8.6 71.1 0M56.4 1.8c-4 .9-7.9 2.1-11.8 3.7-4.2 2.8-8.5 5.6-12.8 8.2-2.2 1.3-4.4 2.6-6.6 3.8-3.2 2.7-6 5.7-8.6 8.8 5.5-2.8 11.2-5.8 17.2-9.4C41.5 12.3 49 7.2 56.4 1.8m84 84.5h3.9v28.9h15.5c3-7.9 4.6-16.4 4.6-25.4 0-39.9-32.4-72.3-72.3-72.3S19.8 49.9 19.8 89.8s32.4 72.3 72.3 72.3c29.5 0 54.9-17.7 66.1-43h-17.8zM96.1 66.1c4.5 0 8.2 3.5 8.2 7.8v.8H90.5c.4 2.6 2.8 4.6 5.6 4.6 1.6 0 3.1-.6 4.2-1.8h3l-.1.2c-1.5 2.5-4.2 4-7.1 4-4.5 0-8.2-3.5-8.2-7.8.1-4.3 3.8-7.8 8.2-7.8m8.8 20.2-10.4 15.5-2.4-3.4 8.1-12h4.7zM79.2 55.9h2.5v25.4h-2.5zm-22.4 1.5h15v2.5h-15zm-21.2-.1h11.1c4 0 7.2 3.2 7.2 7.2s-3.2 7.2-7.2 7.2h-8.4v8.7h-2.5V69.3h10.8c2.6 0 4.8-2.1 4.8-4.8 0-2.6-2.1-4.8-4.8-4.8h-11zm15.6 49.9H39.7v11.9h-3.9v-15.7h15.4c3.6 0 6.5-2.9 6.5-6.5s-2.9-6.5-6.5-6.5H35.7v-3.9h15.5c5.7 0 10.4 4.7 10.4 10.4 0 5.6-4.7 10.3-10.4 10.3m19.9 11.9h-3.9V86.3h3.9zm-6.8-37.3c-4.7 0-8.6-3.5-8.6-7.9s3.8-7.9 8.6-7.9 8.6 3.5 8.6 7.9-3.9 7.9-8.6 7.9m16.4 37.3H76l11.5-16.8-10.7-16h4.7l10.7 16zm20.3 0-8.8-12.8 2.4-3.4 11.1 16.2zm32.3-15.4H114v11.6h19.4v3.9h-23.2V99.8h23.2v3.9zm0-13.8h-23.2V86h23.2z"/><ellipse class="st0" cx="64.3" cy="73.9" rx="6.1" ry="5.4"/><path class="st0" d="M96.1 68.5c-2.5 0-4.7 1.6-5.5 3.8h10.9c-.7-2.2-2.9-3.8-5.4-3.8"/><path d="M51.5 64.5c0 2.6-2.1 4.8-4.8 4.8H35.9v11.2h2.5v-8.7h8.4c4 0 7.2-3.2 7.2-7.2s-3.2-7.2-7.2-7.2H35.6v2.5h11.1c2.7-.2 4.8 2 4.8 4.6m-.3 21.9H35.7v3.9h15.5c3.6 0 6.5 2.9 6.5 6.5s-2.9 6.5-6.5 6.5H35.8V119h3.9v-11.9h11.6c5.7 0 10.4-4.7 10.4-10.4-.1-5.6-4.8-10.3-10.5-10.3m13.1-20.3c-4.7 0-8.6 3.5-8.6 7.9s3.8 7.9 8.6 7.9 8.6-3.5 8.6-7.9-3.9-7.9-8.6-7.9m0 13.2c-3.4 0-6.1-2.4-6.1-5.4s2.7-5.4 6.1-5.4 6.1 2.4 6.1 5.4c-.1 3-2.8 5.4-6.1 5.4m-7.5-21.9h15v2.5h-15zm22.4-1.5h2.5v25.4h-2.5zm-12 30.4h3.9V119h-3.9zm42.9 32.8h23.2v-3.8H114v-11.6h19.3v-3.9h-23.2zm0-33.1h23.2v3.9h-23.2zm-14-4.2c2.9 0 5.6-1.5 7.1-4l.1-.2h-3c-1.1 1.1-2.6 1.8-4.2 1.8-2.8 0-5.2-2-5.6-4.6h13.7V74c0-4.3-3.7-7.8-8.2-7.8s-8.2 3.5-8.2 7.8c.2 4.3 3.9 7.8 8.3 7.8m0-13.3c2.5 0 4.7 1.6 5.5 3.8H90.7c.7-2.2 3-3.8 5.4-3.8m48.2 46.8v-29h-3.9v32.8h17.8c.6-1.3 1.1-2.6 1.6-3.9h-15.5zm-67.6-29 10.8 16L76 119.1h4.7l11.5-16.8-10.8-16zm15.4 12.1 2.4 3.4 10.4-15.5h-4.7zm.1 7.9 8.8 12.8h4.7l-11.1-16.2z" style="fill:#fff"/></svg>
