<?xml version="1.0" encoding="UTF-8" standalone="no"?>
<!-- Created with Inkscape (http://www.inkscape.org/) -->

<svg
   width="136.26295mm"
   height="49.800434mm"
   viewBox="0 0 136.26295 49.800433"
   version="1.1"
   id="svg125650"
   inkscape:version="1.1.2 (0a00cf5339, 2022-02-04)"
   sodipodi:docname="bus-63.svg"
   xmlns:inkscape="http://www.inkscape.org/namespaces/inkscape"
   xmlns:sodipodi="http://sodipodi.sourceforge.net/DTD/sodipodi-0.dtd"
   xmlns="http://www.w3.org/2000/svg"
   xmlns:svg="http://www.w3.org/2000/svg">
  <sodipodi:namedview
     id="namedview125652"
     pagecolor="#ffffff"
     bordercolor="#000000"
     borderopacity="0.25"
     inkscape:pageshadow="2"
     inkscape:pageopacity="0.0"
     inkscape:pagecheckerboard="0"
     inkscape:document-units="mm"
     showgrid="false"
     fit-margin-top="0"
     fit-margin-left="0"
     fit-margin-right="0"
     fit-margin-bottom="0"
     inkscape:zoom="1"
     inkscape:cx="393"
     inkscape:cy="330.5"
     inkscape:window-width="1551"
     inkscape:window-height="1082"
     inkscape:window-x="176"
     inkscape:window-y="321"
     inkscape:window-maximized="0"
     inkscape:current-layer="layer1" />
  <defs
     id="defs125647" />
  <g
     inkscape:label="Layer 1"
     inkscape:groupmode="layer"
     id="layer1"
     transform="translate(-49.910347,-109.63417)">
    <rect
       style="fill:#ffffff;fill-opacity:1;stroke-width:0.0264583;stroke-linecap:square;stroke-linejoin:round;paint-order:markers fill stroke"
       id="rect52546"
       width="72.367455"
       height="43.503036"
       x="110.15551"
       y="113.46669" />
    <rect
       style="fill:#e2001a;fill-opacity:1;stroke-width:0.0264584;stroke-linecap:square;stroke-linejoin:round;paint-order:markers fill stroke"
       id="rect206779-6"
       width="48.804634"
       height="49.800434"
       x="49.910347"
       y="109.63417" />
    <g
       aria-label="B"
       id="text3756"
       style="font-size:50.8px;font-family:'Arcade Gamer';-inkscape-font-specification:'Arcade Gamer';text-align:center;text-anchor:middle;fill:#ffffff;stroke-width:0.0264583;stroke-linecap:square;stroke-linejoin:round;paint-order:markers fill stroke"
       transform="translate(0.15786,-0.14021)">
      <path
         d="M 56.871434,152.46326 V 116.89334 H 85.32241 v 7.11894 H 63.990379 v 7.11895 H 85.32241 v 7.11894 H 63.990379 v 7.09414 H 85.32241 v 7.11895 z m 28.450976,-7.11895 v -7.09414 h 7.118946 v 7.09414 z m 0,-14.21308 v -7.11895 h 7.118946 v 7.11895 z"
         id="path9438" />
    </g>
    <g
       aria-label="63"
       id="text14162"
       style="font-size:42.3333px;font-family:'Arcade Gamer';-inkscape-font-specification:'Arcade Gamer';text-align:center;text-anchor:middle;fill:#e2001a;fill-opacity:1;stroke-width:0.0264583;stroke-linecap:square;stroke-linejoin:round;paint-order:markers fill stroke"
       transform="matrix(0.9340537,0,0,0.93482725,5.0578221,10.773369)">
      <path
         d="m 120.97431,140.61192 v -16.31024 h 5.44306 v 5.44307 h 16.31022 v 5.44307 h -16.31022 v 5.4241 z m 5.44306,5.44305 v -5.44305 h 16.31022 v 5.44305 z m 0,-21.75329 v -5.44305 h 21.75329 v 5.44305 z m 16.31022,16.31024 v -5.4241 h 5.44307 v 5.4241 z"
         id="path40990"
         style="fill:#e2001a;fill-opacity:1;stroke-width:0.0242756" />
      <path
         d="m 153.59476,140.61192 v -5.4241 h 5.44307 v 5.4241 z m 0,-10.86717 v -5.44307 h 5.44307 v 5.44307 z m 5.44307,16.31022 v -5.44305 h 16.31022 v 5.44305 z m 0,-21.75329 v -5.44305 h 16.31022 v 5.44305 z m 5.44305,10.88614 v -5.44307 h 10.86717 v 5.44307 z m 10.86717,5.4241 v -5.4241 h 5.44306 v 5.4241 z m 0,-10.86717 v -5.44307 h 5.44306 v 5.44307 z"
         id="path40992"
         style="fill:#e2001a;fill-opacity:1;stroke-width:0.0242756" />
    </g>
    <rect
       style="fill:#e2001a;fill-opacity:1;stroke-width:0.0888607;stroke-linecap:square;stroke-linejoin:round;paint-order:markers fill stroke"
       id="rect15598"
       width="80.299255"
       height="7.1189594"
       x="105.83392"
       y="109.63419" />
    <rect
       style="fill:#e2001a;fill-opacity:1;stroke-width:0.0888829;stroke-linecap:square;stroke-linejoin:round;paint-order:markers fill stroke"
       id="rect15598-6"
       width="80.339378"
       height="7.1189594"
       x="105.83392"
       y="152.31564" />
    <rect
       style="fill:#e2001a;fill-opacity:1;stroke-width:0.0699794;stroke-linecap:square;stroke-linejoin:round;paint-order:markers fill stroke"
       id="rect15598-6-7"
       width="49.800407"
       height="7.1189594"
       x="-159.4346"
       y="105.83392"
       transform="rotate(-90)" />
    <rect
       style="fill:#e2001a;fill-opacity:1;stroke-width:0.0627013;stroke-linecap:square;stroke-linejoin:round;paint-order:markers fill stroke"
       id="rect15598-6-7-5"
       width="39.980186"
       height="7.1189594"
       x="-154.93552"
       y="179.01053"
       transform="rotate(-90)"
       inkscape:transform-center-x="78.227755"
       inkscape:transform-center-y="-2.3274493" />
    <rect
       style="fill:#ffffff;fill-opacity:1;stroke-width:0.0264583;stroke-linecap:square;stroke-linejoin:round;paint-order:markers fill stroke"
       id="rect52546-2"
       width="72.367455"
       height="43.503036"
       x="110.15552"
       y="170.38608" />
    <path
       id="rect52801-7"
       style="fill:#048040;fill-opacity:1;stroke-width:0.508369;stroke-linecap:square;stroke-linejoin:round;paint-order:markers fill stroke"
       d="M 211.36523 215.12891 L 211.36523 242.03516 L 211.36523 403.34961 L 238.27148 403.34961 L 515.00977 403.34961 L 515.00977 376.44336 L 514.84375 376.44336 L 514.84375 242.03516 L 514.85742 242.03516 L 514.85742 215.12891 L 238.27148 215.12891 L 211.36523 215.12891 z M 372.89844 242.03516 L 487.9375 242.03516 L 487.9375 376.44336 L 372.89844 376.44336 L 372.89844 242.03516 z "
       transform="matrix(0.26458333,0,0,0.26458333,49.910347,109.63417)" />
    <rect
       style="fill:#e2001a;fill-opacity:1;stroke-width:0.0264584;stroke-linecap:square;stroke-linejoin:round;paint-order:markers fill stroke"
       id="rect206779-6-7"
       width="48.804634"
       height="49.800434"
       x="49.910347"
       y="166.55356" />
    <g
       aria-label="B"
       id="text3756-0"
       style="font-size:50.8px;font-family:'Arcade Gamer';-inkscape-font-specification:'Arcade Gamer';text-align:center;text-anchor:middle;fill:#ffffff;stroke-width:0.0264583;stroke-linecap:square;stroke-linejoin:round;paint-order:markers fill stroke"
       transform="translate(0.15786169,56.779178)">
      <path
         d="M 56.871434,152.46326 V 116.89334 H 85.32241 v 7.11894 H 63.990379 v 7.11895 H 85.32241 v 7.11894 H 63.990379 v 7.09414 H 85.32241 v 7.11895 z m 28.450976,-7.11895 v -7.09414 h 7.118946 v 7.09414 z m 0,-14.21308 v -7.11895 h 7.118946 v 7.11895 z"
         id="path9438-9" />
    </g>
    <g
       aria-label="63"
       id="text14162-3"
       style="font-size:42.3333px;font-family:'Arcade Gamer';-inkscape-font-specification:'Arcade Gamer';text-align:center;text-anchor:middle;fill:#ffffff;fill-opacity:1;stroke-width:0.0264583;stroke-linecap:square;stroke-linejoin:round;paint-order:markers fill stroke"
       transform="matrix(1.0940117,0,0,1.273859,-19.648966,23.79617)">
      <g
         aria-label="S"
         transform="scale(1.000414,0.99958618)"
         id="text72898"
         style="font-size:38.8676px;fill:#ffffff;stroke-width:0.0242922">
        <path
           d="m 120.71203,145.5361 v -5.44678 h 21.76814 v 5.44678 z m 0,-16.32135 v -5.44678 h 5.44678 v 5.44678 z m 5.44678,5.44677 v -5.44677 h 16.32136 v 5.44677 z m 0,-10.89355 v -5.44678 h 21.76813 v 5.44678 z m 16.32136,16.32135 v -5.4278 h 5.44677 v 5.4278 z"
           id="path88867"
           style="fill:#ffffff" />
      </g>
    </g>
    <g
       aria-label="1"
       id="text98325"
       style="font-size:42.3333px;font-family:'Arcade Gamer';-inkscape-font-specification:'Arcade Gamer';text-align:center;text-anchor:middle;fill:#048040;stroke-width:0.0264583;stroke-linecap:square;stroke-linejoin:round;paint-order:markers fill stroke">
      <path
         d="m 156.29234,206.72989 v -5.93245 h 5.93245 v -17.77668 h -5.93245 v -5.93245 h 11.8649 v 23.70913 h 5.93245 v 5.93245 z"
         id="path112396" />
    </g>
  </g>
</svg>
