<?xml version="1.0" encoding="UTF-8" standalone="no"?>
<!-- Created with Inkscape (http://www.inkscape.org/) -->

<svg
   width="115.00022mm"
   height="144.99994mm"
   viewBox="0 0 115.00022 144.99994"
   version="1.1"
   id="svg5"
   inkscape:version="1.1.2 (0a00cf5339, 2022-02-04)"
   sodipodi:docname="pin.svg"
   xmlns:inkscape="http://www.inkscape.org/namespaces/inkscape"
   xmlns:sodipodi="http://sodipodi.sourceforge.net/DTD/sodipodi-0.dtd"
   xmlns="http://www.w3.org/2000/svg"
   xmlns:svg="http://www.w3.org/2000/svg">
  <sodipodi:namedview
     id="namedview7"
     pagecolor="#ffffff"
     bordercolor="#000000"
     borderopacity="0.25"
     inkscape:pageshadow="2"
     inkscape:pageopacity="0.0"
     inkscape:pagecheckerboard="0"
     inkscape:document-units="mm"
     showgrid="false"
     fit-margin-top="0"
     fit-margin-left="0"
     fit-margin-right="0"
     fit-margin-bottom="0"
     inkscape:zoom="0.38885732"
     inkscape:cx="311.16811"
     inkscape:cy="-106.72295"
     inkscape:window-width="1551"
     inkscape:window-height="1082"
     inkscape:window-x="839"
     inkscape:window-y="227"
     inkscape:window-maximized="0"
     inkscape:current-layer="layer1" />
  <defs
     id="defs2" />
  <g
     inkscape:label="Layer 1"
     inkscape:groupmode="layer"
     id="layer1"
     transform="translate(-53.819012,-39.346238)">
    <path
       id="rect858-0-6-7-9-4-4-5-0-4-6"
       style="fill:#dd790f;fill-opacity:1;stroke-width:0.0374176;stroke-linecap:square;stroke-linejoin:round;paint-order:markers fill stroke"
       d="m 98.818851,44.345938 v 5.00021 H 83.819242 v 4.9997 h -10.00042 v 5.00021 h -4.99969 v 9.99991 h -5.00021 v 15.00011 h -4.9997 V 104.3459 h 4.9997 v 5.00021 h 5.00021 v 4.9997 10.00042 h 4.99969 v 9.99991 h 5.00021 v 9.9999 h 5.00021 v 5.00021 h 4.9997 v 4.9997 h 5.000209 v 5.00021 h 4.9997 v 4.99969 h 5.000209 v 5.00022 h 4.99969 v 5.00021 h 5.00021 v -5.00021 h 5.00022 v -5.00022 h 4.99969 v -4.99969 h 5.00021 v -5.00021 h 4.9997 v -4.9997 h 5.00021 v -5.00021 h 5.00021 v -9.9999 h 4.99969 v -9.99991 h 5.00022 v -10.00042 -4.9997 h 4.99969 v -5.00021 h 5.00021 V 84.346078 h -5.00021 v -15.00011 h -4.99969 v -9.99991 h -5.00022 v -5.00021 h -9.9999 v -4.9997 h -15.00012 v -5.00021 z m 0,15.00012 h 25.000019 v 5.00021 h 5.00021 v 4.9997 h 4.9997 v 5.00021 h 5.00021 v 9.9999 19.999822 h -5.00021 v 5.00021 h -4.9997 v 4.9997 h -5.00021 v 5.00021 H 98.818851 v -5.00021 h -4.9997 v -4.9997 h -5.000209 v -5.00021 h -4.9997 v -19.999822 -9.9999 h 4.9997 v -5.00021 h 5.000209 v -4.9997 h 4.9997 z" />
    <path
       id="rect858"
       style="fill:#7a4207;fill-opacity:1;stroke-width:0.0264583;stroke-linecap:square;stroke-linejoin:round;paint-order:markers fill stroke"
       d="m 98.818852,39.346238 v 5.00022 h 25.000018 v -5.00022 z m 25.000018,5.00022 v 4.99969 h 15.00012 v -4.99969 z m 15.00012,4.99969 v 5.00021 h 9.9999 v -5.00021 z m 9.9999,5.00021 v 4.9997 h 5.00022 v -4.9997 z m 5.00022,4.9997 v 10.00042 h 4.9997 v -10.00042 z m 4.9997,10.00042 v 14.9996 h 5.0002 v -14.9996 z m 5.0002,14.9996 v 25.000032 h 5.00022 V 84.346078 Z m 0,25.000032 h -5.0002 v 15.00011 h 5.0002 z m -5.0002,15.00011 h -4.9997 v 9.99991 h 4.9997 z m -4.9997,9.99991 h -5.00022 v 9.99991 h 5.00022 z M 98.818852,44.346458 h -14.9996 v 4.99969 h 14.9996 z m -14.9996,4.99969 h -10.00043 v 5.00021 h 10.00043 z m -10.00043,5.00021 h -4.99969 v 4.9997 h 4.99969 z m -4.99969,4.9997 h -5.00021 v 10.00042 h 5.00021 z m -5.00021,10.00042 h -4.9997 v 14.9996 h 4.9997 z m -4.9997,14.9996 h -5.00021 v 25.000032 h 5.00021 z m 0,25.000032 v 15.00011 h 4.9997 v -15.00011 z m 4.9997,15.00011 v 9.99991 h 5.00021 v -9.99991 z m 5.00021,9.99991 v 9.99991 h 4.99969 v -9.99991 z m 29.99972,-69.999862 v 5.00021 h 25.000018 v -5.00021 z m 25.000018,5.00021 v 4.99969 h 5.00021 v -4.99969 z m 5.00021,4.99969 v 5.00022 h 4.9997 v -5.00022 z m 4.9997,5.00022 v 25.000022 h 5.00021 V 79.346388 Z m 0,25.000022 h -4.9997 v 4.9997 h 4.9997 z m -4.9997,4.9997 h -5.00021 v 5.00021 h 5.00021 z m -5.00021,5.00021 H 98.818852 v 5.00021 h 25.000018 z m -25.000018,0 v -5.00021 h -4.9997 v 5.00021 z m -4.9997,-5.00021 v -4.9997 h -5.00021 v 4.9997 z m -5.00021,-4.9997 V 79.346388 h -4.99969 v 25.000022 z m 0,-25.000022 h 5.00021 v -5.00022 h -5.00021 z m 5.00021,-5.00022 h 4.9997 v -4.99969 h -4.9997 z m -20.00033,70.000382 v 4.9997 h 5.00022 v -4.9997 z m 5.00022,4.9997 v 5.00021 h 5.00021 v -5.00021 z m 5.00021,5.00021 v 4.99968 h 4.99969 v -4.99968 z m 4.99969,4.99968 v 5.00022 h 5.00021 v -5.00022 z m 5.00021,5.00022 v 4.99969 h 4.9997 v -4.99969 z m 4.9997,4.99969 v 5.00021 h 5.000208 v -5.00021 z m 5.000208,5.00021 v 5.00021 h 4.99969 v -5.00021 z m 4.99969,5.00021 v 4.9997 h 5.00022 v -4.9997 z m 5.00022,0 h 5.00021 v -5.00021 h -5.00021 z m 5.00021,-5.00021 h 4.99969 v -5.00021 h -4.99969 z m 4.99969,-5.00021 h 5.00021 v -4.99969 h -5.00021 z m 5.00021,-4.99969 h 4.9997 v -5.00022 h -4.9997 z m 4.9997,-5.00022 h 5.00021 v -4.99968 h -5.00021 z m 5.00021,-4.99968 h 5.00021 v -5.00021 h -5.00021 z m 5.00021,-5.00021 h 4.99969 v -4.9997 h -4.99969 z" />
    <path
       id="rect858-0-6-7-9-4-45"
       style="fill:#ae5e0c;fill-opacity:1;stroke-width:0.0264583;stroke-linecap:square;stroke-linejoin:round;paint-order:markers fill stroke"
       d="m 98.819369,59.346068 v 4.99969 h 25.000021 v -4.99969 z m 25.000021,4.99969 v 5.00021 h 4.9997 v -5.00021 z m 4.9997,5.00021 v 4.9997 h 5.00021 v -4.9997 z m 5.00021,4.9997 v 5.00021 h 5.00021 v -5.00021 z m -34.999931,-9.99991 h -5.000212 v 5.00021 h 5.000212 z m -5.000212,5.00021 h -4.999694 v 4.9997 h 4.999694 z m -4.999694,4.9997 h -5.000212 v 5.00021 h 5.000212 z M 58.819227,104.34591 v 5.00021 h 5.000209 v -5.00021 z m 5.000209,5.00021 v 14.9996 h 4.999697 v -14.9996 z m 4.999697,14.9996 v 10.00042 h 5.000212 v -10.00042 z m 5.000212,10.00042 v 9.99991 h 4.999693 v -9.99991 z m 4.999693,9.99991 v 4.99969 h 5.000213 v -4.99969 z m 5.000213,4.99969 v 5.00021 h 5.000212 v -5.00021 z m 5.000212,5.00021 v 5.00021 h 4.999694 v -5.00021 z m 4.999694,5.00021 v 4.9997 h 5.000212 v -4.9997 z m 5.000212,4.9997 v 5.00021 h 4.999691 v -5.00021 z m 4.999691,5.00021 v 4.99969 h 5.00021 v -4.99969 z m 5.00021,4.99969 v 5.00022 h 5.00022 v -5.00022 z m 5.00022,0 h 4.99969 v -4.99969 h -4.99969 z m 4.99969,-4.99969 h 5.00021 v -5.00021 h -5.00021 z m 5.00021,-5.00021 h 4.9997 v -4.9997 h -4.9997 z m 4.9997,-4.9997 h 5.00021 v -5.00021 h -5.00021 z m 5.00021,-5.00021 h 5.00021 v -5.00021 h -5.00021 z m 5.00021,-5.00021 h 4.99969 v -4.99969 h -4.99969 z m 4.99969,-4.99969 h 5.00022 v -9.99991 h -5.00022 z m 5.00022,-9.99991 h 4.99969 v -10.00042 h -4.99969 z m 4.99969,-10.00042 h 5.00021 v -14.9996 h -5.00021 z m 5.00021,-14.9996 h 4.9997 v -5.00021 h -4.9997 z" />
    <path
       id="rect858-0-6-7-9-4-32-5-8-7-9-3"
       style="fill:#efcda6;fill-opacity:1;stroke-width:0.0264583;stroke-linecap:square;stroke-linejoin:round;paint-order:markers fill stroke"
       d="m 98.818332,44.346458 v 5.00021 h -9.999908 v 5.00021 h 10.000424 v -5.00021 h 4.999692 v -5.00021 z m 20.000328,0 v 5.00021 h 5.00021 v -5.00021 z m 5.00021,5.00021 v 5.00021 h 4.9997 v -5.00021 z m 19.99981,5.00021 v 4.9997 h 4.9997 v -4.9997 z m -75.000068,9.99991 v 4.9997 h 5.000212 v -4.9997 z m 0,4.9997 h -5.000211 v 10.00042 h 5.000211 z m 79.999768,-4.9997 v 4.9997 h 5.00021 v -4.9997 z m 5.00021,4.9997 v 10.00042 h 5.00021 V 69.346488 Z M 83.81873,104.34693 v 4.9997 h 5.000213 v -4.9997 z m 50.00005,0 v 4.9997 h 4.99969 v -4.9997 z m -40.000143,9.99991 v 4.99969 h 4.999695 v 5.00022 h 5.000208 v -5.00022 h -4.999692 v -4.99969 z m 19.999813,4.99969 v 5.00022 h 10.00042 v -5.00022 z" />
    <path
       id="rect858-0-6-7-9-4-32-5-8-7-9-3-2"
       style="fill:#fae6d7;fill-opacity:1;stroke-width:0.0264583;stroke-linecap:square;stroke-linejoin:round;paint-order:markers fill stroke"
       d="m 103.81854,44.346458 v 5.00021 h 15.00012 v -5.00021 z m -19.99981,5.00021 v 4.9997 h 5.000213 v -4.9997 z m 44.99984,0 v 5.00021 h 9.9999 v 4.9997 h 5.00021 v -4.9997 h -4.99969 v -5.00021 z m -54.999746,5.00021 v 4.9997 h 9.999906 v -4.9997 z m 0,4.9997 h -4.999695 v 5.00021 h 4.999695 z m 74.999556,0 v 5.00021 h 5.00021 v -5.00021 z M 88.818943,109.34663 v 5.00021 h 4.999694 v -5.00021 z m 40.000137,0 v 5.00021 h 4.9997 v -5.00021 z m -5.00021,5.00021 v 4.99969 h 4.9997 v -4.99969 z m -20.00033,4.99969 v 5.00022 h 9.99991 v -5.00022 z" />
  </g>
</svg>
