<?xml version="1.0" encoding="UTF-8" standalone="no"?>
<!-- Created with Inkscape (http://www.inkscape.org/) -->

<svg
   width="125.00063mm"
   height="124.99909mm"
   viewBox="0 0 125.00063 124.99909"
   version="1.1"
   id="svg125650"
   inkscape:version="1.1.2 (0a00cf5339, 2022-02-04)"
   sodipodi:docname="train-station.svg"
   xmlns:inkscape="http://www.inkscape.org/namespaces/inkscape"
   xmlns:sodipodi="http://sodipodi.sourceforge.net/DTD/sodipodi-0.dtd"
   xmlns="http://www.w3.org/2000/svg"
   xmlns:svg="http://www.w3.org/2000/svg">
  <sodipodi:namedview
     id="namedview125652"
     pagecolor="#ffffff"
     bordercolor="#000000"
     borderopacity="0.25"
     inkscape:pageshadow="2"
     inkscape:pageopacity="0.0"
     inkscape:pagecheckerboard="0"
     inkscape:document-units="mm"
     showgrid="false"
     fit-margin-top="0"
     fit-margin-left="0"
     fit-margin-right="0"
     fit-margin-bottom="0"
     inkscape:zoom="0.80087682"
     inkscape:cx="388.32439"
     inkscape:cy="353.98702"
     inkscape:window-width="1551"
     inkscape:window-height="1082"
     inkscape:window-x="1009"
     inkscape:window-y="98"
     inkscape:window-maximized="0"
     inkscape:current-layer="layer1" />
  <defs
     id="defs125647" />
  <g
     inkscape:label="Layer 1"
     inkscape:groupmode="layer"
     id="layer1"
     transform="translate(-44.466638,-68.387971)">
    <path
       id="rect159894"
       style="fill:#07314c;fill-opacity:1;stroke-width:0.0286558;stroke-linecap:square;stroke-linejoin:round;paint-order:markers fill stroke"
       d="m 93.427893,74.027618 v 5.414944 H 77.182487 v 5.415507 H 66.351473 v 5.414955 h -5.414944 v 10.831006 h -5.415518 v 16.24542 h -5.414944 v 27.07642 h 5.414944 v 16.24541 h 5.415518 v 10.83101 h 5.414944 v 5.41495 h 10.831014 v 5.41551 h 16.245406 v 5.41495 h 27.076997 v -5.41495 h 16.24541 v -5.41551 h 10.83101 v -5.41495 h 5.41495 v -10.83101 h 5.41551 v -16.24541 h 5.41495 v -27.07642 h -5.41495 v -16.24542 h -5.41551 V 90.273024 h -5.41495 V 84.858069 H 136.7503 v -5.415507 h -16.24541 v -5.414944 z" />
    <path
       id="rect858"
       style="fill:#160e25;fill-opacity:1;stroke-width:0.0264583;stroke-linecap:square;stroke-linejoin:round;paint-order:markers fill stroke"
       d="m 94.466686,68.387971 v 4.999693 h -5.000212 -5.000213 v 5.19e-4 h -4.999177 v 4.999693 h -5.00021 -5.000212 v 4.999697 5.15e-4 h -4.999696 v 4.999694 h -5.00021 v 4.999696 h -5.000212 v 4.999694 h 5.000212 v 10e-4 H 54.46706 v 4.999698 h -5.000212 v 4.9997 4.99969 h 5.000212 v 5.2e-4 h -5.16e-4 -5.000212 v 4.99969 h -4.999694 v 4.9997 4.99969 0.002 4.99815 0.002 4.99814 0.002 4.9997 h 5.00021 v 4.99969 4.9997 h 5.000212 v 5.1e-4 h -5.000212 v 4.9997 h 4.999177 v 4.99969 h 5.000213 v -4.99969 h 0.001 v -14.9996 H 54.46706 V 118.3875 h 4.999696 v -14.9996 h 5.16e-4 4.999694 V 93.387478 h 4.999696 v -4.999696 h 5.16e-4 9.999906 v -5.000209 h 14.999602 v -4.999697 h -9.99939 v -5.16e-4 h 4.999178 5.000212 v 5.16e-4 h 25.000024 v -5.16e-4 h 4.99969 v 5.16e-4 h -4.99969 v 4.999697 h 15.00012 v 5.000209 h 9.9999 v -5.16e-4 h 5.00022 v -4.999693 h -5.00022 v -4.999697 h -4.99969 -5.2e-4 -4.99969 v -4.999693 h -5.00021 -4.9997 v -5.19e-4 h -5.00021 v -4.999693 h -5.00021 -5.00021 -5.00021 -4.999182 z m 50.000044,19.999811 v 4.999696 h 5.00022 V 103.3879 h 4.99969 v -5.000728 h 5.00021 v -4.999694 h -4.99969 v -4.999696 h -5.00021 z m 9.99991,15.000118 v 14.9996 h 5.00021 v 25.00003 h -4.99969 v 14.9996 h -5.2e-4 -4.99969 v 10.00042 h -4.9997 v 4.9997 h -5.2e-4 -9.9999 v 5.00021 h -14.9996 v 4.99969 h 9.99939 v 5.2e-4 h -4.99918 -5.00021 v -5.2e-4 H 94.467202 v 5.2e-4 h -4.999694 v -5.2e-4 h 4.999694 v -4.99969 H 79.467084 v -5.00021 h -9.999906 v 5.1e-4 h -5.000212 v 4.9997 h 5.000212 v 4.99969 h 5.000212 4.999694 v 4.9997 h 5.000212 4.999694 v 5.1e-4 h 5.000212 v 4.9997 h 5.000212 5.000216 5.00021 5.00021 4.99918 v -4.9997 h 5.00021 5.00021 v -5.1e-4 h 4.99918 v -4.9997 h 5.00021 5.00021 v -4.99969 -5.2e-4 h 4.9997 v -4.99969 h 5.00021 v -4.9997 h 5.00021 v -4.99969 h -5.00021 v -10e-4 h 4.99969 v -4.99969 h 5.00022 v -4.9997 -4.99969 h -5.00022 v -5.2e-4 h 5.2e-4 4.9997 5e-4 v -4.99969 h 4.9997 v -4.9997 -4.99969 -0.002 -4.99815 -0.002 -4.99814 -0.002 -4.9997 h -5.0002 v -4.99969 -4.9997 h -5.00022 v -5.1e-4 h 5.00022 v -4.9997 h -4.99918 v -4.999694 h -5.00022 v 4.999694 z m -84.999462,69.99935 v -4.9997 h -5.000212 v -10.00042 h -4.999694 v 5.00073 H 54.46706 v 4.99969 h 4.999696 v 4.9997 h 5.00021 z" />
    <path
       id="rect126452"
       style="fill:#dd790f;fill-opacity:1;stroke-width:0.0264583;stroke-linecap:square;stroke-linejoin:round;paint-order:markers fill stroke"
       d="m 74.466795,133.39035 v 4.99969 4.9997 4.99969 4.9997 h 5.00022 5.00021 5.00021 30.001275 5.00021 5.00021 5.00021 5.00021 v -4.9997 -4.99969 -4.9997 -4.99969 h -5.00021 -5.00021 -5.00021 -5.00021 -30.001275 -5.00021 -5.00021 z m 5.00022,4.99969 h 5.00021 5.00021 v 4.9997 4.99969 h -5.00021 -5.00021 v -4.99969 z m 45.001905,0 h 5.00021 5.00021 v 4.9997 4.99969 h -5.00021 -5.00021 v -4.99969 z" />
    <path
       id="rect126452-43-0"
       style="fill:#efcda6;fill-opacity:1;stroke-width:0.0264583;stroke-linecap:square;stroke-linejoin:round;paint-order:markers fill stroke"
       d="m 94.467665,88.393094 v 4.9997 h -5.00021 -5.00021 -5.00021 v 1.02371 h -0.0362 v 3.97598 h -4.96404 v 4.999696 24.99848 4.99969 h 5.00022 5.00021 5.00021 5.00021 5.00021 5.000215 5.00021 5.00022 5.00021 5.00021 5.00021 5.00021 5.00022 v -4.99969 -24.99848 -4.999696 h -5.00022 v -4.99969 h -5.00021 -5.00021 -5.00021 v -4.9997 h -5.00021 -5.00022 -5.00021 -5.000215 z m -15.00063,14.999086 h 5.00021 5.00021 5.00021 5.00021 5.000215 v 4.9997 4.99969 4.9997 4.99969 4.9997 h -5.000215 -5.00021 -5.00021 -5.00021 -5.00021 z m 30.001265,0 h 5.00022 5.00021 5.00021 5.00021 5.00021 v 24.99848 h -5.00021 -5.00021 -5.00021 -5.00021 -5.00022 v -4.9997 -4.99969 -4.9997 -4.99969 z m -30.001265,34.99787 v 9.99939 h 10.00042 v -9.99939 z m 45.001905,0 v 9.99939 h 10.00042 v -9.99939 z m -50.002125,14.99908 v 4.9997 h 5.00022 5.00021 v 4.99969 4.9997 4.99969 h 5.00021 v -4.99969 h 5.00021 30.001275 v 4.99969 h 5.00021 v -4.99969 -4.9997 -4.99969 h 5.00021 5.00022 v -4.9997 h -5.00022 -5.00021 -5.00021 -5.00021 -5.00021 -5.00022 -5.00021 -5.000215 -5.00021 -5.00021 -5.00021 -5.00021 z m 15.00064,4.9997 h 5.00021 5.00021 5.000215 5.00021 5.00022 5.00021 5.00021 v 4.99969 h -30.001275 -5.00021 z" />
    <rect
       style="fill:#07314c;fill-opacity:1;stroke-width:0.0529165;stroke-linecap:square;stroke-linejoin:round;paint-order:markers fill stroke"
       id="rect166703"
       width="10.000396"
       height="9.9993744"
       x="79.467041"
       y="138.39005" />
    <rect
       style="fill:#07314c;fill-opacity:1;stroke-width:0.0529165;stroke-linecap:square;stroke-linejoin:round;paint-order:markers fill stroke"
       id="rect166703-7"
       width="10.000396"
       height="9.9993744"
       x="124.46895"
       y="138.39006" />
  </g>
</svg>
