<?xml version="1.0" encoding="UTF-8" standalone="no"?>
<!-- Created with Inkscape (http://www.inkscape.org/) -->

<svg
   width="112.71664mm"
   height="112.71663mm"
   viewBox="0 0 112.71664 112.71663"
   version="1.1"
   id="svg125650"
   inkscape:version="1.1.2 (0a00cf5339, 2022-02-04)"
   sodipodi:docname="velov.svg"
   xmlns:inkscape="http://www.inkscape.org/namespaces/inkscape"
   xmlns:sodipodi="http://sodipodi.sourceforge.net/DTD/sodipodi-0.dtd"
   xmlns="http://www.w3.org/2000/svg"
   xmlns:svg="http://www.w3.org/2000/svg">
  <sodipodi:namedview
     id="namedview125652"
     pagecolor="#ffffff"
     bordercolor="#000000"
     borderopacity="0.25"
     inkscape:pageshadow="2"
     inkscape:pageopacity="0.0"
     inkscape:pagecheckerboard="0"
     inkscape:document-units="mm"
     showgrid="false"
     fit-margin-top="0"
     fit-margin-left="0"
     fit-margin-right="0"
     fit-margin-bottom="0"
     inkscape:zoom="0.80087681"
     inkscape:cx="113.00115"
     inkscape:cy="324.64419"
     inkscape:window-width="2560"
     inkscape:window-height="1363"
     inkscape:window-x="0"
     inkscape:window-y="0"
     inkscape:window-maximized="1"
     inkscape:current-layer="layer1" />
  <defs
     id="defs125647" />
  <g
     inkscape:label="Layer 1"
     inkscape:groupmode="layer"
     id="layer1"
     transform="translate(-49.863827,-109.63417)">
    <path
       id="rect2001"
       style="fill:#e2001a;fill-opacity:1;stroke-width:0.032199;stroke-linecap:square;stroke-linejoin:round;paint-order:markers fill stroke"
       d="m 61.728737,109.63417 v 5.93245 h -5.93246 v 5.93246 h -5.93245 v 88.98681 h 5.93245 v 5.93246 h 5.93246 v 5.93245 h 88.986813 v -5.93245 h 5.93246 v -5.93246 h 5.93245 v -88.98681 h -5.93245 v -5.93246 h -5.93246 v -5.93245 z" />
    <path
       id="rect1057"
       style="fill:#ffffff;stroke-width:0.0458272;stroke-linecap:square;stroke-linejoin:round;paint-order:markers fill stroke"
       d="m 115.12083,133.36398 v 11.86491 h 11.86491 v -5.93245 -5.93246 z m 0,11.86491 h -11.86491 v 5.93246 h -5.932464 v 5.93245 h -5.932449 v 11.86491 h 5.932449 v 5.93245 h 5.932464 v -11.8649 h 5.93245 v -5.93246 h 5.93246 z m 0,11.86491 v 5.93246 h 11.86491 v -5.93246 z m 11.86491,5.93246 v 5.93245 h 11.8649 v -5.93245 z m -23.72982,11.8649 v 17.79737 h 5.93245 v -17.79737 z m -29.662273,0 v 5.93246 h 17.79736 v -5.93246 z m 17.79736,5.93246 v 17.79736 h 5.932449 v -17.79736 z m 0,17.79736 h -17.79736 v 5.93246 h 17.79736 z m -17.79736,0 v -17.79736 h -5.93246 v 17.79736 z m 47.459633,-23.72982 v 5.93246 h 17.79736 v -5.93246 z m 17.79736,5.93246 v 17.79736 h 5.93246 v -17.79736 z m 0,17.79736 h -17.79736 v 5.93246 h 17.79736 z m -17.79736,0 v -17.79736 h -5.93245 v 17.79736 z" />
    <rect
       style="fill:#ffffff;stroke-width:0.0264583;stroke-linecap:square;stroke-linejoin:round;paint-order:markers fill stroke"
       id="rect1057-06-9-2-9-31-9-3-4-4"
       width="5.9324493"
       height="5.9324493"
       x="144.78313"
       y="121.49915" />
    <rect
       style="fill:#ffffff;stroke-width:0.0953968;stroke-linecap:square;stroke-linejoin:round;paint-order:markers fill stroke"
       id="rect1057-06-9-2-9-31-9-2"
       width="5.9324493"
       height="77.121834"
       x="150.71559"
       y="127.4316" />
    <rect
       style="fill:#ffffff;stroke-width:0.0953966;stroke-linecap:square;stroke-linejoin:round;paint-order:markers fill stroke"
       id="rect1057-06-9-2-9-31-9-54-2"
       width="5.9324341"
       height="77.121826"
       x="210.48589"
       y="-144.78313"
       transform="rotate(90)" />
    <rect
       style="fill:#ffffff;stroke-width:0.0264583;stroke-linecap:square;stroke-linejoin:round;paint-order:markers fill stroke"
       id="rect1057-06-9-2-9-31-9-54-2-76"
       width="5.9324493"
       height="5.9324493"
       x="204.55342"
       y="-150.71556"
       transform="rotate(90)" />
    <rect
       style="fill:#ffffff;stroke-width:0.0264583;stroke-linecap:square;stroke-linejoin:round;paint-order:markers fill stroke"
       id="rect1057-06-9-2-9-31-9-2-2-6"
       width="5.9324493"
       height="5.9324493"
       x="-67.661301"
       y="-210.48589"
       transform="scale(-1)" />
    <rect
       style="fill:#ffffff;stroke-width:0.0264583;stroke-linecap:square;stroke-linejoin:round;paint-order:markers fill stroke"
       id="rect1057-06-9-2-9-31-9-26-7-9"
       width="5.9324493"
       height="5.9324493"
       x="-67.661301"
       y="-127.4316"
       transform="scale(-1)" />
    <rect
       style="fill:#ffffff;stroke-width:0.0953966;stroke-linecap:square;stroke-linejoin:round;paint-order:markers fill stroke"
       id="rect1057-06-9-2-9-31-9-4-2-7-9"
       width="77.121834"
       height="5.9324341"
       x="-204.55342"
       y="55.796402"
       transform="rotate(-90)" />
    <rect
       style="fill:#ffffff;stroke-width:0.0953967;stroke-linecap:square;stroke-linejoin:round;paint-order:markers fill stroke"
       id="rect1057-06-9-2-9-31-9-2-2-6-3"
       width="5.9324493"
       height="77.121811"
       x="-121.49915"
       y="67.661301"
       transform="rotate(-90)" />
  </g>
</svg>
