<?xml version="1.0" encoding="UTF-8" standalone="no"?>
<!-- Created with Inkscape (http://www.inkscape.org/) -->

<svg
   width="18.016291mm"
   height="49.416679mm"
   viewBox="0 0 18.016291 49.416679"
   version="1.1"
   id="svg86369"
   inkscape:version="1.2.2 (b0a8486541, 2022-12-01)"
   sodipodi:docname="person-2.svg"
   xmlns:inkscape="http://www.inkscape.org/namespaces/inkscape"
   xmlns:sodipodi="http://sodipodi.sourceforge.net/DTD/sodipodi-0.dtd"
   xmlns="http://www.w3.org/2000/svg"
   xmlns:svg="http://www.w3.org/2000/svg">
  <sodipodi:namedview
     id="namedview86371"
     pagecolor="#ffffff"
     bordercolor="#000000"
     borderopacity="0.25"
     inkscape:showpageshadow="2"
     inkscape:pageopacity="0.0"
     inkscape:pagecheckerboard="0"
     inkscape:deskcolor="#d1d1d1"
     inkscape:document-units="mm"
     showgrid="false"
     inkscape:zoom="1.829812"
     inkscape:cx="-78.150105"
     inkscape:cy="39.621557"
     inkscape:window-width="1452"
     inkscape:window-height="1233"
     inkscape:window-x="922"
     inkscape:window-y="59"
     inkscape:window-maximized="0"
     inkscape:current-layer="layer1" />
  <defs
     id="defs86366" />
  <g
     inkscape:label="Layer 1"
     inkscape:groupmode="layer"
     id="layer1"
     transform="translate(-159.2824,-107.1914)">
    <path
       id="path29487"
       style="fill:#e34034;fill-opacity:1;stroke-width:0.4"
       d="m 164.66432,127.25448 v 6.12728 h 1.1157 v 2.22725 h 1.02319 v -1.26607 h 2.08824 2.08773 v 1.26607 h 1.02371 v -2.22725 h 1.11518 v -6.12728 h -1.11518 v 0.96532 h -0.97151 v 2.18643 h -2.13993 -2.14043 v -2.18643 h -0.971 v -0.96532 z" />
    <path
       id="path29536"
       style="fill:#e45155;fill-opacity:1;stroke-width:0.4"
       d="m 161.45212,122.0238 v 1.05368 h -0.96842 v 5.17953 h 1.06298 v -1.13068 h 1.96216 v -1.03301 h 1.15548 v 1.16116 h 1.1157 v 0.96532 h 0.971 v 2.18643 h 2.06602 2.21434 v -2.18643 h 0.97151 v -0.96532 h 1.11518 v -1.16116 h 1.15549 v 1.03301 h 1.96215 v 1.13068 h 1.06298 v -5.17953 h -0.96841 v -1.05368 h -5.22449 v 2.06447 h -2.28875 -2.14044 v -2.06447 z" />
    <path
       style="fill:#bc2849;fill-opacity:1;stroke-width:0.4"
       d="m 161.54668,128.25656 v -1.13023 h 1.96216 v 1.13023 z"
       id="path29675"
       sodipodi:nodetypes="ccccc" />
    <path
       style="fill:#bc2849;fill-opacity:1;stroke-width:0.4"
       d="m 174.27356,128.25656 v -1.13023 h 1.96215 v 1.13023 z"
       id="path29675-0"
       sodipodi:nodetypes="ccccc" />
    <path
       style="fill:#bc2849;fill-opacity:1;stroke-width:0.4"
       d="m 164.66432,133.38176 v 3.3768 h 8.45375 v -3.37679 h -1.11518 v 2.22725 h -1.02371 v -1.26607 h -4.17597 v 1.26607 h -1.02319 v -2.22725 z"
       id="path29704"
       sodipodi:nodetypes="ccccccccccccc" />
    <path
       id="path29706"
       style="fill:#3a424c;fill-opacity:1;stroke-width:0.4"
       d="m 164.81703,136.75847 v 17.61856 h 2.92953 v -15.76239 h 2.28875 v 15.76234 h 2.92954 v -17.61856 z"
       sodipodi:nodetypes="ccccccccc" />
    <path
       style="fill:#aa6b5b;fill-opacity:1;stroke-width:0.4"
       d="m 160.4837,128.25656 v 9.32998 h 1.94426 v -1.05246 h 1.08045 v -8.27752 z"
       id="path29842"
       sodipodi:nodetypes="ccccccc" />
    <path
       style="fill:#aa6b5b;fill-opacity:1;stroke-width:0.4"
       d="m 177.29869,128.25701 v 9.32998 h -1.94425 v -1.05246 h -1.08045 v -8.27752 z"
       id="path29842-3"
       sodipodi:nodetypes="ccccccc" />
    <path
       style="fill:#e34034;fill-opacity:1;stroke-width:0.4"
       d="m 167.74656,154.37703 h -5.10432 v 0.90973 h 5.1071 z"
       id="path29871"
       sodipodi:nodetypes="ccccc" />
    <path
       style="fill:#aa6b5b;fill-opacity:1;stroke-width:0.4"
       d="m 166.6766,124.08827 v -3.2275 h 4.42881 v 3.2275 z"
       id="path29873"
       sodipodi:nodetypes="ccccc" />
    <path
       style="fill:#6c9533;fill-opacity:1;stroke-width:0.4"
       d="m 159.2824,112.47768 h 15.76286 v -4.18781 h -1.07166 v -1.09847 h -10.34407 v 1.01088 h -1.1106 v 3.01746 h -3.23653 z"
       id="path29875"
       sodipodi:nodetypes="ccccccccccc" />
    <path
       style="fill:#aa6b5b;fill-opacity:1;stroke-width:0.4"
       d="m 162.46141,116.72076 h 1.10239 v 2.10227 h 1.06883 v 1.05969 h 1.09995 l 0.0163,0.97805 h 6.22621 v -1.04243 h 1.05232 v -1.02524 h 0.99158 v -1.01561 l 1.02631,-0.0234 v -5.27637 h -12.58386 z"
       id="path29877"
       sodipodi:nodetypes="ccccccccccccccccc" />
    <rect
       style="fill:#060607;fill-opacity:1;stroke-width:0.389057"
       id="rect36831"
       width="2.9295361"
       height="0.9849447"
       x="164.81703"
       y="153.41521" />
    <rect
       style="fill:#060607;fill-opacity:1;stroke-width:0.4"
       id="rect36839"
       width="1.4657142"
       height="1.4657142"
       x="166.66916"
       y="149.99361" />
    <rect
       style="fill:#060607;fill-opacity:1;stroke-width:0.4"
       id="rect36841"
       width="1.3620164"
       height="1.3620164"
       x="166.66916"
       y="146.8378" />
    <rect
       style="fill:#060607;fill-opacity:1;stroke-width:0.4"
       id="rect36843"
       width="1.3553483"
       height="1.0957372"
       x="166.77953"
       y="145.01872" />
    <rect
       style="fill:#060607;fill-opacity:1;stroke-width:0.4"
       id="rect36847"
       width="1.4657152"
       height="1.4260415"
       x="166.66914"
       y="141.83878" />
    <rect
       style="fill:#060607;fill-opacity:1;stroke-width:0.4"
       id="rect36849"
       width="1.3810011"
       height="1.3140262"
       x="165.64589"
       y="139.75819" />
    <rect
       style="fill:#060607;fill-opacity:1;stroke-width:0.396573"
       id="rect36851"
       width="8.1478224"
       height="2.0067518"
       x="164.81703"
       y="136.75842" />
    <rect
       style="fill:#060607;fill-opacity:1;stroke-width:0.4"
       id="rect36853"
       width="1.141181"
       height="1.0790904"
       x="166.66914"
       y="138.76517" />
    <rect
       style="fill:#060607;fill-opacity:1;stroke-width:0.389057"
       id="rect36831-7"
       width="2.9295361"
       height="0.9849447"
       x="-172.96484"
       y="153.41521"
       transform="scale(-1,1)" />
    <rect
       style="fill:#060607;fill-opacity:1;stroke-width:0.4"
       id="rect36839-5"
       width="1.4657142"
       height="1.4657142"
       x="-171.11272"
       y="149.99361"
       transform="scale(-1,1)" />
    <rect
       style="fill:#060607;fill-opacity:1;stroke-width:0.4"
       id="rect36841-9"
       width="1.3620164"
       height="1.3620164"
       x="-171.11272"
       y="146.8378"
       transform="scale(-1,1)" />
    <rect
       style="fill:#060607;fill-opacity:1;stroke-width:0.4"
       id="rect36843-2"
       width="1.3553483"
       height="1.0957372"
       x="-171.00235"
       y="145.01872"
       transform="scale(-1,1)" />
    <rect
       style="fill:#060607;fill-opacity:1;stroke-width:0.4"
       id="rect36847-2"
       width="1.4657152"
       height="1.4260415"
       x="-171.11273"
       y="141.83878"
       transform="scale(-1,1)" />
    <rect
       style="fill:#060607;fill-opacity:1;stroke-width:0.4"
       id="rect36849-8"
       width="1.3810011"
       height="1.3140262"
       x="-172.13599"
       y="139.75819"
       transform="scale(-1,1)" />
    <rect
       style="fill:#060607;fill-opacity:1;stroke-width:0.4"
       id="rect36853-7"
       width="1.141181"
       height="1.0790904"
       x="-171.11273"
       y="138.76517"
       transform="scale(-1,1)" />
    <path
       style="fill:#e7e4f2;fill-opacity:1;stroke-width:0.4"
       d="m 168.05283,156.58497 v -1.29821 h -5.41059 v 1.29821 z"
       id="path38013" />
    <path
       style="fill:#e34034;fill-opacity:1;stroke-width:0.4"
       d="m 170.03531,154.40015 h 5.10432 v 0.90972 h -5.10709 z"
       id="path29871-3"
       sodipodi:nodetypes="ccccc" />
    <path
       style="fill:#e7e4f2;fill-opacity:1;stroke-width:0.4"
       d="m 169.72904,156.60808 v -1.29821 h 5.41059 v 1.29821 z"
       id="path38013-6" />
    <path
       style="fill:#5c7331;fill-opacity:1;stroke-width:0.4"
       d="m 162.51893,111.21974 h 12.52633 v -1.98823 h -12.52633 z"
       id="path39275" />
    <rect
       style="fill:#a2c54f;fill-opacity:1;stroke-width:0.4"
       id="rect40857"
       width="4.2701035"
       height="1.257941"
       x="159.28241"
       y="111.21973" />
    <rect
       style="fill:#6c9533;fill-opacity:1;stroke-width:0.209003"
       id="rect40857-1"
       width="1.1657962"
       height="1.257941"
       x="161.2823"
       y="111.21973" />
    <rect
       style="fill:#7c4e45;fill-opacity:1;stroke-width:0.625902"
       id="rect40857-1-4"
       width="10.455157"
       height="1.257941"
       x="163.5638"
       y="112.47768" />
    <path
       style="fill:#7c4e45;fill-opacity:1;stroke-width:0.496632"
       d="m 160.4837,129.38679 v -1.13023 h 3.0247 v 1.13023 z"
       id="path29675-2"
       sodipodi:nodetypes="ccccc" />
    <path
       style="fill:#7c4e45;fill-opacity:1;stroke-width:0.496632"
       d="m 174.27356,129.38679 v -1.13023 h 3.0247 v 1.13023 z"
       id="path29675-2-9"
       sodipodi:nodetypes="ccccc" />
    <path
       style="fill:#7c4e45;fill-opacity:1;stroke-width:0.609602"
       d="m 166.6766,122.0238 v -1.16303 h 4.42881 v 1.16303 z"
       id="path29675-2-9-3"
       sodipodi:nodetypes="ccccc" />
    <path
       style="fill:#7c4e45;fill-opacity:1;stroke-width:0.580925"
       d="m 162.46141,116.72076 v -4.24309 h 1.10239 v 4.24309 z"
       id="path29675-2-9-3-1"
       sodipodi:nodetypes="ccccc" />
    <path
       style="fill:#7c4e45;fill-opacity:1;stroke-width:0.626435"
       d="m 174.01896,117.77749 v -5.29982 h 1.0263 v 5.29982 z"
       id="path29675-2-9-3-1-9"
       sodipodi:nodetypes="ccccc" />
    <rect
       style="fill:#000000;fill-opacity:1;stroke-width:0.4"
       id="rect45945"
       width="1.0987457"
       height="2.2082224"
       x="162.46323"
       y="112.47768" />
    <rect
       style="fill:#000000;fill-opacity:1;stroke-width:0.426957"
       id="rect45947"
       width="4.1752276"
       height="1.257941"
       x="163.56198"
       y="112.47768" />
    <rect
       style="fill:#000000;fill-opacity:1;stroke-width:0.344328"
       id="rect45951"
       width="1.1300485"
       height="1.201768"
       x="164.51955"
       y="113.65191" />
    <rect
       style="fill:#7c4e45;fill-opacity:1;stroke-width:0.351995"
       id="rect45951-7"
       width="1.1300485"
       height="1.2558811"
       x="164.51955"
       y="112.47974" />
    <rect
       style="fill:#000000;fill-opacity:1;stroke-width:0.4"
       id="rect45953"
       width="1.284778"
       height="2.3204422"
       x="165.51193"
       y="114.48785" />
    <path
       id="rect45955"
       style="fill:#7c4e45;fill-opacity:1;stroke-width:0.4"
       d="m 166.60361,117.70282 v 1.19062 h 1.03869 v 1.05627 h 2.20762 0.0165 v -1.05627 h 0.97307 0.0656 v -1.19062 h -0.0656 -3.19722 z" />
    <rect
       style="fill:#000000;fill-opacity:1;stroke-width:0.4"
       id="rect45945-8"
       width="1.0987457"
       height="2.2082224"
       x="-175.04526"
       y="112.47768"
       transform="scale(-1,1)" />
    <rect
       style="fill:#000000;fill-opacity:1;stroke-width:0.426957"
       id="rect45947-4"
       width="4.1752276"
       height="1.257941"
       x="-173.94652"
       y="112.47768"
       transform="scale(-1,1)" />
    <rect
       style="fill:#000000;fill-opacity:1;stroke-width:0.344328"
       id="rect45951-5"
       width="1.1300485"
       height="1.201768"
       x="-172.98895"
       y="113.65192"
       transform="scale(-1,1)" />
    <rect
       style="fill:#f9ea00;fill-opacity:1;stroke-width:0.312715"
       id="rect45951-5-0"
       width="1.0262972"
       height="1.0914321"
       x="-175.04526"
       y="116.68606"
       transform="scale(-1,1)" />
    <rect
       style="fill:#000000;fill-opacity:1;stroke-width:0.4"
       id="rect45953-0"
       width="1.284778"
       height="2.3204422"
       x="-171.99655"
       y="114.48785"
       transform="scale(-1,1)" />
    <rect
       style="fill:#7c4e45;fill-opacity:1;stroke-width:0.351995"
       id="rect45951-7-1"
       width="1.1300485"
       height="1.2558811"
       x="171.8589"
       y="112.47871" />
  </g>
</svg>
