<?xml version="1.0" encoding="UTF-8" standalone="no"?>
<!-- Created with Inkscape (http://www.inkscape.org/) -->

<svg
   width="16.671329mm"
   height="48.57299mm"
   viewBox="0 0 16.67133 48.57299"
   version="1.1"
   id="svg86369"
   inkscape:version="1.2.2 (b0a8486541, 2022-12-01)"
   sodipodi:docname="person-3.svg"
   xmlns:inkscape="http://www.inkscape.org/namespaces/inkscape"
   xmlns:sodipodi="http://sodipodi.sourceforge.net/DTD/sodipodi-0.dtd"
   xmlns="http://www.w3.org/2000/svg"
   xmlns:svg="http://www.w3.org/2000/svg">
  <sodipodi:namedview
     id="namedview86371"
     pagecolor="#ffffff"
     bordercolor="#000000"
     borderopacity="0.25"
     inkscape:showpageshadow="2"
     inkscape:pageopacity="0.0"
     inkscape:pagecheckerboard="0"
     inkscape:deskcolor="#d1d1d1"
     inkscape:document-units="mm"
     showgrid="false"
     inkscape:zoom="1.829812"
     inkscape:cx="16.395127"
     inkscape:cy="21.586917"
     inkscape:window-width="1452"
     inkscape:window-height="1233"
     inkscape:window-x="922"
     inkscape:window-y="59"
     inkscape:window-maximized="0"
     inkscape:current-layer="layer1" />
  <defs
     id="defs86366" />
  <g
     inkscape:label="Layer 1"
     inkscape:groupmode="layer"
     id="layer1"
     transform="translate(-172.92531,-139.00812)">
    <path
       style="fill:#0061aa;fill-opacity:1;stroke-width:0.4"
       d="m 185.78945,184.28085 h -3.79622 v 2.20462 l 0.48047,-6e-5 v 1.09247 l 1.2047,0.003 v -1.095 h 0.71332 v 1.09523 h 3.34698 v -1.67937 h -1.12627 v -1.00268 h -0.82305 z"
       id="path3401-9"
       sodipodi:nodetypes="ccccccccccccccc" />
    <path
       style="fill:#125387;fill-opacity:1;stroke-width:0.4"
       d="m 181.99323,184.28085 h 0.37193 v 0.34223 1.86239 h 5.37354 v 1.09494 h -3.34698 v -1.095 h -0.71332 v 1.095 h -1.2047 V 186.485 h -0.48047 z"
       id="path17897-1"
       sodipodi:nodetypes="cccccccccccccc" />
    <path
       style="fill:#ffffff;fill-opacity:1;stroke-width:0.396935"
       d="m 174.5574,153.06416 v 0.73599 h -0.76334 v 0.89479 h -0.86875 v 2.93676 h 3.1555 v -4.56754 z"
       id="path3214"
       sodipodi:nodetypes="ccccccccc" />
    <path
       style="fill:#ffffff;fill-opacity:1;stroke-width:0.417051"
       d="m 187.79494,153.0857 v 0.73599 h 0.84266 v 0.89479 h 0.95904 v 2.93676 h -3.48343 v -4.56754 z"
       id="path3214-3"
       sodipodi:nodetypes="ccccccccc" />
    <path
       style="fill:#f7caac;fill-opacity:1;stroke-width:0.4"
       d="m 173.23602,157.6317 v 9.04201 h 0.91486 v 0.53961 h 2.07139 v -3.74816 l 0.058,-5.83346 z"
       id="path3297" />
    <path
       style="fill:#f7caac;fill-opacity:1;stroke-width:0.4"
       d="m 188.88934,157.6317 v 9.04201 h -0.91487 v 0.53961 h -2.07138 v -3.74816 l -0.058,-5.83346 z"
       id="path3297-6" />
    <path
       style="fill:#0061aa;fill-opacity:1;stroke-width:0.4"
       d="m 176.70657,184.28062 h 3.79622 v 2.20462 l -0.48047,-6e-5 v 1.09247 l -1.20471,0.003 v -1.095 h -0.71332 v 1.09523 h -3.34698 v -1.67937 h 1.12627 v -1.00268 h 0.82306 z"
       id="path3401"
       sodipodi:nodetypes="ccccccccccccccc" />
    <path
       style="fill:#fac51d;fill-opacity:1;stroke-width:0.4"
       d="m 175.92044,141.18973 h 1.24575 v -2.18161 h 8.07392 v 2.11023 h 1.34707 v 3.85984 h -1.28819 v -3.54762 h -4.95653 v 1.70979 h -1.66751 v 1.45507 h -1.53117 v 5.43246 h 1.12274 v 1.10527 h 0.94992 v 1.96391 l -3.296,-0.0329 z"
       id="path3430"
       sodipodi:nodetypes="ccccccccccccccccccccc" />
    <path
       style="fill:#f7caac;fill-opacity:1;stroke-width:0.4"
       d="m 179.21673,153.75916 v -1.704 h 4.08356 v 1.70425 z"
       id="path3432" />
    <path
       style="fill:#f7caac;fill-opacity:1;stroke-width:0.4"
       d="m 185.29899,141.43057 h -4.95653 v 1.70979 h -1.66751 v 1.45507 h -1.53117 v 5.43246 h 1.12274 v 1.10527 h 0.94992 l 2.6e-4,0.922 h 4.08357 v -1.08329 h 0.97255 v -1.03995 h 1.023 l 2.3e-4,-1.75174 h 1.23261 v -3.197 l -1.23281,-1e-5 z"
       id="path3434"
       sodipodi:nodetypes="ccccccccccccccccccccc" />
    <path
       style="fill:#f7caac;fill-opacity:1;stroke-width:0.4"
       d="m 177.50438,175.15016 v 9.46279 h 0.41587 v 0.53848 h 1.81045 v -0.52858 h 0.40015 v -9.47269 z"
       id="path3372"
       sodipodi:nodetypes="ccccccccc" />
    <path
       style="fill:#f7caac;fill-opacity:1;stroke-width:0.4"
       d="m 182.23949,175.15016 v 9.46135 h 0.41587 v 0.53848 h 1.81045 v -0.52858 h 0.40015 v -9.47125 z"
       id="path3372-5"
       sodipodi:nodetypes="ccccccccc" />
    <path
       id="path3342"
       style="fill:#0061aa;fill-opacity:1;stroke-width:0.4"
       d="m 176.86521,164.22869 v 2.07584 h -0.46561 v 2.96158 h 0.26975 v 1.90014 h 0.49196 v 3.97993 h 8.11372 v -3.97993 h 0.49196 v -1.90014 h 0.26923 v -1.94097 h -0.46457 v -3.09645 h -4.58267 z"
       sodipodi:nodetypes="cccccccccccccccccc" />
    <path
       style="fill:#125387;fill-opacity:1;stroke-width:0.4"
       d="m 176.86521,164.22869 v 2.07584 h 8.70644 v -2.07584 z"
       id="path16201" />
    <path
       style="fill:#eca698;fill-opacity:1;stroke-width:0.4"
       d="m 176.28029,164.95523 h -1.03223 v -7.32353 h 1.03223 z"
       id="path16679"
       sodipodi:nodetypes="ccccc" />
    <path
       style="fill:#eca698;fill-opacity:1;stroke-width:0.4"
       d="m 186.94631,164.95523 h -1.03223 v -7.32353 h 1.03223 z"
       id="path16679-5"
       sodipodi:nodetypes="ccccc" />
    <path
       style="fill:#b05177;fill-opacity:1;stroke-width:0.40603"
       d="m 176.08068,152.82416 3e-4,10.641 h 1.24381 v 0.763 l 7.71049,3.5e-4 v -0.76335 h 1.07793 v -10.641 h -1.03277 v -0.769 h -1.78015 v 1.70425 l -4.08356,-2.5e-4 v -1.704 h -1.92352 v 0.769 z"
       id="path3116"
       sodipodi:nodetypes="ccccccccccccccccc" />
    <path
       style="fill:#eca698;fill-opacity:1;stroke-width:0.425902"
       d="m 177.50647,175.15016 h 2.62438 l 0.002,1.32102 h -2.62844 z"
       id="path17866"
       sodipodi:nodetypes="ccccc" />
    <path
       style="fill:#eca698;fill-opacity:1;stroke-width:0.425902"
       d="m 182.24053,175.15016 h 2.62439 l 0.002,1.32102 h -2.62845 z"
       id="path17866-6"
       sodipodi:nodetypes="ccccc" />
    <path
       style="fill:#eca698;fill-opacity:1;stroke-width:0.4"
       d="m 179.21415,152.62018 h 4.08614 l -2e-5,-0.56502 h -4.08357 z"
       id="path17895"
       sodipodi:nodetypes="ccccc" />
    <path
       style="fill:#125387;fill-opacity:1;stroke-width:0.4"
       d="m 180.50279,184.28062 h -0.37194 v 0.34223 1.86239 h -5.37354 v 1.09494 h 3.34698 v -1.095 h 0.71333 v 1.095 h 1.2047 v -1.09541 h 0.48047 z"
       id="path17897"
       sodipodi:nodetypes="cccccccccccccc" />
    <rect
       style="fill:#eca698;fill-opacity:1;stroke-width:0.376508"
       id="rect18080"
       width="2.4903502"
       height="1.1038246"
       x="179.94646"
       y="148.96234" />
    <rect
       style="fill:#005380;fill-opacity:1;stroke-width:0.38394"
       id="rect18082"
       width="1.1574647"
       height="1.9556274"
       x="178.37497"
       y="145.48303" />
    <rect
       style="fill:#005380;fill-opacity:1;stroke-width:0.38394"
       id="rect18082-2"
       width="1.1574647"
       height="1.9556274"
       x="183.13943"
       y="145.48303" />
    <path
       id="rect18111"
       style="fill:#040305;fill-opacity:1;stroke-width:0.4"
       d="m 177.07743,144.76167 v 0.25941 3.15898 h 0.2589 3.15898 v -0.25941 -2.09031 h 1.38235 v 2.34972 h 0.25941 2.89957 0.25941 v -0.25941 -2.67839 h 1.23249 v -0.2589 h -1.23249 v -0.22169 h -0.25941 -3.15898 v 0.25941 0.22325 h -1.38235 v -0.48266 z m 0.2589,0.25941 h 2.89957 v 0.22325 h -0.1819 v 0.58601 h 0.1819 v 2.09031 h -2.89957 z m 4.80074,0 h 2.89957 v 2.89957 h -2.89957 v -2.09031 h 0.18914 v -0.58601 h -0.18914 z"
       sodipodi:nodetypes="ccccccccccccccccccccccccccccccccccccccccccc" />
    <rect
       style="fill:#f7caac;fill-opacity:1;stroke-width:0.808845"
       id="rect18113-7-06-6-1-8"
       width="2.9375992"
       height="1.2328134"
       x="-148.1799"
       y="185.29585"
       transform="rotate(-90)" />
    <rect
       style="fill:#eca698;fill-opacity:1;stroke-width:0.305579"
       id="rect18080-7"
       width="0.61640632"
       height="2.9375889"
       x="185.29585"
       y="145.24231" />
    <path
       style="fill:#f3a21e;fill-opacity:1;stroke-width:0.4"
       d="m 179.21644,151.13316 2.6e-4,0.922 h -1.92349 v -2.02727 h 0.97331 v 1.10527 z"
       id="path27420" />
    <path
       style="fill:#f3a21e;fill-opacity:1;stroke-width:0.4"
       d="m 178.67495,144.59543 h -1.08271 v -1.82707 h 1.18503 l 2.5e-4,-1.33779 h 6.52147 l -2.5e-4,0.27887 h -4.95628 v 1.43092 h -1.66751 z"
       id="path29485"
       sodipodi:nodetypes="ccccccccccc" />
  </g>
</svg>
