<?xml version="1.0" encoding="UTF-8" standalone="no"?>
<!-- Created with Inkscape (http://www.inkscape.org/) -->

<svg
   width="19.266911mm"
   height="49.154922mm"
   viewBox="0 0 19.266911 49.154922"
   version="1.1"
   id="svg86369"
   inkscape:version="1.2.2 (b0a8486541, 2022-12-01)"
   sodipodi:docname="person-4.svg"
   xmlns:inkscape="http://www.inkscape.org/namespaces/inkscape"
   xmlns:sodipodi="http://sodipodi.sourceforge.net/DTD/sodipodi-0.dtd"
   xmlns="http://www.w3.org/2000/svg"
   xmlns:svg="http://www.w3.org/2000/svg">
  <sodipodi:namedview
     id="namedview86371"
     pagecolor="#ffffff"
     bordercolor="#000000"
     borderopacity="0.25"
     inkscape:showpageshadow="2"
     inkscape:pageopacity="0.0"
     inkscape:pagecheckerboard="0"
     inkscape:deskcolor="#d1d1d1"
     inkscape:document-units="mm"
     showgrid="false"
     inkscape:zoom="1.829812"
     inkscape:cx="59.568961"
     inkscape:cy="169.68956"
     inkscape:window-width="1452"
     inkscape:window-height="1233"
     inkscape:window-x="922"
     inkscape:window-y="59"
     inkscape:window-maximized="0"
     inkscape:current-layer="layer1" />
  <defs
     id="defs86366" />
  <g
     inkscape:label="Layer 1"
     inkscape:groupmode="layer"
     id="layer1"
     transform="translate(-161.55671,-99.826471)">
    <rect
       style="fill:#f7caac;fill-opacity:1;stroke-width:0.652776"
       id="rect68537"
       width="6.0331793"
       height="2.0346112"
       x="168.17961"
       y="112.87972"
       ry="0" />
    <rect
       style="fill:#ffffff;fill-opacity:1;stroke-width:0.574485"
       id="rect68537-8-4-3"
       width="3.9325976"
       height="2.4175513"
       x="166.25371"
       y="146.56384"
       ry="0" />
    <rect
       style="fill:#c7c9ce;fill-opacity:1;stroke-width:0.574132"
       id="rect68537-8-4"
       width="6.3225818"
       height="1.5018511"
       x="163.86372"
       y="147.47954"
       ry="0" />
    <rect
       style="fill:#ffffff;fill-opacity:1;stroke-width:0.574485"
       id="rect68537-8-4-3-2"
       width="3.9325976"
       height="2.4175513"
       x="-176.13234"
       y="146.56367"
       ry="0"
       transform="scale(-1,1)" />
    <rect
       style="fill:#c7c9ce;fill-opacity:1;stroke-width:0.574132"
       id="rect68537-8-4-9"
       width="6.3225818"
       height="1.5018511"
       x="-178.52232"
       y="147.47937"
       ry="0"
       transform="scale(-1,1)" />
    <rect
       style="fill:#f7caac;fill-opacity:1;stroke-width:0.401726"
       id="rect68483"
       width="8.2780704"
       height="8.447032"
       x="167.07809"
       y="105.06052" />
    <path
       id="rect18111-6-3"
       style="fill:#040305;fill-opacity:1;stroke-width:0.4"
       d="m 167.14908,107.4495 v 0.25941 3.15897 h 0.2589 3.15898 v -0.25941 -2.0903 h 1.38234 v 2.34971 h 0.25942 2.89956 0.25942 v -3.41838 h -0.25942 -3.15898 v 0.25941 0.22324 h -1.38234 v -0.48265 z m 0.2589,0.25941 h 2.89956 v 0.22324 h -0.1819 v 0.58602 h 0.1819 v 2.0903 h -2.89956 z m 4.80074,0 h 2.89956 v 2.89956 h -2.89956 v -2.0903 h 0.18914 v -0.58601 h -0.18914 z"
       sodipodi:nodetypes="cccccccccccccccccccccccccccccccccccccc" />
    <rect
       style="fill:#005380;fill-opacity:1;stroke-width:0.4"
       id="rect68316"
       width="0.95710254"
       height="2.1904111"
       x="168.32803"
       y="108.19643" />
    <rect
       style="fill:#005380;fill-opacity:1;stroke-width:0.4"
       id="rect68316-8"
       width="0.95710254"
       height="2.1904111"
       x="173.20442"
       y="108.19643" />
    <rect
       style="fill:#040305;fill-opacity:1;stroke-width:0.409576"
       id="rect68318"
       width="2.9897795"
       height="0.81341076"
       x="167.07809"
       y="106.36417" />
    <rect
       style="fill:#040305;fill-opacity:1;stroke-width:0.409576"
       id="rect68318-6"
       width="2.9897795"
       height="0.81341076"
       x="172.36639"
       y="106.36417" />
    <rect
       style="fill:#f7caac;fill-opacity:1;stroke-width:0.4"
       id="rect68320"
       width="1.3582512"
       height="3.9055195"
       x="165.79082"
       y="107.44949" />
    <rect
       style="fill:#f7caac;fill-opacity:1;stroke-width:0.375331"
       id="rect68320-8"
       width="1.3582512"
       height="3.4386392"
       x="175.35617"
       y="107.91637" />
    <path
       id="rect68322"
       style="fill:#e23332;fill-opacity:1;stroke-width:0.437856"
       d="m 167.07824,99.826471 v 0.902269 0.91726 2.36109 h -1.28726 v 3.90933 h 1.35805 v -2.85616 h 8.20725 v 2.85616 h 1.35806 v -3.90933 h -1.35806 V 101.646 h -5.12371 v -0.91726 h -1.36116 v -0.902269 z" />
    <rect
       style="fill:#eca698;fill-opacity:1;stroke-width:0.4"
       id="rect68479"
       width="2.4659142"
       height="0.77593541"
       x="169.96822"
       y="111.98418" />
    <rect
       style="fill:#e23332;fill-opacity:1;stroke-width:0.4"
       id="rect68481"
       width="1.5363567"
       height="1.7337568"
       x="170.40521"
       y="113.18058" />
    <path
       id="rect68662"
       style="fill:#0061aa;fill-opacity:1;stroke-width:0.378581"
       d="m 166.60385,129.90745 v 4.69531 11.96091 h 3.84317 v -11.96091 h 1.4888 v 11.96091 h 3.84318 v -11.96091 -4.69531 h -3.68402 -1.80712 z" />
    <path
       style="fill:#125387;fill-opacity:1;stroke-width:0.357753"
       d="m 166.60385,129.90745 v 1.57567 h 9.17515 v -1.57567 z"
       id="path16201-8" />
    <path
       style="fill:#85435d;fill-opacity:1;stroke-width:0.4"
       d="m 165.18556,133.56539 h 1.80759 v -0.75436 h 1.27689 v -1.30813 h 1.12769 l 0.0141,-15.52804 h -4.12525 l -0.009,1.06053 h -1.87503 v 0.94769 h -0.81412 v 0.86306 h -1.03172 v 10.08134 h 3.62885 z"
       id="path68807"
       sodipodi:nodetypes="ccccccccccccccccc" />
    <path
       style="fill:#f7caac;fill-opacity:1;stroke-width:0.4"
       d="m 165.18556,128.92748 v 2.55564 h -2.24862 v -0.61343 h -0.97984 v -1.94221 z"
       id="path68863" />
    <path
       style="fill:#85435d;fill-opacity:1;stroke-width:0.4"
       d="m 177.19477,133.56539 h -1.80759 v -0.75436 h -1.27689 v -1.30813 h -1.12769 l -0.0141,-15.52804 h 4.12525 l 0.009,1.06053 h 1.87503 v 0.94769 h 0.81412 v 0.86306 h 1.03172 v 10.08134 h -3.62885 z"
       id="path68807-0"
       sodipodi:nodetypes="ccccccccccccccccc" />
    <path
       style="fill:#f7caac;fill-opacity:1;stroke-width:0.4"
       d="m 177.19477,128.92748 v 2.55564 h 2.24862 v -0.61343 h 0.97984 v -1.94221 z"
       id="path68863-6" />
    <rect
       style="fill:#ffffff;fill-opacity:1;stroke-width:0.4"
       id="rect68966"
       width="3.5566862"
       height="12.87205"
       x="169.41182"
       y="117.0354" />
    <rect
       style="fill:#eca698;fill-opacity:1;stroke-width:0.386937"
       id="rect68479-2"
       width="3.2284579"
       height="0.5545857"
       x="161.95709"
       y="128.92749" />
    <rect
       style="fill:#eca698;fill-opacity:1;stroke-width:0.386937"
       id="rect68479-2-6"
       width="3.2284579"
       height="0.5545857"
       x="177.19476"
       y="128.92749" />
    <rect
       style="fill:#6d384e;fill-opacity:1;stroke-width:0.4"
       id="rect85097"
       width="0.84094411"
       height="8.3227663"
       x="164.3446"
       y="120.60472" />
    <rect
       style="fill:#6d384e;fill-opacity:1;stroke-width:0.4"
       id="rect85097-6"
       width="0.84094411"
       height="8.3227663"
       x="177.19476"
       y="120.60471" />
    <rect
       style="fill:#f7caac;fill-opacity:1;stroke-width:0.555361"
       id="rect68537-8"
       width="4.1888528"
       height="2.1210642"
       x="169.07896"
       y="114.91433"
       ry="0" />
    <rect
       style="fill:#eca698;fill-opacity:1;stroke-width:0.505558"
       id="rect68479-2-4"
       width="4.1888623"
       height="0.72967416"
       x="169.07896"
       y="114.91433" />
    <rect
       style="fill:#eca698;fill-opacity:1;stroke-width:0.3739"
       id="rect68479-2-4-9"
       width="0.48619375"
       height="3.4386387"
       x="166.66287"
       y="107.91637" />
    <rect
       style="fill:#eca698;fill-opacity:1;stroke-width:0.3739"
       id="rect68479-2-4-9-0"
       width="0.48619375"
       height="3.4386387"
       x="175.35059"
       y="107.91637" />
  </g>
</svg>
