<svg width="558" height="558" viewBox="0 0 558 558" xmlns:xlink="http://www.w3.org/1999/xlink" xmlns="http://www.w3.org/2000/svg"><defs><linearGradient id="a"><stop style="stop-color:#02a3ff;stop-opacity:1" offset="0"/><stop style="stop-color:#54defe;stop-opacity:1" offset="1"/></linearGradient><linearGradient xlink:href="#a" id="b" x1="279" y1="0" x2="279" y2="558" gradientUnits="userSpaceOnUse"/></defs><circle style="fill:url(#b);fill-opacity:1" cx="279" cy="279" r="279"/><g style="fill:#ffe014;fill-opacity:1"><path style="fill:#ffe014;fill-opacity:1" d="M275.346 252.309h41.992v85.156h-41.992z" transform="translate(5.885 11.252)"/><path style="fill:#ffe014;fill-opacity:1;stroke-width:1.41584" d="M439.711 166.76h41.992v170.705h-41.992z" transform="translate(5.885 11.252)"/><path style="fill:#ffe014;fill-opacity:1;stroke-width:.937908" d="M317.338 337.465h122.373v42.199H317.338z" transform="translate(5.885 11.252)"/></g><path style="fill:#ffe014;fill-opacity:1" d="M77.589 390.543V178.455h203.9v42.476H117.828v41.462h122.899v42.98H118.034v85.17z"/><path style="fill:#fefefe;fill-opacity:1" d="M71.446 379.77V167.681h203.9v42.477H111.683v41.462h122.9v42.98H111.89v85.17Zm203.9-127.461h41.992v85.156h-41.992z"/><path style="fill:#fefefe;fill-opacity:1;stroke-width:1.41584" d="M439.711 166.76h41.992v170.705h-41.992z"/><path style="fill:#fefefe;fill-opacity:1;stroke-width:.937908" d="M317.338 337.465h122.373v42.199H317.338z"/></svg>
