<svg width="145" height="120" viewBox="0 0 38.365 31.75" xmlns="http://www.w3.org/2000/svg"><path style="fill:#2c506b;fill-opacity:1;stroke-width:1.5686" transform="matrix(-.07345 0 0 .07345 -108.702 34.259)" d="M-1660.028-304.315h54.031v54.033h-54.031zm-216.129 0h54.031v54.033h-54.031z"/><path style="fill:#2c506b;fill-opacity:1;stroke-width:2.02498" transform="matrix(-.07345 0 0 .07345 -108.702 34.259)" d="M-1768.091-376.355h54.031v90.047h-54.031z"/><path style="fill:#2c506b;fill-opacity:1;stroke-width:2.76677" transform="matrix(-.07345 0 0 .07345 -108.702 34.259)" d="M-1804.114-106.191h126.075v72.042h-126.075z"/><path style="fill:#2c506b;fill-opacity:1;stroke-width:3.00346" transform="matrix(-.07345 0 0 .07345 -108.702 34.259)" d="M-1840.134-124.201h198.115v54.025h-198.115z"/><path style="fill:#fafafa;fill-opacity:1;stroke-width:5.75167" transform="matrix(-.07345 0 0 .07345 -108.702 34.259)" d="M-1840.135-268.294h198.117V-70.17h-198.117z"/><path style="fill:#1a2b3d;fill-opacity:1;stroke-width:.522875" d="M1804.113-232.265h18.011v18.011h-18.011z" transform="translate(-108.702 34.259)scale(.07345)"/><path style="fill:#1a2b3d;fill-opacity:1;stroke-width:.522875" transform="matrix(-.07345 0 0 .07345 -108.702 34.259)" d="M-1696.05-250.283h18.011v18.011h-18.011zm-108.063.007h18.011v18.011h-18.011z"/><path style="fill:#1a2b3d;fill-opacity:1;stroke-width:.522875" d="M1642.019-88.186h18.011v18.011h-18.011z" transform="translate(-108.702 34.259)scale(.07345)"/><path style="fill:#1a2b3d;fill-opacity:1;stroke-width:.522875" d="M1660.029-70.176h18.011v18.011h-18.011z" transform="translate(-108.702 34.259)scale(.07345)"/><path style="fill:#1a2b3d;fill-opacity:1;stroke-width:.522875" transform="matrix(-.07345 0 0 .07345 -108.702 34.259)" d="M-1642.019-106.197h18.011v18.011h-18.011z"/><path style="fill:#1a2b3d;fill-opacity:1;stroke-width:.522875" d="M1822.124-268.294h18.011v18.011h-18.011zm18.011 18.011h18.011v18.011h-18.011z" transform="translate(-108.702 34.259)scale(.07345)"/><path style="fill:#1a2b3d;fill-opacity:1;stroke-width:.522875" transform="matrix(-.07345 0 0 .07345 -108.702 34.259)" d="M-1822.124-286.304h18.011v18.011h-18.011z"/><path style="fill:#1a2b3d;fill-opacity:1;stroke-width:.522875" d="M1678.039-106.19h18.011v18.011h-18.011z" transform="translate(-108.702 34.259)scale(.07345)"/><path style="fill:#2c506b;fill-opacity:1;stroke-width:1.38317" d="M1660.03-88.187v18.011h36.02v-18.01zm126.071.006v18.011H1678.04v18.005h126.075V-70.17h18.009v-18.01z" transform="translate(-108.702 34.259)scale(.07345)"/><path style="fill:#f8fdfe;fill-opacity:1;stroke-width:1.38317" d="M1678.04-286.305v18.005h126.074v-18.005zm-18.012 18.012v18.01h36.021v-18.01zm126.075 0v18.01h36.021v-18.01z" transform="translate(-108.702 34.259)scale(.07345)"/><path style="fill:#1a2b3d;fill-opacity:1;stroke-width:.522875" transform="matrix(-.07345 0 0 .07345 -108.702 34.259)" d="M-1678.039-124.201h18.011v18.011h-18.011z"/><path style="fill:#1a2b3d;fill-opacity:1;stroke-width:.522875" d="M1732.071-232.272v72.043h18.011v-72.043z" transform="translate(-108.702 34.259)scale(.07345)"/><path style="fill:#1a2b3d;fill-opacity:1;stroke-width:.522875" transform="matrix(-.07345 0 0 .07345 -108.702 34.259)" d="M-1678.039-232.272h18.011v18.011h-18.011z"/><path style="fill:#8caab2;fill-opacity:1;stroke-width:1.16919" transform="matrix(-.07345 0 0 .07345 -108.702 34.259)" d="M-1678.039-214.262h18.01v90.06h-18.01zm-144.085.004h18.01v90.06h-18.01z"/><path style="fill:#8caab2;fill-opacity:1;stroke-width:1.16919" transform="matrix(0 .07345 .07345 0 -108.702 34.259)" d="M-250.282 1696.05h18.01v90.06h-18.01zm144.093-.004h18.01v90.06h-18.01z"/><path style="fill:#8caab2;fill-opacity:1;stroke-width:.522875" transform="matrix(-.07345 0 0 .07345 -108.702 34.259)" d="M-1696.05-232.272h18.011v18.011h-18.011zm-108.063.007h18.011v18.011h-18.011zm0 108.064h18.011v18.011h-18.011zm108.063 0h18.011v18.011h-18.011z"/><path style="fill:#1a2b3d;fill-opacity:1;stroke-width:.522875" transform="matrix(-.07345 0 0 .07345 -108.702 34.259)" d="M-1732.071-322.326h18.011v18.011h-18.011z"/><path style="fill:#1a2b3d;fill-opacity:1;stroke-width:.522875" d="M1696.05-376.358v18.01h18.01v-18.01zm0 18.017v36.015h18.01v-36.015zm72.042-18.011v54.026h18.01v-54.026z" transform="translate(-108.702 34.259)scale(.07345)"/><path style="fill:#1a2b3d;fill-opacity:1;stroke-width:.90563" transform="matrix(-.07345 0 0 .07345 -108.702 34.259)" d="M-1768.092-394.362h54.032v18.01h-54.032z"/><path style="fill:#1a2b3d;fill-opacity:1;stroke-width:.522875" transform="matrix(-.07345 0 0 .07345 -108.702 34.259)" d="M-1768.092-322.326h18.011v18.011h-18.011zm144.084 54.032h18.011v18.011h-18.011zm18.011-18.011h18.011v18.011h-18.011zm-18.011-18.01h18.011v18.011h-18.011zm-36.022 36.021h18.011v18.011h-18.011zm18.011 18.011h18.011v18.011h-18.011z"/><path style="fill:#1a2b3d;fill-opacity:1;stroke-width:.522875" transform="matrix(-.07345 0 0 .07345 -108.702 34.259)" d="M-1678.039-286.304h18.011v18.011h-18.011zm-162.096 198.123h18.011v18.011h-18.011zm18.011 18.011h18.011v18.011h-18.011z"/><path style="fill:#1a2b3d;fill-opacity:1;stroke-width:.522875" transform="matrix(-.07345 0 0 .07345 -108.702 34.259)" d="M-1858.145-106.191h18.011v18.011h-18.011z"/><path style="fill:#1a2b3d;fill-opacity:1;stroke-width:.522875" d="M1605.997-232.272v126.074h18.01v-126.074zm252.148.006v126.074h18.01v-126.074zm-180.106-54.038h126.074v-18.011H1678.04zm0 252.156h126.074V-52.16H1678.04z" transform="translate(-108.702 34.259)scale(.07345)"/><path style="fill:#1a2b3d;fill-opacity:1;stroke-width:.522875" transform="matrix(-.07345 0 0 .07345 -108.702 34.259)" d="M-1822.124-124.201h18.011v18.011h-18.011zm18.011 18.011h18.011v18.011h-18.011z"/><path style="fill:#1a2b3d;fill-opacity:1;stroke-width:.675009" d="M1696.05-268.286v18.01h90.053v-18.01h-60.036zm0 180.106v18.01h90.053v-18.01h-60.036zm144.084-126.075h-18.01v90.054h18.01v-60.036zm-180.106-.007h-18.01v90.054h18.01v-60.036z" transform="translate(-108.702 34.259)scale(.07345)"/><path style="fill:#7095aa;fill-opacity:1;stroke-width:.739456" d="M1624.007-214.262v108.064h36.022v-18.01h-18.01v-90.054zm18.01 108.071v18.011h36.022v-18.01z" transform="translate(-108.702 34.259)scale(.07345)"/><path style="fill:#7095aa;fill-opacity:1;stroke-width:1.16918" d="M1840.136-214.254v90.053h-18.01v18.01h-18.012v18.011h36.021v-18.01h18.012v-18.011h-.001v-90.053z" transform="translate(-108.702 34.259)scale(.07345)"/><path style="fill:#8caab2;fill-opacity:1;stroke-width:.739456" d="M1642.017-250.283v18.01h-18.01v18.011h36.02v-18.01h18.012v-18.01zm162.098 0v18.011h36.022v-18.01zm18.01 18.017v18.011h36.021v-18.01z" transform="translate(-108.702 34.259)scale(.07345)"/><path style="fill:#1a2b3d;fill-opacity:1;stroke-width:.522875" transform="matrix(-.07345 0 0 .07345 -108.702 34.259)" d="M-1642.019-322.326h18.011v18.011h-18.011zm-18.01 18.011h18.011v18.011h-18.011z"/><path style="fill:#2c506b;fill-opacity:1;stroke-width:.522875" transform="matrix(-.07345 0 0 .07345 -108.702 34.259)" d="M-1624.008-286.305h18.011v18.011h-18.011zm-18.011 18.011h18.011v18.011h-18.011z"/><path style="fill:#7095aa;fill-opacity:1;stroke-width:.522875" transform="matrix(-.07345 0 0 .07345 -108.702 34.259)" d="M-1642.019-286.305h18.011v18.011h-18.011z"/><path style="fill:#8caab2;fill-opacity:1;stroke-width:.522875" transform="matrix(-.07345 0 0 .07345 -108.702 34.259)" d="M-1642.019-304.315h18.011v18.011h-18.011zm-18.011 18.01h18.011v18.011h-18.011z"/><path style="fill:#1a2b3d;fill-opacity:1;stroke-width:.522875" d="M1858.146-268.294h18.011v18.011h-18.011zm18.011-18.01h18.011v18.011h-18.011zm-18.011-18.011h18.011v18.011h-18.011zm-18.01-18.011h18.011v18.011h-18.011zm-18.011 18.011h18.011v18.011h-18.011z" transform="translate(-108.702 34.259)scale(.07345)"/><path style="fill:#2c506b;fill-opacity:1;stroke-width:.522875" d="M1858.146-286.304h18.011v18.011h-18.011z" transform="translate(-108.702 34.259)scale(.07345)"/><path style="fill:#2c506b;fill-opacity:1;stroke-width:.522875" d="M1840.136-268.294h18.011v18.011h-18.011zm-108.065-54.026h18.011v18.011h-18.011z" transform="translate(-108.702 34.259)scale(.07345)"/><path style="fill:#2c506b;fill-opacity:1;stroke-width:.522875" d="M1732.071-340.33h18.011v18.011h-18.011z" transform="translate(-108.702 34.259)scale(.07345)"/><path style="fill:#7095aa;fill-opacity:1;stroke-width:.522875" d="M1714.06-340.337h18.011v18.011h-18.011zm18.011-18.004h18.011v18.011h-18.011z" transform="translate(-108.702 34.259)scale(.07345)"/><path style="fill:#8caab2;fill-opacity:1;stroke-width:.522875" d="M1714.06-358.344h18.011v18.011h-18.011zm18.011-18.008h18.011v18.011h-18.011z" transform="translate(-108.702 34.259)scale(.07345)"/><path style="fill:#f8fdfe;fill-opacity:1;stroke-width:.522875" d="M1714.06-376.352h18.011v18.011h-18.011z" transform="translate(-108.702 34.259)scale(.07345)"/><path style="fill:#2c506b;fill-opacity:1;stroke-width:.905701" d="M1750.082-376.366h18.011v54.04h-18.011z" transform="translate(-108.702 34.259)scale(.07345)"/><path style="fill:#7095aa;fill-opacity:1;stroke-width:.522875" d="M1840.136-286.304h18.011v18.011h-18.011z" transform="translate(-108.702 34.259)scale(.07345)"/><path style="fill:#8caab2;fill-opacity:1;stroke-width:.522875" d="M1840.136-304.315h18.011v18.011h-18.011zm-18.011 18.011h18.011v18.011h-18.011z" transform="translate(-108.702 34.259)scale(.07345)"/><path style="fill:#1a2b3d;fill-opacity:1;stroke-width:.522875" d="M1732.071-124.2h18.011v18.011h-18.011zm-36.021-18.012h18.011v18.011h-18.011zm72.042 0h18.011v18.011h-18.011zm0-72.043h18.011v18.011h-18.011zm-72.042-.007h18.011v18.011h-18.011zm90.053 36.028h18.011v18.011h-18.011zm-108.064-.003h18.011v18.011h-18.011z" transform="translate(-108.702 34.259)scale(.07345)"/><path style="fill:#fafafa;fill-opacity:1;stroke-width:3.50754" d="M-1294.753-54.103V35.95h-36.022v18.011h-18.01v18.01h-18.011v-36.02h-90.054v-90.054z" transform="matrix(-.07345 0 0 .07345 -93.779 5.298)"/><path style="fill:#1a2b3d;fill-opacity:1;stroke-width:.522875" d="M1330.775-18.082h18.011V-.071h-18.011zm36.021 0h18.011V-.071h-18.011zm36.022 0h18.011V-.071h-18.011z" transform="translate(-93.779 5.298)scale(.07345)"/><path style="fill:#1a2b3d;fill-opacity:1;stroke-width:.739456" d="M1294.753 35.95h36.021v18.011h-36.021z" transform="translate(-93.779 5.298)scale(.07345)"/><path style="fill:#1a2b3d;fill-opacity:1;stroke-width:1.16918" d="M1276.743-54.103h18.011v90.054h-18.011z" transform="translate(-93.779 5.298)scale(.07345)"/><path style="fill:#1a2b3d;fill-opacity:1;stroke-width:1.16919" d="M-1366.796 35.95v36.021h18.01v18.012h-36.021V53.96h-72.043V35.95h72.043z" transform="matrix(-.07345 0 0 .07345 -93.779 5.298)"/><path style="fill:#1a2b3d;fill-opacity:1;stroke-width:.522875" transform="matrix(-.07345 0 0 .07345 -93.779 5.298)" d="M-1348.786 53.961h18.011v18.011h-18.011z"/><path style="fill:#1a2b3d;fill-opacity:1;stroke-width:1.16917" transform="matrix(-.07345 0 0 .07345 -93.779 5.298)" d="M-1474.861-54.103h18.01v90.054h-18.01z"/><path style="fill:#1a2b3d;fill-opacity:1;stroke-width:1.56862" d="M1294.753-72.114h162.097v18.011h-162.097z" transform="translate(-93.779 5.298)scale(.07345)"/><path style="fill:#fafafa;fill-opacity:1;stroke-width:3.50754" d="M-1294.753-54.103V35.95h-36.022v18.011h-18.01v18.01h-18.011v-36.02h-90.054v-90.054z" transform="translate(132.139 5.298)scale(.07345)"/><path style="fill:#1a2b3d;fill-opacity:1;stroke-width:.522875" d="M1330.775-18.082h18.011V-.071h-18.011zm36.021 0h18.011V-.071h-18.011zm36.022 0h18.011V-.071h-18.011z" transform="matrix(-.07345 0 0 .07345 132.139 5.298)"/><path style="fill:#1a2b3d;fill-opacity:1;stroke-width:.739456" d="M1294.753 35.95h36.021v18.011h-36.021z" transform="matrix(-.07345 0 0 .07345 132.139 5.298)"/><path style="fill:#1a2b3d;fill-opacity:1;stroke-width:1.16918" d="M1276.743-54.103h18.011v90.054h-18.011z" transform="matrix(-.07345 0 0 .07345 132.139 5.298)"/><path style="fill:#1a2b3d;fill-opacity:1;stroke-width:1.16919" d="M-1366.796 35.95v36.021h18.01v18.012h-36.021V53.96h-72.043V35.95h72.043z" transform="translate(132.139 5.298)scale(.07345)"/><path style="fill:#1a2b3d;fill-opacity:1;stroke-width:.522875" transform="translate(132.139 5.298)scale(.07345)" d="M-1348.786 53.961h18.011v18.011h-18.011z"/><path style="fill:#1a2b3d;fill-opacity:1;stroke-width:1.16917" transform="translate(132.139 5.298)scale(.07345)" d="M-1474.861-54.103h18.01v90.054h-18.01z"/><path style="fill:#1a2b3d;fill-opacity:1;stroke-width:1.56862" d="M1294.753-72.114h162.097v18.011h-162.097z" transform="matrix(-.07345 0 0 .07345 132.139 5.298)"/></svg>
