<svg width="145" height="120" viewBox="0 0 38.365 31.75" xmlns="http://www.w3.org/2000/svg"><path style="fill:#3e4059;fill-opacity:1;stroke-width:1.29619" d="M-719.61-207.96h218.73v9.114h-218.73z" transform="translate(78.236 40.409)scale(.09677)"/><path style="fill:#f2f5ec;fill-opacity:1;stroke-width:1.29619" d="M-719.61-198.846h218.73v9.114h-218.73zM-719.61-153.277h218.73v9.114h-218.73zM-719.61-135.05h218.73v9.114h-218.73z" transform="translate(78.236 40.409)scale(.09677)"/><path style="fill:#494e61;fill-opacity:1;stroke-width:1.29619" d="M-719.61-144.164h218.73v9.114h-218.73z" transform="translate(78.236 40.409)scale(.09677)"/><path style="fill:#494e61;fill-opacity:1;stroke-width:2.59237" d="M-719.61-189.732h218.73v36.455h-218.73z" transform="translate(78.236 40.409)scale(.09677)"/><path style="fill:#494e61;fill-opacity:1;stroke-width:.793747" d="M-646.7-253.529h27.341v27.341H-646.7z" transform="translate(78.236 40.409)scale(.09677)"/><path style="fill:#494e61;fill-opacity:1;stroke-width:1.83308" d="M-719.61-125.936h218.731v18.227H-719.61z" transform="translate(78.236 40.409)scale(.09677)"/><path style="fill:#26283d;fill-opacity:1;stroke-width:1.2689" d="M-719.611-107.709h209.617v9.114h-209.617z" transform="translate(78.236 40.409)scale(.09677)"/><path style="fill:#3a3f55;fill-opacity:1;stroke-width:1.2689" d="M-719.61-125.936v18.227h218.73v-18.227h-9.114v9.114h-200.502v-9.114z" transform="translate(78.236 40.409)scale(.09677)"/><path style="fill:#0d1021;fill-opacity:1;stroke-width:.264583" d="M-683.155-280.87v63.796h-54.683v109.365h9.114V-207.96h173.162v-9.114h-118.479v-45.568h191.389v-9.114h-191.389v-9.114zm127.593 63.796v9.114h63.796v100.251h9.114v-109.365h-63.796z" transform="translate(78.236 40.409)scale(.09677)"/><path style="fill:#0d1021;fill-opacity:1;stroke-width:.264583" d="M-482.652-262.642v45.568h9.113v-45.568zm-191.389-27.342v9.114h18.228v-9.114h-9.114zm36.455-18.227v9.113h18.228v-9.113h-9.114zm72.91-36.456v9.113h18.228v-9.113h-9.114zm18.228-9.114v9.114h18.228v-9.114h-9.114zm18.228-9.114v9.114h18.227v-9.114h-9.114zM-509.993-372.009h9.114v9.114h-9.114zM-728.724-107.709h9.114v9.114h-9.114z" transform="translate(78.236 40.409)scale(.09677)"/><path style="fill:#26283d;fill-opacity:1;stroke-width:.87752" d="M-728.724-207.96h9.114v100.251h-9.114zM-500.88-207.96h9.114v100.251h-9.114z" transform="translate(78.236 40.409)scale(.09677)"/><path style="fill:#0d1021;fill-opacity:1;stroke-width:1.26891" d="M-719.61-98.595h209.617v9.114H-719.61z" transform="translate(78.236 40.409)scale(.09677)"/><path style="fill:#0d1021;fill-opacity:1;stroke-width:.264583" d="M-509.993-107.709v9.114h18.227v-9.114h-9.113zm9.113-291.641v27.341h9.114v-27.341zm-36.455-18.227v9.113h-9.113v9.114h18.227v-9.114h18.227v9.114h9.115v-18.227h-27.342zm-27.341 18.227v9.114h9.114v-9.114zm9.114 0v9.114h9.114v-9.114zm-27.341 9.114v9.114h18.227v-9.114h-9.114zm-18.228 9.114v9.114h18.228v-9.114h-9.114zm-72.91 36.456v9.114h18.227v-9.114h-9.113zm18.228-9.114v9.113h18.227v-9.113h-9.114zm18.227-9.114v9.114h18.228v-9.114h-9.114zm18.228 45.569v9.114h18.227v-9.114h-9.114zm18.228-9.114v9.114h18.227v-9.114h-9.114zm-91.139-9.113v9.114h18.228v-9.114h-9.114zm-18.227 9.114v9.113h18.227v-9.113h-9.114zm-27.342 9.113v9.114h27.342v-9.114h-18.228zm-9.113 9.114v91.137h9.113v-91.137zm91.138 9.113v9.114h18.227v-9.114h-9.114z" transform="translate(78.236 40.409)scale(.09677)"/><path style="fill:#c6cfd8;fill-opacity:1;stroke-width:.264583" d="M-719.61-198.846h9.114v9.114h-9.114z" transform="translate(78.236 40.409)scale(.09677)"/><path style="fill:#f5faff;fill-opacity:1;stroke-width:.216033" d="M-664.927-262.642v9.113h18.227v-9.113h-12.151z" transform="translate(78.236 40.409)scale(.09677)"/><path style="fill:#777b83;fill-opacity:1;stroke-width:.264583" d="M-646.7-262.642v9.113h27.341v-9.113h-18.227z" transform="translate(78.236 40.409)scale(.09677)"/><path style="fill:#26283d;fill-opacity:1;stroke-width:.264583" d="M-646.7-226.187v9.113h27.341v-9.113h-18.227z" transform="translate(78.236 40.409)scale(.09677)"/><path style="fill:#494e61;fill-opacity:1;stroke-width:.793747" d="M-592.017-253.529h27.341v27.341h-27.341z" transform="translate(78.236 40.409)scale(.09677)"/><path style="fill:#777b83;fill-opacity:1;stroke-width:.264583" d="M-592.017-262.642v9.113h27.341v-9.113h-18.228z" transform="translate(78.236 40.409)scale(.09677)"/><path style="fill:#26283d;fill-opacity:1;stroke-width:.264583" d="M-592.017-226.187v9.113h27.341v-9.113h-18.228z" transform="translate(78.236 40.409)scale(.09677)"/><path style="fill:#494e61;fill-opacity:1;stroke-width:.793747" d="M-537.334-253.529h27.341v27.341h-27.341z" transform="translate(78.236 40.409)scale(.09677)"/><path style="fill:#777b83;fill-opacity:1;stroke-width:.264583" d="M-537.334-262.642v9.113h27.341v-9.113h-18.228z" transform="translate(78.236 40.409)scale(.09677)"/><path style="fill:#26283d;fill-opacity:1;stroke-width:.264583" d="M-537.334-226.187v9.113h27.341v-9.113h-18.228z" transform="translate(78.236 40.409)scale(.09677)"/><path style="fill:#f2f5ec;fill-opacity:1;stroke-width:.793747" d="M-619.359-253.529h27.341v27.341h-27.341z" transform="translate(78.236 40.409)scale(.09677)"/><path style="fill:#f5faff;fill-opacity:1;stroke-width:.264583" d="M-619.359-262.642v9.113h27.341v-9.113h-18.227z" transform="translate(78.236 40.409)scale(.09677)"/><path style="fill:#b2b8c6;fill-opacity:1;stroke-width:.264583" d="M-619.359-226.187v9.113h27.341v-9.113h-18.227z" transform="translate(78.236 40.409)scale(.09677)"/><path style="fill:#f2f5ec;fill-opacity:1;stroke-width:.793747" d="M-564.676-253.529h27.341v27.341h-27.341z" transform="translate(78.236 40.409)scale(.09677)"/><path style="fill:#f5faff;fill-opacity:1;stroke-width:.264583" d="M-564.676-262.642v9.113h27.341v-9.113h-18.227z" transform="translate(78.236 40.409)scale(.09677)"/><path style="fill:#b2b8c6;fill-opacity:1;stroke-width:.264583" d="M-564.676-226.187v9.113h27.341v-9.113h-18.227z" transform="translate(78.236 40.409)scale(.09677)"/><path style="fill:#f2f5ec;fill-opacity:1;stroke-width:.37418" d="M-664.927-253.529v27.342h18.227v-27.342h-12.152z" transform="translate(78.236 40.409)scale(.09677)"/><path style="fill:#b2b8c6;fill-opacity:1;stroke-width:.529165" d="M-674.041-253.529v36.455h27.341v-9.113h-18.227v-27.342z" transform="translate(78.236 40.409)scale(.09677)"/><path style="fill:#c6cfd8;fill-opacity:1;stroke-width:.264583" d="M-719.61-153.277h9.114v9.114h-9.114zM-719.61-135.05h9.114v9.114h-9.114zM-509.993-198.846h9.114v9.114h-9.114zM-509.993-153.277h9.114v9.114h-9.114zM-509.994-135.05h9.114v9.114h-9.114z" transform="translate(78.236 40.409)scale(.09677)"/><path style="fill:#f2f5ec;fill-opacity:1;stroke-width:.264583" d="M-664.927-189.733v36.456h9.113v-36.456zm100.251 0v36.456h9.114v-36.456z" transform="translate(78.236 40.409)scale(.09677)"/><path style="fill:#26283d;fill-opacity:1;stroke-width:.529164" d="M-674.041-189.732h9.114v36.455h-9.114zM-655.814-189.732h9.114v36.455h-9.114zM-573.789-189.733h9.114v36.455h-9.114zM-555.562-189.732h9.114v36.455h-9.114z" transform="translate(78.236 40.409)scale(.09677)"/><path style="fill:#c6cfd8;fill-opacity:1;stroke-width:.264583" d="M-674.041-262.642h9.114v9.114h-9.114zM-710.496-317.325h9.114v9.114h-9.114z" transform="translate(78.236 40.409)scale(.09677)"/><path style="fill:#777b83;fill-opacity:1;stroke-width:.264583" d="M-683.155-326.44h9.114v9.114h-9.114z" transform="translate(78.236 40.409)scale(.09677)"/><path style="fill:#b2b8c6;fill-opacity:1;stroke-width:.264583" d="M-710.496-308.211h9.114v9.114h-9.114zM-701.382-299.098h9.114v9.114h-9.114zM-692.269-289.983v9.113h18.228v-9.113h-9.114z" transform="translate(78.236 40.409)scale(.09677)"/><path style="fill:#f5faff;fill-opacity:1;stroke-width:.264583" d="M-701.383-317.325h9.114v9.114h-9.114z" transform="translate(78.236 40.409)scale(.09677)"/><path style="fill:#777b83;fill-opacity:1;stroke-width:.264583" d="M-674.04-335.554v9.114h18.227v-9.114h-9.114z" transform="translate(78.236 40.409)scale(.09677)"/><path style="fill:#f2f5ec;fill-opacity:1;stroke-width:.264583" d="M-692.269-317.325v9.113h-9.114v9.114h18.23v9.114h18.227v-9.114h-9.114v-9.114h-9.115v-9.113zm.001 18.228v9.114h9.114v-9.114z" transform="translate(78.236 40.409)scale(.09677)"/><path style="fill:#777b83;fill-opacity:1;stroke-width:.264583" d="M-628.474-353.78h9.114v9.114h-9.114zM-619.359-362.894v9.114h18.227v-9.114h-9.113zM-573.79-381.125h9.114v9.114h-9.114zM-564.676-390.239v9.114h18.228v-9.114h-9.114z" transform="translate(78.236 40.409)scale(.09677)"/><path style="fill:#f5faff;fill-opacity:1;stroke-width:.264583" d="M-692.269-326.439h9.114v9.114h-9.114z" transform="translate(78.236 40.409)scale(.09677)"/><path style="fill:#494e61;fill-opacity:1;stroke-width:.264583" d="M-737.838-308.211v91.137h54.683v-63.796h-27.341 18.227v-9.114h-9.113v-9.114h-9.114v-9.113z" transform="translate(78.236 40.409)scale(.09677)"/><path style="fill:#f2f5ec;fill-opacity:1;stroke-width:.648083" d="M-509.993-253.529h18.227v27.341h-18.227z" transform="translate(78.236 40.409)scale(.09677)"/><path style="fill:#f5faff;fill-opacity:1;stroke-width:.21603" d="M-509.993-262.642v9.113h18.227v-9.113h-12.151z" transform="translate(78.236 40.409)scale(.09677)"/><path style="fill:#b2b8c6;fill-opacity:1;stroke-width:.264583" d="M-491.766-253.529v27.342h-18.227v9.113h27.341v-36.455z" transform="translate(78.236 40.409)scale(.09677)"/><path style="fill:#c6cfd8;fill-opacity:1;stroke-width:.264583" d="M-491.766-262.642h9.114v9.114h-9.114z" transform="translate(78.236 40.409)scale(.09677)"/><path style="fill:#f2f5ec;fill-opacity:1;stroke-width:.264583" d="M-528.221-399.353v9.113h-9.114v.001h-9.113v18.228h9.113v-9.115h18.23v9.114h18.226v-9.114h-9.113v-.002h9.112v-18.224h-18.227zm-9.113 18.228v18.228h27.34v-9.114h-18.226 9.114v-9.114h-9.114z" transform="translate(78.236 40.409)scale(.09677)"/><path style="fill:#26283d;fill-opacity:1;stroke-width:.374181" d="M-737.838-235.301v18.227h54.683V-235.3h-9.114v9.114h-36.454v-9.114z" transform="translate(78.236 40.409)scale(.09677)"/><path style="fill:#0d1021;fill-opacity:1;stroke-width:.264583" d="M-619.358-372.008v9.113h18.227v-9.113h-9.114zm36.455 36.456v9.113h18.227v-9.113h-9.113z" transform="translate(78.236 40.409)scale(.09677)"/><path style="fill:#f2f5ec;fill-opacity:1;stroke-width:.216033" d="M-719.61-271.756v9.114h18.228v-9.114h-12.152z" transform="translate(78.236 40.409)scale(.09677)"/><path style="fill:#b2b8c6;fill-opacity:1;stroke-width:.216033" d="M-719.61-262.642v9.113h18.228v-9.113h-12.152z" transform="translate(78.236 40.409)scale(.09677)"/><path style="fill:#26283d;fill-opacity:1;stroke-width:.216033" d="M-719.61-253.528v9.113h18.228v-9.113h-12.152zm-9.114 0h9.114v-18.228h-9.114v12.152z" transform="translate(78.236 40.409)scale(.09677)"/><path style="fill:#777b83;fill-opacity:1;stroke-width:.216034" d="M-719.61-280.87v9.114h18.228v-9.114h-12.152z" transform="translate(78.236 40.409)scale(.09677)"/><path style="fill:#26283d;fill-opacity:1;stroke-width:.264583" d="M-692.269-280.87h9.114v9.114h-9.114z" transform="translate(78.236 40.409)scale(.09677)"/><path style="fill:#f5faff;fill-opacity:1;stroke-width:.264583" d="M-655.813-344.667v9.114h18.227v-9.114h-9.114z" transform="translate(78.236 40.409)scale(.09677)"/><path style="fill:#f2f5ec;fill-opacity:1;stroke-width:.264583" d="M-637.586-344.667v9.113h-9.114v.001h-9.113v18.228h9.113v-9.115h18.23v9.114h18.227v-9.114h-9.114v-9.114h-9.115v-9.113zm-9.113 18.228v18.228h27.34v-9.114h-18.226 9.114v-9.114h-9.114z" transform="translate(78.236 40.409)scale(.09677)"/><path style="fill:#f5faff;fill-opacity:1;stroke-width:.264583" d="M-637.586-353.78h9.114v9.114h-9.114zM-601.131-372.008v9.114h18.227v-9.114h-9.114z" transform="translate(78.236 40.409)scale(.09677)"/><path style="fill:#f2f5ec;fill-opacity:1;stroke-width:.264583" d="M-582.904-372.008v9.113h-9.114v.001h-9.113v18.228h9.113v-9.115h18.23v9.114h18.226v-9.114h-9.113v-9.114h-9.115v-9.113zm-9.113 18.228v18.228h27.34v-9.114h-18.226 9.114v-9.114h-9.114z" transform="translate(78.236 40.409)scale(.09677)"/><path style="fill:#f5faff;fill-opacity:1;stroke-width:.264583" d="M-582.904-381.121h9.114v9.114h-9.114zM-546.448-399.353v9.114h18.227v-9.114h-9.113z" transform="translate(78.236 40.409)scale(.09677)"/><path style="fill:#c6cfd8;fill-opacity:1;stroke-width:.264583" d="M-528.22-408.464v9.115h18.226v-9.115h-9.113z" transform="translate(78.236 40.409)scale(.09677)"/><path style="fill:#494e61;fill-opacity:1;stroke-width:.264583" d="M-664.927-326.438v9.114zh-9.115v9.113h-9.114v9.113h18.23v9.114h18.226v.002h9.114v-9.114h-9.114v-.002h9.114v-9.113h-9.115v-9.114h-9.113zm-9.114 18.228v9.114h9.114v-9.114zm9.113 9.115v9.113h9.114v-9.113zm54.684-54.687v9.114zh-9.115v9.114h-9.113v9.113h18.229v9.114h18.226v.002h9.114v-9.114h-9.113v-.002h9.113v-9.113h-9.114v-9.114h-9.114zm-9.114 18.228v9.114h9.114v-9.114zm9.113 9.114v9.114h9.114v-9.114zm54.684-54.682v9.114zh-9.115v9.114h-9.113v9.113h18.229v9.114h18.226v.002h9.114v-9.114h-9.113v-.002h9.113v-9.113h-9.114v-9.114h-9.114zm-9.114 18.228v9.114h9.114v-9.114zm9.113 9.114v9.114h9.114v-9.114z" transform="translate(78.236 40.409)scale(.09677)"/><path style="fill:#b2b8c6;fill-opacity:1;stroke-width:.264583" d="M-528.22-372.008v9.113h18.227v-9.113h-9.114z" transform="translate(78.236 40.409)scale(.09677)"/><path style="fill:#b2b8c6;fill-opacity:1;stroke-width:.324045" d="M-509.994-399.35v27.338h9.116v-27.337h-4.558z" transform="translate(78.236 40.409)scale(.09677)"/></svg>
