<svg width="145" height="120" viewBox="0 0 38.365 31.75" xmlns="http://www.w3.org/2000/svg"><path style="fill:#fbbd00;fill-opacity:1;stroke-width:3.32449" d="M-204.713 50.953v31.76h-31.762v206.444h31.761v31.76h95.282v-31.76h31.76V82.714h-31.76v-31.76Zm31.76 63.521h31.76v142.922h-31.76z" transform="translate(39.912 3.972)scale(.06402)"/><path style="fill:#4086f4;fill-opacity:1;stroke-width:2.25055" d="M-538.138 67.328V83.21h-15.881v15.88h-30.662v76.294h38.602v28.992h31.76v12.262h30.952v57.134h-23.01v-25.153h-15.882v-19.332h-49.26v60.365h17.5v13.692h3.566v14.962h107.596v-28.99h23.01v-94.608h-23.01V178.49h-31.761v-31.76h-46.542v-5.289h4.335V114.97h42.207v25.374h58.056V83.209h-26.296V67.33Z" transform="translate(39.912 3.972)scale(.06402)"/><path style="fill:#eb4132;fill-opacity:1;stroke-width:3.58447" d="M-377.795 60.792v6.042h-17.481V314.37h15.88v.677h116.69v-61.623h-70.985v-36.679h60.28v-61.622h-60.28v-32.71h72.586V60.792Z" transform="translate(39.912 3.972)scale(.06402)"/><path style="fill:#1a2b3d;fill-opacity:1;stroke-width:.461021" d="M-442.917 66.833h15.88v15.88h-15.88z" transform="translate(39.912 3.972)scale(.06402)"/><path style="fill:#1a2b3d;fill-opacity:1;stroke-width:.461021" d="M-395.277 50.953v15.88h127.041v47.641h-79.4v47.64h63.52v47.641h-63.52v47.64h79.4v47.642h-127.04V66.833h-15.88v15.88h-15.881v47.64h-31.76v-15.88h-15.88v-15.88h-31.76v15.88h-15.881v31.76h15.88v-15.88h31.76v15.88h63.521v47.641h-15.88v95.281h15.88v31.76h158.801v-47.64h15.881V98.594h-15.88v-47.64h-63.52zm63.521 79.401h79.4v111.161h-79.4v-15.88h63.52v-79.4h-63.52z" transform="translate(39.912 3.972)scale(.06402)"/><path style="fill:#4086f4;fill-opacity:1;stroke-width:.461021" d="M-442.917 82.714v15.88h-15.88v15.88h31.76v-31.76Z" transform="translate(39.912 3.972)scale(.06402)"/><path style="fill:#1a2b3d;fill-opacity:1;stroke-width:.461021" d="M-538.198 50.953v15.88h95.28v-15.88h-79.4zm-31.761 31.761h15.88v15.88h-15.88zm15.881-15.881h15.88v15.88h-15.88zm-31.761 31.761v79.4h15.88v15.88h15.88v15.881h31.761v15.88h31.76v31.76h-15.88v15.88h31.76v-63.52h-31.76v-15.88h-31.76v-15.88h-15.88v-15.88h-15.88V98.594Z" transform="translate(39.912 3.972)scale(.06402)"/><path style="fill:#1a2b3d;fill-opacity:1;stroke-width:.461021" d="M-522.318 241.515h15.88v15.88h-15.88z" transform="translate(39.912 3.972)scale(.06402)"/><path style="fill:#bf2113;fill-opacity:1;stroke-width:1.78552" d="M-395.277 66.834v238.202h127.042v-15.88h-111.161V66.834Z" transform="translate(39.912 3.972)scale(.06402)"/><path style="fill:#1a2b3d;fill-opacity:1;stroke-width:.461021" d="M-585.839 225.635v63.52h15.88v15.881h15.88v15.88h111.161v-15.88h-95.28v-15.88h-15.88v-15.88h-15.88v-31.76h47.64v-15.88h-47.64zm142.922 63.521h15.88v15.88h-15.88z" transform="translate(39.912 3.972)scale(.06402)"/><path style="fill:#0c51bf;fill-opacity:1;stroke-width:.651982" d="M-569.958 241.515h15.88v31.76h-15.88z" transform="translate(39.912 3.972)scale(.06402)"/><path style="fill:#0c51bf;fill-opacity:1;stroke-width:.798511" d="M-474.677 209.755h15.88v47.641h-15.88z" transform="translate(39.912 3.972)scale(.06402)"/><path style="fill:#0c51bf;fill-opacity:1;stroke-width:.46102" d="M-554.078 82.714h15.88v15.88h-15.88zm15.88-15.881h15.88v15.88h-15.88zm63.521 31.761h15.88v15.88h-15.88z" transform="translate(39.912 3.972)scale(.06402)"/><path style="fill:#0c51bf;fill-opacity:1;stroke-width:.651981" d="M-458.797 114.474h31.76v15.88h-31.76z" transform="translate(39.912 3.972)scale(.06402)"/><path style="fill:#0c51bf;fill-opacity:1;stroke-width:.651982" d="M-506.438 193.875h31.76v15.88h-31.76zm-47.64-31.76v15.88h15.88v15.88h31.76v-15.88h-15.88v-15.88z" transform="translate(39.912 3.972)scale(.06402)"/><path style="fill:#0c51bf;fill-opacity:1;stroke-width:.922046" d="M-569.959 98.594h15.88v63.521h-15.88z" transform="translate(39.912 3.972)scale(.06402)"/><path style="fill:#0c51bf;fill-opacity:1;stroke-width:.461021" d="M-554.078 273.276h15.88v15.88h-15.88z" transform="translate(39.912 3.972)scale(.06402)"/><path style="fill:#0c51bf;fill-opacity:1;stroke-width:1.12927" d="M-538.198 289.156h95.281v15.88h-95.281z" transform="translate(39.912 3.972)scale(.06402)"/><path style="fill:#0c51bf;fill-opacity:1;stroke-width:.461021" d="M-442.917 273.276h15.88v15.88h-15.88z" transform="translate(39.912 3.972)scale(.06402)"/><path style="fill:#1a2b3d;fill-opacity:1;stroke-width:.461021" d="M-442.917 177.995h15.88v15.88h-15.88zm-31.76-15.88v15.88h31.76v-15.88h-15.88z" transform="translate(39.912 3.972)scale(.06402)"/><path style="fill:#4086f4;fill-opacity:1;stroke-width:.461021" d="M-506.438 177.995v15.88h31.76v-15.88h-15.88z" transform="translate(39.912 3.972)scale(.06402)"/><path style="fill:#1a2b3d;fill-opacity:1;stroke-width:.461021" d="M-506.438 146.234v15.88h31.76v-15.88h-15.88z" transform="translate(39.912 3.972)scale(.06402)"/><path style="fill:#4086f4;fill-opacity:1;stroke-width:.461021" d="M-538.198 98.594v15.88h-15.88v47.64h31.76v15.88h15.88v-31.76h-15.88v-47.64Zm95.281 95.281v15.88h-15.88v63.52h-47.64v-15.88h-15.88v-15.88h-15.881v15.88h-15.88v15.88h15.88v15.88h95.28v-15.88h15.881v-79.4z" transform="translate(39.912 3.972)scale(.06402)"/><path style="fill:#4086f4;fill-opacity:1;stroke-width:.461021" d="M-474.677 193.875h15.88v15.88h-15.88zm15.88-15.88h15.88v15.88h-15.88zm0-111.162h15.88v15.88h-15.88zm-63.521 15.881v15.88h63.52v-15.88h-47.64z" transform="translate(39.912 3.972)scale(.06402)"/><path style="fill:#63a0f7;fill-opacity:1;stroke-width:.46102" d="M-458.797 82.714h15.88v15.88h-15.88zm0 111.161h15.88v15.88h-15.88zm-15.88-15.88h15.88v15.88h-15.88zm0 79.401h15.88v15.88h-15.88zm-79.401-15.881h15.88v15.88h-15.88zm0-142.921h15.88v15.88h-15.88zm15.88-15.88h15.88v15.88h-15.88z" transform="translate(39.912 3.972)scale(.06402)"/><path style="fill:#63a0f7;fill-opacity:1;stroke-width:.92204" d="M-522.318 66.834h63.521v15.88h-63.521z" transform="translate(39.912 3.972)scale(.06402)"/><path style="fill:#0c51bf;fill-opacity:1;stroke-width:.46102" d="M-522.318 98.594h15.88v15.88h-15.88z" transform="translate(39.912 3.972)scale(.06402)"/><path style="fill:#f17769;fill-opacity:1;stroke-width:.651982" d="M-379.396 66.834v31.76h15.88v-15.88h95.28v-15.88h-95.28z" transform="translate(39.912 3.972)scale(.06402)"/><path style="fill:#f17769;fill-opacity:1;stroke-width:.922045" d="M-347.636 162.115h63.521v15.88h-63.521z" transform="translate(39.912 3.972)scale(.06402)"/><path style="fill:#eb4132;fill-opacity:1;stroke-width:.922044" d="M-363.516 82.714v15.88h-15.88v190.562h111.16v-15.88h-95.28v-15.88h15.88v-63.521h63.52v-15.88h-63.52V98.594h79.4v-15.88h-79.4z" transform="translate(39.912 3.972)scale(.06402)"/><path style="fill:#bf2113;fill-opacity:1;stroke-width:.922038" d="M-347.636 193.875h63.521v15.88h-63.521z" transform="translate(39.912 3.972)scale(.06402)"/><path style="fill:#bf2113;fill-opacity:1;stroke-width:1.03087" d="M-347.636 98.594h79.401v15.88h-79.401z" transform="translate(39.912 3.972)scale(.06402)"/><path style="fill:#f17769;fill-opacity:1;stroke-width:1.12927" d="M-363.516 257.396h95.281v15.88h-95.281z" transform="translate(39.912 3.972)scale(.06402)"/><path style="fill:#fb8100;fill-opacity:1;stroke-width:.461021" d="M-204.714 66.834h15.88v15.88h-15.88zm79.402 0h15.88v15.88h-15.88zm15.88 206.442h15.88v15.88h-15.88zm15.88-15.88h15.88v15.88h-15.88zM-220.594 82.714h15.88v15.88h-15.88z" transform="translate(39.912 3.972)scale(.06402)"/><path style="fill:#ffda69;fill-opacity:1;stroke-width:.461021" d="M-220.594 98.594h15.88v15.88h-15.88z" transform="translate(39.912 3.972)scale(.06402)"/><path style="fill:#fbbd00;fill-opacity:1;stroke-width:.461021" d="M-109.432 82.714v15.88h-15.88v15.88h15.88v127.042h-15.88v15.88h-47.641v-15.88h-15.88v-31.76h-15.88v-47.641h15.88V98.594h-15.88v15.88h-15.88l-.001 158.802h31.76v15.88h79.401v-15.88h15.88v-15.88h15.88l.001-31.76v-31.76h-15.88v-63.521h15.88V98.593h-15.88v-15.88z" transform="translate(39.912 3.972)scale(.06402)"/><path style="fill:#fbbd00;fill-opacity:1;stroke-width:.461021" d="M-188.833 82.714v15.88h63.52v-15.88h-47.64z" transform="translate(39.912 3.972)scale(.06402)"/><path style="fill:#fb8100;fill-opacity:1;stroke-width:.461021" d="M-188.833 98.594h15.88v15.88h-15.88zm47.641 0h15.88v15.88h-15.88z" transform="translate(39.912 3.972)scale(.06402)"/><path style="fill:#ffda69;fill-opacity:1;stroke-width:.461021" d="M-204.714 82.714h15.88v15.88h-15.88zm15.881-15.88v15.88h63.52v-15.88h-47.64zm63.521 15.88h15.88v15.88h-15.88zm-79.402 79.401v63.521h15.88v-63.521Z" transform="translate(39.912 3.972)scale(.06402)"/><path style="fill:#1a2b3d;fill-opacity:1;stroke-width:.461021" d="M-236.475 82.714h15.88v15.88h-15.88z" transform="translate(39.912 3.972)scale(.06402)"/><path style="fill:#1a2b3d;fill-opacity:1;stroke-width:.651982" d="M-172.953 98.594h31.76v15.88h-31.76z" transform="translate(39.912 3.972)scale(.06402)"/><path style="fill:#1a2b3d;fill-opacity:1;stroke-width:1.38306" d="M-188.833 114.474h15.88v142.922h-15.88z" transform="translate(39.912 3.972)scale(.06402)"/><path style="fill:#1a2b3d;fill-opacity:1;stroke-width:.651983" d="M-172.953 257.396h31.761v15.88h-31.761z" transform="translate(39.912 3.972)scale(.06402)"/><path style="fill:#1a2b3d;fill-opacity:1;stroke-width:1.38306" d="M-141.192 114.474h15.88v142.922h-15.88z" transform="translate(39.912 3.972)scale(.06402)"/><path style="fill:#1a2b3d;fill-opacity:1;stroke-width:.461021" d="M-220.594 66.834h15.88v15.88h-15.88zm15.881-15.881v15.88h95.28v-15.88h-79.4zm95.281 15.881h15.88v15.88h-15.88zm15.88 15.88h15.88v15.88h-15.88zm0 190.562h15.88v15.88h-15.88zm-142.923 0h15.88v15.88h-15.88zm15.881 15.88h15.88v15.88h-15.88zm111.162 0h15.88v15.88h-15.88zm-95.282 15.881v15.88h95.282v-15.88h-79.401z" transform="translate(39.912 3.972)scale(.06402)"/><path style="fill:#1a2b3d;fill-opacity:1;stroke-width:1.52905" d="M-77.672 98.594h15.88v174.682h-15.88z" transform="translate(39.912 3.972)scale(.06402)"/><path style="fill:#fb8100;fill-opacity:1;stroke-width:1.12926" d="M-220.594 273.276v15.88h15.88v15.88h95.281v-15.88h-79.4v-15.88z" transform="translate(39.912 3.972)scale(.06402)"/><path style="fill:#fb8100;fill-opacity:1;stroke-width:1.52904" d="M-236.475 98.594h15.88v174.682h-15.88z" transform="translate(39.912 3.972)scale(.06402)"/><path style="fill:#ffda69;fill-opacity:1;stroke-width:.922045" d="M-93.552 130.354h15.88v63.521h-15.88z" transform="translate(39.912 3.972)scale(.06402)"/><path style="fill:#fb8100;fill-opacity:1;stroke-width:.461021" d="M-141.193 257.396h15.88v15.88h-15.88z" transform="translate(39.912 3.972)scale(.06402)"/><path style="fill:#fb8100;fill-opacity:1;stroke-width:1.38309" d="M-125.313 114.474h15.881v142.922h-15.881z" transform="translate(39.912 3.972)scale(.06402)"/></svg>
