<svg width="145" height="120" viewBox="0 0 38.365 31.75" xmlns="http://www.w3.org/2000/svg"><path style="fill:#00669a;fill-opacity:1;stroke-width:1.02473" d="M40.162 67.772v109.364h136.706V67.772z" transform="translate(3.031 -3.151)scale(.15537)"/><path style="fill:#00669a;fill-opacity:1;stroke-width:1.02473" d="M158.641 58.658H49.276v136.706h109.365z" transform="translate(3.031 -3.151)scale(.15537)"/><path style="fill:#278cc0;fill-opacity:1;stroke-width:1.02473" d="M158.641 49.544H49.276V186.25h109.365z" transform="translate(3.031 -3.151)scale(.15537)"/><path style="fill:#278cc0;fill-opacity:1;stroke-width:1.02473" d="M31.049 67.772v109.364h136.706V67.772z" transform="translate(3.031 -3.151)scale(.15537)"/><path style="fill:#0078b5;fill-opacity:1;stroke-width:3.70416" d="M40.162 58.658h127.592v127.593H40.162z" transform="translate(3.031 -3.151)scale(.15537)"/><path style="fill:#fff;fill-opacity:1;stroke-width:.264583" d="M58.192 104.137v63.797H76.42v-63.797h-9.114z" transform="translate(3.031 -3.151)scale(.15537)"/><path style="fill:#fff;fill-opacity:1;stroke-width:.244956" d="M94.647 104.137v63.797h18.227v-45.569h18.228v45.569h18.227V113.25h-9.114v-9.114h-18.227v9.114h-9.114v-9.114h-9.113z" transform="translate(3.031 -3.151)scale(.15537)"/><path style="fill:#fff;fill-opacity:1;stroke-width:.264583" d="M58.192 76.796v18.227H76.42V76.796h-9.114z" transform="translate(3.031 -3.151)scale(.15537)"/><path style="fill:#00669a;fill-opacity:1;stroke-width:.264583" d="M158.641 58.658h9.114v9.114h-9.114zM158.641 177.136h9.114v9.114h-9.114z" transform="translate(3.031 -3.151)scale(.15537)"/></svg>
