<?xml version="1.0" encoding="UTF-8" standalone="no"?>
<!-- Created with Inkscape (http://www.inkscape.org/) -->

<svg
   width="38.364582mm"
   height="31.75mm"
   viewBox="0 0 38.364582 31.75"
   version="1.1"
   id="svg362666"
   inkscape:version="1.2.2 (b0a8486541, 2022-12-01)"
   sodipodi:docname="stand-seo.svg"
   xmlns:inkscape="http://www.inkscape.org/namespaces/inkscape"
   xmlns:sodipodi="http://sodipodi.sourceforge.net/DTD/sodipodi-0.dtd"
   xmlns="http://www.w3.org/2000/svg"
   xmlns:svg="http://www.w3.org/2000/svg">
  <sodipodi:namedview
     id="namedview362668"
     pagecolor="#ffffff"
     bordercolor="#000000"
     borderopacity="0.25"
     inkscape:showpageshadow="2"
     inkscape:pageopacity="0.0"
     inkscape:pagecheckerboard="0"
     inkscape:deskcolor="#d1d1d1"
     inkscape:document-units="mm"
     showgrid="false"
     inkscape:zoom="2.9647587"
     inkscape:cx="99.502196"
     inkscape:cy="96.972479"
     inkscape:window-width="1920"
     inkscape:window-height="1001"
     inkscape:window-x="0"
     inkscape:window-y="0"
     inkscape:window-maximized="1"
     inkscape:current-layer="layer1" />
  <defs
     id="defs362663" />
  <g
     inkscape:label="Layer 1"
     inkscape:groupmode="layer"
     id="layer1"
     transform="translate(-51.141346,-62.921265)">
    <g
       id="g219954"
       transform="matrix(0.07574767,0,0,0.07574767,132.91857,78.931477)">
      <path
         id="path219942"
         style="fill:#4086f4;fill-opacity:1;stroke-width:0.522871"
         d="m -808.35038,-19.796081 v 18.0107801 18.0107899 18.01027 h 18.01079 18.01079 18.01027 18.01078 v 5.2e-4 18.01027 h -18.01078 v 18.01078 h -18.01027 v 18.01079 h 18.01027 v 18.010791 h 18.01078 18.01079 V 88.268119 h 18.01079 v -18.01079 h 18.01027 v -18.01078 -18.01027 -5.2e-4 -18.01027 -18.0107899 -18.0107801 h -18.01027 -18.01079 -18.01079 -18.01078 -18.01027 -18.01079 z" />
      <path
         id="path219944"
         style="fill:#fbbd00;fill-opacity:1;stroke-width:0.522871"
         d="m -970.44643,-73.827931 v 18.01079 18.01027 18.01079 18.0107801 18.0107899 18.01027 18.01079 h 5.2e-4 v 18.01078 h 18.01027 v -18.01078 h 18.01079 v -18.01079 h 18.01078 V 16.225489 -1.7853009 -19.796081 -37.806871 h -18.01078 v -18.01027 h -18.01079 v -18.01079 z" />
      <path
         id="path219946"
         style="fill:#eb4132;fill-opacity:1;stroke-width:0.522871"
         d="m -898.40379,-145.87004 v 18.01027 h -18.01027 v 18.01079 h -18.01079 v 18.010779 h -18.01079 v 18.01079 18.01027 h 18.01079 v 5.1e-4 18.01027 h 18.01079 v -18.01027 -5.1e-4 h 18.01027 v -18.01027 h 18.01079 v -18.01079 h 18.01078 18.01079 18.01027 18.01078 18.01079 18.01079 v 18.01079 h 18.01027 18.01078 18.01079 18.01027 v -18.01079 h -18.01027 v -18.010779 h -18.01079 v -18.01079 h -18.01078 v -18.01027 h -18.01027 -18.01079 -18.01079 -18.01078 -18.01027 -18.01079 -18.01078 z" />
      <path
         id="path219948"
         style="fill:#31aa52;fill-opacity:1;stroke-width:0.522871"
         d="m -934.42485,34.235759 v 18.01079 h -18.01079 v 18.01078 18.01079 h 18.01079 v 18.010271 h 18.01078 18.01027 18.01079 v 5.2e-4 h -18.01079 -18.01027 v 18.01027 h 18.01027 v 18.01078 h 18.01079 18.01079 18.01078 18.01028 18.01078 18.01079 18.01079 18.01027 v -18.01078 h 18.01078 v -18.01079 h -18.01078 V 88.268119 h -18.01027 -18.01079 -18.01079 -18.01078 -18.01028 -18.01078 -18.01079 v -18.01079 h -18.01079 v -18.01078 h -18.01027 v -18.01079 z" />
    </g>
  </g>
</svg>
