<?xml version="1.0" encoding="UTF-8" standalone="no"?>
<!-- Created with Inkscape (http://www.inkscape.org/) -->

<svg
   width="38.364582mm"
   height="31.75mm"
   viewBox="0 0 38.364582 31.75"
   version="1.1"
   id="svg362666"
   inkscape:version="1.2.2 (b0a8486541, 2022-12-01)"
   sodipodi:docname="stand-linkedin.svg"
   xmlns:inkscape="http://www.inkscape.org/namespaces/inkscape"
   xmlns:sodipodi="http://sodipodi.sourceforge.net/DTD/sodipodi-0.dtd"
   xmlns="http://www.w3.org/2000/svg"
   xmlns:svg="http://www.w3.org/2000/svg">
  <sodipodi:namedview
     id="namedview362668"
     pagecolor="#ffffff"
     bordercolor="#000000"
     borderopacity="0.25"
     inkscape:showpageshadow="2"
     inkscape:pageopacity="0.0"
     inkscape:pagecheckerboard="0"
     inkscape:deskcolor="#d1d1d1"
     inkscape:document-units="mm"
     showgrid="false"
     inkscape:zoom="5.9295174"
     inkscape:cx="67.54344"
     inkscape:cy="61.978063"
     inkscape:window-width="1920"
     inkscape:window-height="1001"
     inkscape:window-x="0"
     inkscape:window-y="0"
     inkscape:window-maximized="1"
     inkscape:current-layer="g3352" />
  <defs
     id="defs362663" />
  <g
     inkscape:label="Layer 1"
     inkscape:groupmode="layer"
     id="layer1"
     transform="translate(-51.141346,-62.921265)">
    <g
       id="g3352"
       transform="matrix(0.15536721,0,0,0.15536721,54.171878,59.770944)">
      <path
         id="rect967-0"
         style="fill:#00669a;fill-opacity:1;stroke-width:1.02473"
         d="m 40.162373,67.771581 v 9.113655 9.113656 9.113656 9.113652 9.11365 9.11417 9.11366 9.11366 9.11365 9.11366 9.11417 9.11365 H 176.86846 v -9.11365 -9.11417 -9.11366 -9.11365 -9.11366 -9.11366 -9.11417 -9.11365 -9.113652 -9.113656 -9.113656 -9.113655 z" />
      <path
         id="rect967-8-7"
         style="fill:#00669a;fill-opacity:1;stroke-width:1.02473"
         d="m 158.64105,58.657566 h -9.11365 -9.11366 -9.11365 -9.11366 -9.11365 -9.11418 -9.113656 -9.11366 -9.113647 -9.11366 -9.11417 -9.11365 V 195.36388 h 9.11365 9.11417 9.11366 9.113647 9.11366 9.113656 9.11418 9.11365 9.11366 9.11365 9.11366 9.11365 z" />
      <path
         id="rect967-8"
         style="fill:#278cc0;fill-opacity:1;stroke-width:1.02473"
         d="m 158.64102,49.543916 h -9.11365 -9.11366 -9.11365 -9.11366 -9.11365 -9.11418 -9.11366 -9.11366 -9.113647 -9.11366 -9.11417 -9.11365 V 186.25023 h 9.11365 9.11417 9.11366 9.113647 9.11366 9.11366 9.11418 9.11365 9.11366 9.11365 9.11366 9.11365 z" />
      <path
         id="rect967"
         style="fill:#278cc0;fill-opacity:1;stroke-width:1.02473"
         d="m 31.048751,67.771574 v 9.113655 9.113656 9.113656 9.113659 9.11365 9.11417 9.11366 9.11366 9.11365 9.11366 9.11417 9.11365 H 167.7548 v -9.11365 -9.11417 -9.11366 -9.11365 -9.11366 -9.11366 -9.11417 -9.11365 -9.113659 -9.113656 -9.113656 -9.113655 z" />
      <rect
         style="fill:#0078b5;fill-opacity:1;stroke-width:3.70416"
         id="rect967-2"
         width="127.59243"
         height="127.59266"
         x="40.162373"
         y="58.657566" />
      <path
         id="rect967-2-2"
         style="fill:#ffffff;fill-opacity:1;stroke-width:0.264583"
         d="m 58.192314,104.1368 v 9.11417 9.11365 9.11418 9.11365 9.11417 9.11366 9.11366 h 9.113655 9.113656 v -9.11366 -9.11366 -9.11417 -9.11365 -9.11418 -9.11365 -9.11417 h -9.113656 z" />
      <path
         id="rect967-2-2-3-9"
         style="fill:#ffffff;fill-opacity:1;stroke-width:0.244956"
         d="m 94.646936,104.1368 v 9.11417 9.11365 9.11418 9.11365 9.11417 9.11366 9.11366 h 9.113654 9.11366 v -9.11366 -9.11366 -9.11417 -9.11365 -9.11418 h 9.11365 9.11366 v 6.5102 7.81193 7.81141 7.81244 7.81141 7.81193 h 9.11365 9.11366 v -7.81193 -7.81141 -7.81244 -7.81141 -7.81193 -7.81193 -7.81192 h -9.11366 v -9.11417 h -9.11365 -9.11366 v 9.11417 h -9.11365 v -9.11417 h -9.11366 z" />
      <path
         id="rect967-2-9-2-2-3"
         style="fill:#ffffff;fill-opacity:1;stroke-width:0.264583"
         d="m 58.192314,76.795829 v 9.113656 9.113655 h 9.113655 9.113656 v -9.113655 -9.113656 h -9.113656 z" />
      <rect
         style="fill:#00669a;fill-opacity:1;stroke-width:0.264583"
         id="rect967-2-5"
         width="9.1137505"
         height="9.1137505"
         x="158.64102"
         y="58.657566" />
      <rect
         style="fill:#00669a;fill-opacity:1;stroke-width:0.264583"
         id="rect967-2-0"
         width="9.1137505"
         height="9.1137505"
         x="158.64105"
         y="177.13647" />
    </g>
  </g>
</svg>
