<?xml version="1.0" encoding="UTF-8" standalone="no"?>
<!-- Created with Inkscape (http://www.inkscape.org/) -->

<svg
   width="38.364582mm"
   height="31.75mm"
   viewBox="0 0 38.364582 31.75"
   version="1.1"
   id="svg362666"
   inkscape:version="1.2.2 (b0a8486541, 2022-12-01)"
   sodipodi:docname="stand-photo.svg"
   xmlns:inkscape="http://www.inkscape.org/namespaces/inkscape"
   xmlns:sodipodi="http://sodipodi.sourceforge.net/DTD/sodipodi-0.dtd"
   xmlns="http://www.w3.org/2000/svg"
   xmlns:svg="http://www.w3.org/2000/svg">
  <sodipodi:namedview
     id="namedview362668"
     pagecolor="#ffffff"
     bordercolor="#000000"
     borderopacity="0.25"
     inkscape:showpageshadow="2"
     inkscape:pageopacity="0.0"
     inkscape:pagecheckerboard="0"
     inkscape:deskcolor="#d1d1d1"
     inkscape:document-units="mm"
     showgrid="false"
     inkscape:zoom="1.4823793"
     inkscape:cx="7.420503"
     inkscape:cy="71.169369"
     inkscape:window-width="1920"
     inkscape:window-height="1001"
     inkscape:window-x="0"
     inkscape:window-y="0"
     inkscape:window-maximized="1"
     inkscape:current-layer="layer1" />
  <defs
     id="defs362663" />
  <g
     inkscape:label="Layer 1"
     inkscape:groupmode="layer"
     id="layer1"
     transform="translate(-51.141346,-62.921265)">
    <g
       id="g57955"
       transform="matrix(0.14641959,0,0,0.14641959,91.917505,91.381036)">
      <path
         id="rect967-2-5-3-17"
         style="fill:#1a2b3d;fill-opacity:1;stroke-width:0.264583"
         d="m -229.5033,-154.30324 v 9.11365 9.11366 h -9.11366 v 9.11365 h 9.11366 9.11365 9.11366 9.11417 9.11366 9.11365 9.11366 v -9.11365 -9.11366 h -9.11366 v 9.11366 h -9.11365 v -9.11366 -9.11365 h -9.11366 -9.11417 -9.11366 z m 9.11365,9.11365 h 9.11366 9.11417 v 9.11366 h -9.11417 -9.11366 z" />
      <path
         id="rect967-2-5-3-49"
         style="fill:#1a2b3d;fill-opacity:1;stroke-width:0.264583"
         d="m -247.73062,-126.96228 v 9.11418 9.11365 9.113657 9.113656 9.113656 9.114172 9.113656 9.113655 9.113656 9.113655 9.113656 9.114172 h 9.11366 v -9.114172 -9.113656 h 9.11366 v -9.113655 h -9.11366 v -9.113656 -9.113655 -9.113656 -9.114172 h 9.11366 v -9.113656 h -9.11366 v -9.113656 -9.113657 -9.11365 -9.11418 z" />
      <path
         id="rect967-2-5-3-6-81"
         style="fill:#1a2b3d;fill-opacity:1;stroke-width:0.264583"
         d="m -220.38965,-117.8481 v 9.11365 h 9.11366 9.11417 9.11366 v -9.11365 h -9.11366 -9.11417 z" />
      <path
         id="rect967-2-5-3-6-81-3"
         style="fill:#9cc1d4;fill-opacity:1;stroke-width:0.264583"
         d="m -238.61696,-126.96228 v 9.11418 9.11365 h 9.11366 v -9.11365 -9.11418 z" />
      <path
         id="rect967-2-5-3-6-81-3-9"
         style="fill:#85b2c9;fill-opacity:1;stroke-width:0.264583"
         d="m -238.61696,-108.73445 v 9.113657 9.113656 h 9.11366 v -9.113656 -9.113657 z" />
      <path
         id="rect967-2-5-3-6-81-3-1"
         style="fill:#9cc1d4;fill-opacity:1;stroke-width:0.264583"
         d="m -65.45572,-126.96204 v 9.11418 9.11366 h 9.11366 v -9.11366 -9.11418 z" />
      <path
         id="rect967-2-5-3-6-81-3-1-9"
         style="fill:#85b2c9;fill-opacity:1;stroke-width:0.748353"
         d="m -156.59349,-90.507141 v 18.2283 18.227262 h 36.45466 v -18.227262 -18.2283 z" />
      <path
         id="rect967-2-5-3-6-81-3-9-2"
         style="fill:#85b2c9;fill-opacity:1;stroke-width:0.264583"
         d="m -65.45572,-108.7342 v 9.113655 9.113656 h 9.11366 v -9.113656 -9.113655 z" />
      <path
         id="rect967-2-5-3-6-81-3-9-7"
         style="fill:#85b2c9;fill-opacity:1;stroke-width:0.374178"
         d="m -229.50331,-81.393115 v 18.227388 18.227385 h 9.11366 v -18.227385 -18.227388 z" />
      <path
         id="rect967-2-5-3-6-81-3-9-7-6"
         style="fill:#517f99;fill-opacity:1;stroke-width:0.305517"
         d="m -214.31372,-81.393478 v 0.001 h -6.07593 v 18.227052 18.227051 h 6.07593 6.07593 v -5.17e-4 h 6.07592 V -63.165393 -81.39296 h -6.07592 v -5.18e-4 z" />
      <path
         id="rect967-2-5-3-6-81-3-9-7-6-0"
         style="fill:#517f99;fill-opacity:1;stroke-width:0.187085"
         d="m -211.27602,-35.824669 v 2.5e-4 h -9.11363 v 4.556629 4.556628 h 9.11363 9.11364 v -1.29e-4 h 9.11361 v -4.556491 -4.556757 h -9.11361 v -1.3e-4 z" />
      <path
         id="rect967-2-5-3-6-81-3-9-7-6-4"
         style="fill:#517f99;fill-opacity:1;stroke-width:0.374178"
         d="m -74.569425,-81.393175 v 18.227388 18.227385 h 9.11366 v -18.227385 -18.227388 z" />
      <rect
         style="fill:#396a8b;fill-opacity:1;stroke-width:0.264583"
         id="rect967-2-5-3-6-81-3-9-3"
         width="9.1137505"
         height="9.1137505"
         x="-238.61707"
         y="-35.824539" />
      <rect
         style="fill:#396a8b;fill-opacity:1;stroke-width:0.264583"
         id="rect967-2-5-3-6-81-3-9-3-0"
         width="9.1137505"
         height="9.1137505"
         x="-229.50331"
         y="-44.938293" />
      <rect
         style="fill:#396a8b;fill-opacity:1;stroke-width:0.264583"
         id="rect967-2-5-3-6-81-3-9-3-0-4"
         width="9.1137505"
         height="9.1137505"
         x="-229.50331"
         y="-90.50705" />
      <rect
         style="fill:#396a8b;fill-opacity:1;stroke-width:0.264583"
         id="rect967-2-5-3-6-81-3-9-3-0-4-91"
         width="9.1137505"
         height="9.1137505"
         x="-165.70724"
         y="-54.052094" />
      <rect
         style="fill:#396a8b;fill-opacity:1;stroke-width:0.264583"
         id="rect967-2-5-3-6-81-3-9-3-0-4-91-0"
         width="9.1137505"
         height="9.1137505"
         x="-120.13887"
         y="-54.052094" />
      <rect
         style="fill:#517f99;fill-opacity:1;stroke-width:0.482638"
         id="rect967-2-5-3-6-81-3-9-3-0-4-91-0-5"
         width="10.108733"
         height="27.341187"
         x="-120.13887"
         y="-81.39328" />
      <rect
         style="fill:#517f99;fill-opacity:1;stroke-width:0.264583"
         id="rect967-2-5-3-6-81-3-9-3-0-4-91-0-5-8"
         width="9.1137505"
         height="9.1137505"
         x="-165.70724"
         y="-63.165329" />
      <rect
         style="fill:#517f99;fill-opacity:1;stroke-width:0.529188"
         id="rect967-2-5-3-6-81-3-9-3-0-4-91-0-5-8-7"
         width="36.45462"
         height="9.1145897"
         x="-156.59349"
         y="-54.052094" />
      <rect
         style="fill:#396a8b;fill-opacity:1;stroke-width:0.529177"
         id="rect967-2-5-3-6-81-3-9-3-0-4-91-0-7"
         width="36.454601"
         height="9.1142206"
         x="-156.59354"
         y="-44.938858" />
      <rect
         style="fill:#396a8b;fill-opacity:1;stroke-width:0.264583"
         id="rect967-2-5-3-6-81-3-9-3-0-4-4"
         width="9.1137505"
         height="9.1137505"
         x="-202.16252"
         y="-35.824657" />
      <rect
         style="fill:#396a8b;fill-opacity:1;stroke-width:0.529165"
         id="rect967-2-5-3-6-81-3-9-3-0-4-7"
         width="36.454926"
         height="9.1137505"
         x="-156.59334"
         y="-136.07599" />
      <path
         id="rect967-2-5-3-6-81-3-9-3-0-4-0"
         style="fill:#fdfffe;fill-opacity:1;stroke-width:0.264583"
         d="m -229.5033,-126.96228 v 9.11366 h 36.45514 v -9.11366 z m 0,9.11418 v 9.11365 h 9.11365 v -9.11365 z" />
      <rect
         style="fill:#396a8b;fill-opacity:1;stroke-width:0.264583"
         id="rect967-2-5-3-6-81-3-9-3-0-4-9"
         width="9.1137505"
         height="9.1137505"
         x="-220.38969"
         y="-145.18959" />
      <rect
         style="fill:#85b2c9;fill-opacity:1;stroke-width:0.264583"
         id="rect967-2-5-3-6-81-3-9-33"
         width="9.1137505"
         height="9.1137505"
         x="-238.61707"
         y="-26.710785" />
      <rect
         style="fill:#396a8b;fill-opacity:1;stroke-width:0.264583"
         id="rect967-2-5-3-6-81-3-9-3-03"
         width="9.1137505"
         height="9.1137505"
         x="-65.455536"
         y="-35.824314" />
      <rect
         style="fill:#85b2c9;fill-opacity:1;stroke-width:0.264583"
         id="rect967-2-5-3-6-81-3-9-33-0"
         width="9.1137505"
         height="9.1137505"
         x="-65.455536"
         y="-26.710562" />
      <rect
         style="fill:#517f99;fill-opacity:1;stroke-width:0.458296"
         id="rect967-2-5-3-6-81-3-9-33-0-5"
         width="27.341059"
         height="9.1147814"
         x="-92.796921"
         y="-35.825722" />
      <rect
         style="fill:#85b2c9;fill-opacity:1;stroke-width:0.264583"
         id="rect967-2-5-3-6-81-3-9-33-6"
         width="9.1137505"
         height="9.1137505"
         x="-229.50331"
         y="-35.824539" />
      <rect
         style="fill:#85b2c9;fill-opacity:1;stroke-width:0.264583"
         id="rect967-2-5-3-6-81-3-9-33-6-7"
         width="9.1137505"
         height="9.1137505"
         x="-211.27579"
         y="-145.18916" />
      <path
         id="rect967-2-5-3-6-81-3-9-33-6-7-5"
         style="fill:#fdfffe;fill-opacity:1;stroke-width:0.264583"
         d="m -156.59354,-90.507137 v 9.113139 h -9.11366 v 9.113655 h 9.11366 9.11365 9.11366 v -9.113655 h -9.11366 v -9.113139 z m 0,18.227828 v 9.113656 h 9.11365 v -9.113656 z" />
      <rect
         style="fill:#85b2c9;fill-opacity:1;stroke-width:0.264583"
         id="rect967-2-5-3-6-81-3-9-33-6-7-92"
         width="9.1137505"
         height="9.1137505"
         x="-174.82085"
         y="-136.07599" />
      <rect
         style="fill:#9cc1d4;fill-opacity:1;stroke-width:0.264583"
         id="rect967-2-5-3-6-81-3-9-33-6-7-92-0"
         width="9.1137505"
         height="9.1137505"
         x="-165.70724"
         y="-72.278564" />
      <rect
         style="fill:#9cc1d4;fill-opacity:1;stroke-width:0.264583"
         id="rect967-2-5-3-6-81-3-9-33-6-7-92-0-4"
         width="9.1137505"
         height="9.1137505"
         x="-156.59349"
         y="-63.165329" />
      <rect
         style="fill:#9cc1d4;fill-opacity:1;stroke-width:0.264583"
         id="rect967-2-5-3-6-81-3-9-33-6-7-92-0-8"
         width="9.1137505"
         height="9.1137505"
         x="-147.47989"
         y="-72.279617" />
      <rect
         style="fill:#9cc1d4;fill-opacity:1;stroke-width:0.264583"
         id="rect967-2-5-3-6-81-3-9-33-6-7-92-0-0"
         width="9.1137505"
         height="9.1137505"
         x="-138.3658"
         y="-81.393272" />
      <rect
         style="fill:#9cc1d4;fill-opacity:1;stroke-width:0.264583"
         id="rect967-2-5-3-6-81-3-9-33-6-7-92-0-42"
         width="9.1137505"
         height="9.1137505"
         x="-147.47989"
         y="-90.507141" />
      <rect
         style="fill:#85b2c9;fill-opacity:1;stroke-width:0.264583"
         id="rect967-2-5-3-6-81-3-9-33-6-7-92-5"
         width="9.1137505"
         height="9.1137505"
         x="-193.04816"
         y="-126.96233" />
      <path
         id="rect967-2-5-3-6-81-3-9-33-6-7-92-5-2"
         style="fill:#c6dbde;fill-opacity:1;stroke-width:0.264583"
         d="m -165.7072,-136.07593 v 9.11365 h -18.22731 v 9.11366 h -9.11365 v 9.11365 h 9.11365 v 5.2e-4 h -45.56879 v 18.226796 h 45.56879 v -9.114172 h 9.11366 v -9.113144 h 9.11417 v -9.11365 h 54.68193 v 9.11365 h 9.11366 9.113653 v 9.113661 h 9.114173 v 10e-4 h 9.114172 0.0021 v 9.113656 h 9.113656 v -9.113656 h -0.0031 v -9.113651 h -9.112622 -9.114172 v -0.001 -9.11365 h -9.113656 v -9.11366 h -18.227834 v -9.11365 h -9.11365 v 9.11365 h -36.45514 v -9.11365 z m 82.024969,36.457204 v 9.113656 h 9.113656 v -9.113656 z" />
      <rect
         style="fill:#fdfffe;fill-opacity:1;stroke-width:0.374173"
         id="rect967-2-5-3-6-81-3-9-33-6-7-92-48-3"
         width="18.227106"
         height="9.1137505"
         x="-83.683052"
         y="-126.96228" />
      <rect
         style="fill:#c6dbde;fill-opacity:1;stroke-width:0.64809"
         id="rect967-2-5-3-6-81-3-9-33-6-7-92-7-8"
         width="54.682468"
         height="9.1136513"
         x="-229.50334"
         y="-26.710514" />
      <rect
         style="fill:#c6dbde;fill-opacity:1;stroke-width:0.648088"
         id="rect967-2-5-3-6-81-3-9-33-6-7-92-7-1"
         width="54.682213"
         height="9.1136551"
         x="-165.70699"
         y="-26.710514" />
      <rect
         style="fill:#c6dbde;fill-opacity:1;stroke-width:0.529165"
         id="rect967-2-5-3-6-81-3-9-33-6-7-92-7-1-0"
         width="36.455048"
         height="9.1137028"
         x="-101.91058"
         y="-26.710562" />
      <rect
         style="fill:#85b2c9;fill-opacity:1;stroke-width:0.264583"
         id="rect967-2-5-3-6-81-3-9-33-6-7-92-2"
         width="9.1137505"
         height="9.1137505"
         x="-111.02464"
         y="-136.07599" />
      <path
         id="rect967-2-5-3-6-81-3-9-33-6-7-9"
         style="fill:#fdfffe;fill-opacity:1;stroke-width:0.591624"
         d="m -165.7072,-154.30324 v 9.11365 h -9.11417 v 9.11366 h 63.79662 v -9.11366 h -9.11365 v -9.11365 z" />
      <rect
         style="fill:#85b2c9;fill-opacity:1;stroke-width:0.264583"
         id="rect967-2-5-3-6-81-3-9-33-6-7-4"
         width="9.1137505"
         height="9.1137505"
         x="-83.683052"
         y="-145.18964" />
      <rect
         style="fill:#c6dbde;fill-opacity:1;stroke-width:0.529106"
         id="rect967-2-5-3-6-81-3-9-33-6-7-4-1"
         width="36.455063"
         height="9.1116791"
         x="-156.59348"
         y="-145.18767" />
      <rect
         style="fill:#35678a;fill-opacity:1;stroke-width:0.529166"
         id="rect967-2-5-3-6-81-3-9-4"
         width="9.1137505"
         height="36.454987"
         x="-238.61707"
         y="-81.393295" />
      <rect
         style="fill:#35678a;fill-opacity:1;stroke-width:0.529166"
         id="rect967-2-5-3-6-81-3-9-4-8"
         width="9.1137505"
         height="36.454987"
         x="-65.455765"
         y="-81.39328" />
      <rect
         style="fill:#35678a;fill-opacity:1;stroke-width:0.529166"
         id="rect967-2-5-3-6-81-3-9-4-88"
         width="9.1137505"
         height="36.454987"
         x="-83.683273"
         y="-81.39328" />
      <rect
         style="fill:#35678a;fill-opacity:1;stroke-width:0.529166"
         id="rect967-2-5-3-6-81-3-9-4-88-0"
         width="9.1137505"
         height="36.454987"
         x="-202.16187"
         y="-81.393478" />
      <rect
         style="fill:#1a2b3d;fill-opacity:1;stroke-width:0.264583"
         id="rect967-2-5-3-69"
         width="9.1137505"
         height="9.1137505"
         x="-174.82079"
         y="-154.30331" />
      <path
         id="rect967-2-5-3-3"
         style="fill:#1a2b3d;fill-opacity:1;stroke-width:0.264583"
         d="m -165.7072,-163.4169 v 9.11366 h 9.11417 9.11366 9.11366 9.11365 9.11366 v -9.11366 h -9.11366 -9.11365 -9.11366 -9.11366 z" />
      <rect
         style="fill:#1a2b3d;fill-opacity:1;stroke-width:0.264583"
         id="rect967-2-5-3-30"
         width="9.1137505"
         height="9.1137505"
         x="-120.13826"
         y="-154.30331" />
      <rect
         style="fill:#1a2b3d;fill-opacity:1;stroke-width:0.264583"
         id="rect967-2-5-3-78"
         width="9.1137505"
         height="9.1137505"
         x="-111.02451"
         y="-145.18956" />
      <path
         id="rect967-2-5-3-78-1"
         style="fill:#1a2b3d;fill-opacity:1;stroke-width:0.264583"
         d="m -56.341781,-126.96228 v 9.11418 9.11365 9.113657 9.113656 h -9.114172 -9.113656 -9.112622 v -9.111589 h -9.114172 v 9.111589 h -5.17e-4 v 9.113656 9.113655 9.113656 h 9.113656 v -9.113656 -9.113655 h 9.113655 9.113656 9.114172 v 9.114172 9.113656 9.113655 9.113656 h -9.114172 -9.113656 -9.113138 v -5.17e-4 -5.17e-4 -9.113139 -9.113138 h -9.113656 v 9.113138 h -5.17e-4 v 9.113139 5.17e-4 9.113139 h 9.113656 v 5.17e-4 h -9.113139 v 9.113655 h 9.113656 v -9.113139 h 9.113138 9.113656 9.114172 v 9.114173 9.113655 h 9.113656 v -9.113655 -9.114173 -9.113655 -9.113656 -9.113655 -9.113656 -9.114172 -9.113656 -9.113656 -9.113657 -9.11365 -9.11418 z m 0,109.365421 h -9.114172 -9.113656 -9.113655 -9.113656 -0.001 v -9.113139 h 5.16e-4 v -9.113655 h -9.113656 v 9.113139 h -5.2e-4 -9.11314 v 9.113655 h -9.11365 -9.11366 -9.11365 -9.11366 -9.11366 -9.11417 v -9.113655 h -9.11262 -10e-4 -9.11263 v 9.113655 h -10e-4 -9.11365 -9.11366 -9.11417 -9.11366 -9.11365 -9.11366 v 9.1136559 h 9.11366 9.11365 9.11366 9.11417 9.11366 9.11365 9.11366 9.11365 9.11417 9.11366 9.11366 9.11365 9.11366 9.11365 9.11417 9.113663 9.113656 9.113655 9.113656 9.114172 z M -174.82034,-117.84862 v 9.11365 h -5.1e-4 -9.11366 v 9.113661 h 9.11366 9.11365 v -9.113661 h 5.2e-4 13.67048 13.671 13.67049 13.66996 v 9.113661 h 9.11366 v 9.114172 h 9.113653 v -9.114172 h 5.17e-4 v -9.113661 h -9.11417 v -9.11365 h -9.11366 -13.66996 -13.67049 -13.671 -13.67048 z m -18.22834,18.227311 v 9.113655 h 9.11365 v -9.113655 z m 9.11417,5.16e-4 v 9.113656 h 9.11366 v -9.113656 z m 0,9.113656 h -9.11365 -9.11366 -9.11417 -9.11366 v 9.113656 h 9.11366 9.11417 9.11366 v 9.113655 9.113656 9.113655 h 9.11365 v -9.113655 -9.113656 -9.113655 z m -9.11314,36.455139 v 9.113656 h -5.1e-4 -9.11366 -9.11417 -9.11366 v 9.113655 h 9.11366 9.11417 9.11314 v 9.113656 h 9.11365 v -9.113656 h 5.2e-4 v -9.113655 h 5.2e-4 v -9.113656 z m 9.11314,18.227311 v 9.113656 h 9.11366 v -9.113656 z" />
      <path
         id="rect967-2-5-3-68"
         style="fill:#1a2b3d;fill-opacity:1;stroke-width:0.264583"
         d="m -92.79692,-154.30324 v 9.11365 9.11366 h -9.11366 v 9.11365 h 9.11366 9.113656 9.113655 9.113656 9.114172 v -9.11365 h -9.114172 v -9.11366 -9.11365 h -9.113656 -9.113655 z m 9.113656,9.11365 h 9.113655 v 9.11366 h -9.113655 z" />
      <rect
         style="fill:#85b2c9;fill-opacity:1;stroke-width:0.264583"
         id="rect967-2-5-3-6-81-3-9-33-6-7-92-48"
         width="9.1137505"
         height="9.1137505"
         x="-92.797028"
         y="-126.96228" />
      <rect
         style="fill:#85b2c9;fill-opacity:1;stroke-width:0.374188"
         id="rect967-2-5-3-6-81-3-9-33-6-7-92-48-6"
         width="18.227329"
         height="9.1143761"
         x="-83.683052"
         y="-117.84853" />
      <rect
         style="fill:#c6dbde;fill-opacity:1;stroke-width:0.264583"
         id="rect967-2-5-3-6-81-3-9-33-6-7-92-7"
         width="9.1137505"
         height="9.1137505"
         x="-174.82034"
         y="-35.824539" />
      <rect
         style="fill:#c6dbde;fill-opacity:1;stroke-width:0.648092"
         id="rect967-2-5-3-6-81-3-9-33-6-7-92-7-3"
         width="9.1136599"
         height="54.682854"
         x="-183.93451"
         y="-90.507492" />
      <rect
         style="fill:#c6dbde;fill-opacity:1;stroke-width:0.648092"
         id="rect967-2-5-3-6-81-3-9-33-6-7-92-7-9"
         width="54.682411"
         height="9.1137276"
         x="-165.70718"
         y="-108.73497" />
      <rect
         style="fill:#c6dbde;fill-opacity:1;stroke-width:0.264583"
         id="rect967-2-5-3-6-81-3-9-33-6-7-92-7-11"
         width="9.1137505"
         height="9.1137505"
         x="-111.02476"
         y="-35.82386" />
      <rect
         style="fill:#c6dbde;fill-opacity:1;stroke-width:0.648102"
         id="rect967-2-5-3-6-81-3-9-33-6-7-92-7-0"
         width="9.1137505"
         height="54.683914"
         x="-101.911"
         y="-90.50737" />
      <rect
         style="fill:#c6dbde;fill-opacity:1;stroke-width:0.264583"
         id="rect967-2-5-3-6-81-3-9-33-6-7-92-7-34"
         width="9.1137505"
         height="9.1137505"
         x="-111.02464"
         y="-99.620918" />
      <rect
         style="fill:#c6dbde;fill-opacity:1;stroke-width:0.264583"
         id="rect967-2-5-3-6-81-3-9-33-6-7-92-7-03"
         width="9.1137505"
         height="9.1137505"
         x="-174.82085"
         y="-99.621239" />
      <rect
         style="fill:#fdfffe;fill-opacity:1;stroke-width:0.264581"
         id="rect967-2-5-3-6-81-3-9-33-6-7-92-48-3-8"
         width="9.1136436"
         height="9.1137018"
         x="-174.82085"
         y="-99.620796" />
      <path
         id="rect967-2-5-3-69-1-1"
         style="fill:#1a2b3d;fill-opacity:1;stroke-width:0.648063"
         d="m -165.7072,-99.620793 v 9.113139 h 54.68245 v -9.113139 z m 0,9.113139 h -9.11314 v 54.682451 h 9.11314 v 5.16e-4 h 9.11366 v -9.113655 h -9.11366 v -36.455139 h 9.11366 v -9.113656 h -9.11366 z m 45.56828,5.17e-4 v 9.113656 h 9.11417 v -9.113656 z m 9.11521,0 v 54.683484 h 9.11262 v -54.683484 z m -9.11521,45.568278 v 9.113656 h 9.11366 v -9.113656 z m -45.56724,9.115206 v 9.112622 h 54.68141 v -9.112622 z" />
      <rect
         style="fill:#fdfffe;fill-opacity:1;stroke-width:0.648092"
         id="rect967-2-5-3-6-81-3-9-33-6-7-92-48-3-2"
         width="54.682392"
         height="9.1137276"
         x="-165.70718"
         y="-108.73497" />
    </g>
  </g>
</svg>
