<?xml version="1.0" encoding="UTF-8" standalone="no"?>
<!-- Created with Inkscape (http://www.inkscape.org/) -->

<svg
   width="38.364582mm"
   height="31.75mm"
   viewBox="0 0 38.364582 31.75"
   version="1.1"
   id="svg362666"
   inkscape:version="1.2.2 (b0a8486541, 2022-12-01)"
   sodipodi:docname="stand-video.svg"
   xmlns:inkscape="http://www.inkscape.org/namespaces/inkscape"
   xmlns:sodipodi="http://sodipodi.sourceforge.net/DTD/sodipodi-0.dtd"
   xmlns="http://www.w3.org/2000/svg"
   xmlns:svg="http://www.w3.org/2000/svg">
  <sodipodi:namedview
     id="namedview362668"
     pagecolor="#ffffff"
     bordercolor="#000000"
     borderopacity="0.25"
     inkscape:showpageshadow="2"
     inkscape:pageopacity="0.0"
     inkscape:pagecheckerboard="0"
     inkscape:deskcolor="#d1d1d1"
     inkscape:document-units="mm"
     showgrid="false"
     inkscape:zoom="2.9647587"
     inkscape:cx="-16.864779"
     inkscape:cy="28.838772"
     inkscape:window-width="1920"
     inkscape:window-height="1001"
     inkscape:window-x="0"
     inkscape:window-y="0"
     inkscape:window-maximized="1"
     inkscape:current-layer="layer1" />
  <defs
     id="defs362663" />
  <g
     inkscape:label="Layer 1"
     inkscape:groupmode="layer"
     id="layer1"
     transform="translate(-51.141346,-62.921265)">
    <g
       id="g120944"
       transform="matrix(0.09677042,0,0,0.09677042,129.37729,103.33039)">
      <rect
         style="fill:#3e4059;fill-opacity:1;stroke-width:1.29619"
         id="rect967-2-5-3-69-0-4-52-3-380-5-2"
         width="218.73032"
         height="9.113781"
         x="-719.60986"
         y="-207.95995" />
      <rect
         style="fill:#f2f5ec;fill-opacity:1;stroke-width:1.29619"
         id="rect967-2-5-3-69-0-4-52-3-380-5-2-8"
         width="218.73032"
         height="9.113781"
         x="-719.60986"
         y="-198.84616" />
      <rect
         style="fill:#f2f5ec;fill-opacity:1;stroke-width:1.29619"
         id="rect967-2-5-3-69-0-4-52-3-380-5-2-8-7"
         width="218.73032"
         height="9.113781"
         x="-719.61011"
         y="-153.27737" />
      <rect
         style="fill:#f2f5ec;fill-opacity:1;stroke-width:1.29619"
         id="rect967-2-5-3-69-0-4-52-3-380-5-2-8-7-2"
         width="218.73032"
         height="9.113781"
         x="-719.61011"
         y="-135.0498" />
      <rect
         style="fill:#494e61;fill-opacity:1;stroke-width:1.29619"
         id="rect967-2-5-3-69-0-4-52-3-380-5-2-8-6-0-7-0-7"
         width="218.73032"
         height="9.113781"
         x="-719.61011"
         y="-144.16359" />
      <rect
         style="fill:#494e61;fill-opacity:1;stroke-width:2.59237"
         id="rect967-2-5-3-69-0-4-52-3-380-5-2-8-6-0-7-0-7-6"
         width="218.73007"
         height="36.455002"
         x="-719.60986"
         y="-189.73238" />
      <rect
         style="fill:#494e61;fill-opacity:1;stroke-width:0.793747"
         id="rect967-2-5-3-69-0-4-52-3-380-5-2-8-6-0-7-0-7-6-1"
         width="27.340969"
         height="27.341488"
         x="-646.69977"
         y="-253.52872" />
      <rect
         style="fill:#494e61;fill-opacity:1;stroke-width:1.83308"
         id="rect967-2-5-3-69-0-4-52-3-380-5-2-8-6-0-7-0-7-6-4"
         width="218.73061"
         height="18.227449"
         x="-719.61011"
         y="-125.93612" />
      <rect
         style="fill:#26283d;fill-opacity:1;stroke-width:1.2689"
         id="rect967-2-5-3-69-0-4-52-3-380-5-2-8-9"
         width="209.61737"
         height="9.113718"
         x="-719.61053"
         y="-107.70867" />
      <path
         id="rect967-2-5-3-69-0-4-52-3-380-5-2-8-9-5"
         style="fill:#3a3f55;fill-opacity:1;stroke-width:1.2689"
         d="m -719.60982,-125.93598 v 9.11365 h -5.2e-4 v 9.11366 h 209.61666 10e-4 9.11262 v -9.11366 -9.11365 h -9.11366 v 9.11365 h -200.50249 v -9.11365 z" />
      <path
         id="rect967-2-5-3-69-0"
         style="fill:#0d1021;fill-opacity:1;stroke-width:0.264583"
         d="m -683.15468,-280.86968 v 9.11366 9.11365 45.5688 h -5.2e-4 -9.11366 -9.11365 -9.11366 -9.11365 -9.11417 -9.11366 v 9.11365 9.11366 9.11417 9.11366 9.11365 9.11366 9.11365 9.11366 9.11417 9.11366 9.11365 9.11366 h 9.11366 v -9.11366 -9.11365 -9.11366 -9.11417 -9.11366 -9.11365 -9.11366 -9.11365 -9.11366 -9.11417 -9.11366 h 9.11417 9.11365 9.11366 9.11365 9.11366 9.11417 9.11366 9.11365 9.11366 9.11417 9.11366 9.11365 9.11366 9.11365 9.11418 9.11365 9.11366 9.11365 9.11366 v -9.11365 h -9.11366 -9.11365 -9.11366 -9.11365 -9.11418 -9.11365 -9.11366 -9.11365 -9.11366 -9.11417 -9.11366 -9.11365 -9.11366 v -45.5688 h 9.11417 9.11366 9.11366 9.11365 9.11366 9.11417 9.11365 9.11366 9.11366 9.11365 9.11417 9.11366 9.11366 9.11365 9.11366 9.11417 9.11365 9.11366 9.11366 9.11365 9.11366 v -9.11365 h -9.11366 -9.11365 -9.11366 -9.11366 -9.11365 -9.11417 -9.11366 -9.11365 -9.11366 -9.11366 -9.11417 -9.11365 -9.11366 -9.11366 -9.11365 -9.11417 -9.11366 -9.11365 -9.11366 -9.11366 -9.11417 v -9.11366 z m 127.59273,63.79611 v 9.11365 h 9.11365 9.11366 9.11365 9.11366 9.11417 9.11366 9.11365 v 9.11366 9.11417 9.11366 9.11365 9.11366 9.11365 9.11366 9.11417 9.11366 9.11365 9.11366 h 9.11366 v -9.11366 -9.11365 -9.11366 -9.11417 -9.11366 -9.11365 -9.11366 -9.11365 -9.11366 -9.11417 -9.11366 -9.11365 h -9.11366 -9.11365 -9.11366 -9.11417 -9.11366 -9.11365 -9.11366 z" />
      <path
         id="rect967-2-5-3-69-0-4"
         style="fill:#0d1021;fill-opacity:1;stroke-width:0.264583"
         d="m -482.65219,-262.64237 v 9.11366 9.11365 9.11366 9.11417 9.11366 h 9.11365 v -9.11366 -9.11417 -9.11366 -9.11365 -9.11366 z" />
      <path
         id="rect967-2-5-3-69-0-4-52-3-1"
         style="fill:#0d1021;fill-opacity:1;stroke-width:0.264583"
         d="m -674.04103,-289.98385 v 9.11366 h 9.11417 9.11366 v -9.11366 h -9.11366 z" />
      <path
         id="rect967-2-5-3-69-0-4-52-3-4"
         style="fill:#0d1021;fill-opacity:1;stroke-width:0.264583"
         d="m -637.58589,-308.21117 v 9.11366 h 9.11366 9.11417 v -9.11366 h -9.11417 z" />
      <path
         id="rect967-2-5-3-69-0-4-52-3-89"
         style="fill:#0d1021;fill-opacity:1;stroke-width:0.264583"
         d="m -564.67556,-344.66747 v 9.11366 h 9.11366 9.11365 v -9.11366 h -9.11365 z" />
      <path
         id="rect967-2-5-3-69-0-4-52-3-28"
         style="fill:#0d1021;fill-opacity:1;stroke-width:0.264583"
         d="m -546.44825,-353.78112 v 9.11365 h 9.11417 9.11366 v -9.11365 h -9.11366 z" />
      <path
         id="rect967-2-5-3-69-0-4-52-3-38"
         style="fill:#0d1021;fill-opacity:1;stroke-width:0.264583"
         d="m -528.22042,-362.89478 v 9.11366 h 9.11365 9.11366 v -9.11366 h -9.11366 z" />
      <rect
         style="fill:#0d1021;fill-opacity:1;stroke-width:0.264583"
         id="rect967-2-5-3-69-0-4-52-3-380"
         width="9.1137505"
         height="9.1137505"
         x="-509.9931"
         y="-372.00851" />
      <rect
         style="fill:#0d1021;fill-opacity:1;stroke-width:0.264583"
         id="rect967-2-5-3-69-0-4-52-3-380-5"
         width="9.1137505"
         height="9.1137505"
         x="-728.7243"
         y="-107.70872" />
      <rect
         style="fill:#26283d;fill-opacity:1;stroke-width:0.87752"
         id="rect967-2-5-3-69-0-4-52-3-380-5-6"
         width="9.1136894"
         height="100.2513"
         x="-728.72382"
         y="-207.95992" />
      <rect
         style="fill:#26283d;fill-opacity:1;stroke-width:0.87752"
         id="rect967-2-5-3-69-0-4-52-3-380-5-6-4"
         width="9.1136894"
         height="100.2513"
         x="-500.87955"
         y="-207.95995" />
      <rect
         style="fill:#0d1021;fill-opacity:1;stroke-width:1.26891"
         id="rect967-2-5-3-69-0-4-52-3-380-82"
         width="209.61652"
         height="9.1139469"
         x="-719.61011"
         y="-98.595016" />
      <path
         id="rect967-2-5-3-69-0-4-52-3-380-82-0"
         style="fill:#0d1021;fill-opacity:1;stroke-width:0.264583"
         d="m -509.99316,-107.70867 v 9.113655 h 9.11366 9.11365 v -9.113655 h -9.11365 z" />
      <path
         id="rect967-2-5-3-69-0-4-52-3-380-4"
         style="fill:#0d1021;fill-opacity:1;stroke-width:0.264583"
         d="m -500.87938,-399.35002 v 9.11366 9.11365 9.11418 h 9.11366 v -9.11418 -9.11365 -9.11366 z" />
      <path
         id="rect967-2-5-3-69-0-4-52-3-380-8"
         style="fill:#0d1021;fill-opacity:1;stroke-width:0.264583"
         d="m -537.33459,-417.57723 v 9.11366 h -9.11366 v 9.11365 h 9.11366 9.11365 v -9.11365 h 9.11366 9.11365 v 9.11365 h 9.11418 v -9.11365 -9.11366 h -9.11418 -9.11365 -9.11366 z" />
      <path
         id="rect967-2-5-3-69-0-4-52-3-380-37"
         style="fill:#0d1021;fill-opacity:1;stroke-width:0.264583"
         d="m -564.67608,-399.34992 v 9.11366 h 9.11366 v -9.11366 z m 9.11418,0 v 9.11366 h 9.11365 v -9.11366 z" />
      <path
         id="rect967-2-5-3-69-0-4-52-3-380-65"
         style="fill:#0d1021;fill-opacity:1;stroke-width:0.264583"
         d="m -582.90323,-390.23611 v 9.11365 h 9.11366 9.11366 v -9.11365 h -9.11366 z" />
      <path
         id="rect967-2-5-3-69-0-4-52-3-380-658"
         style="fill:#0d1021;fill-opacity:1;stroke-width:0.264583"
         d="m -601.13105,-381.12246 v 9.11418 h 9.11365 9.11417 v -9.11418 h -9.11417 z" />
      <path
         id="rect967-2-5-3-69-0-4-52-3-380-793"
         style="fill:#0d1021;fill-opacity:1;stroke-width:0.264583"
         d="m -674.04103,-344.66578 v 9.11365 h 9.11366 9.11365 v -9.11365 h -9.11365 z" />
      <path
         id="rect967-2-5-3-69-0-4-52-3-380-793-0"
         style="fill:#0d1021;fill-opacity:1;stroke-width:0.264583"
         d="m -655.8132,-353.7803 v 9.11365 h 9.11366 9.11365 v -9.11365 h -9.11365 z" />
      <path
         id="rect967-2-5-3-69-0-4-52-3-380-793-0-1"
         style="fill:#0d1021;fill-opacity:1;stroke-width:0.264583"
         d="m -637.58563,-362.89357 v 9.11365 h 9.11366 9.11365 v -9.11365 h -9.11365 z" />
      <path
         id="rect967-2-5-3-69-0-4-52-3-380-793-0-8"
         style="fill:#0d1021;fill-opacity:1;stroke-width:0.264583"
         d="m -619.35836,-317.32478 v 9.11365 h 9.11366 9.11365 v -9.11365 h -9.11365 z" />
      <path
         id="rect967-2-5-3-69-0-4-52-3-380-793-0-8-5"
         style="fill:#0d1021;fill-opacity:1;stroke-width:0.264583"
         d="m -601.13075,-326.43898 v 9.11365 h 9.11366 9.11365 v -9.11365 h -9.11365 z" />
      <path
         id="rect967-2-5-3-69-0-4-52-3-380-83"
         style="fill:#0d1021;fill-opacity:1;stroke-width:0.264583"
         d="m -692.26886,-335.55213 v 9.11366 h 9.11366 9.11417 v -9.11366 h -9.11417 z" />
      <path
         id="rect967-2-5-3-69-0-4-52-3-380-78"
         style="fill:#0d1021;fill-opacity:1;stroke-width:0.264583"
         d="m -710.49617,-326.43847 v 9.11365 h 9.11366 9.11365 v -9.11365 h -9.11365 z" />
      <path
         id="rect967-2-5-3-69-0-4-52-3-380-78-1"
         style="fill:#0d1021;fill-opacity:1;stroke-width:0.264583"
         d="m -737.83767,-317.32469 v 9.11366 h 9.11366 9.11365 9.11417 v -9.11366 h -9.11417 -9.11365 z" />
      <path
         id="rect967-2-5-3-69-0-4-52-3-380-78-92"
         style="fill:#0d1021;fill-opacity:1;stroke-width:0.264583"
         d="m -746.95131,-308.21116 v 9.11365 9.11418 9.11365 9.11366 9.11365 9.11366 9.11365 9.11418 9.11365 9.11366 h 9.11366 v -9.11366 -9.11365 -9.11418 -9.11365 -9.11366 -9.11365 -9.11366 -9.11365 -9.11418 -9.11365 z" />
      <path
         id="rect967-2-5-3-69-0-4-52-3-3"
         style="fill:#0d1021;fill-opacity:1;stroke-width:0.264583"
         d="m -655.8132,-299.09751 v 9.11366 h 9.11366 9.11365 v -9.11366 h -9.11365 z" />
      <rect
         style="fill:#c6cfd8;fill-opacity:1;stroke-width:0.264583"
         id="rect967-2-5-3-69-0-4-52-3-380-45"
         width="9.1137505"
         height="9.1137505"
         x="-719.60986"
         y="-198.84616" />
      <path
         id="rect967-2-5-3-69-0-4-52-3-380-45-7-5"
         style="fill:#f5faff;fill-opacity:1;stroke-width:0.216033"
         d="m -664.92737,-262.64237 v 9.11366 h 6.07589 6.07589 6.07588 v -9.11366 h -6.07588 -6.07589 z" />
      <path
         id="rect967-2-5-3-69-0-4-52-3-380-45-7-5-7"
         style="fill:#777b83;fill-opacity:1;stroke-width:0.264583"
         d="m -646.69975,-262.64237 v 9.11366 h 9.11365 9.11366 9.11365 v -9.11366 h -9.11365 -9.11366 z" />
      <path
         id="rect967-2-5-3-69-0-4-52-3-380-45-7-5-7-3"
         style="fill:#26283d;fill-opacity:1;stroke-width:0.264583"
         d="m -646.69974,-226.18739 v 9.11366 h 9.11365 9.11366 9.11365 v -9.11366 h -9.11365 -9.11366 z" />
      <rect
         style="fill:#494e61;fill-opacity:1;stroke-width:0.793747"
         id="rect967-2-5-3-69-0-4-52-3-380-5-2-8-6-0-7-0-7-6-1-7"
         width="27.340969"
         height="27.341488"
         x="-592.01733"
         y="-253.52856" />
      <path
         id="rect967-2-5-3-69-0-4-52-3-380-45-7-5-7-9"
         style="fill:#777b83;fill-opacity:1;stroke-width:0.264583"
         d="m -592.01731,-262.64221 v 9.11366 h 9.11365 9.11366 9.11365 v -9.11366 h -9.11365 -9.11366 z" />
      <path
         id="rect967-2-5-3-69-0-4-52-3-380-45-7-5-7-3-93"
         style="fill:#26283d;fill-opacity:1;stroke-width:0.264583"
         d="m -592.0173,-226.18723 v 9.11366 h 9.11365 9.11366 9.11365 v -9.11366 h -9.11365 -9.11366 z" />
      <rect
         style="fill:#494e61;fill-opacity:1;stroke-width:0.793747"
         id="rect967-2-5-3-69-0-4-52-3-380-5-2-8-6-0-7-0-7-6-1-7-7"
         width="27.340969"
         height="27.341488"
         x="-537.33435"
         y="-253.52873" />
      <path
         id="rect967-2-5-3-69-0-4-52-3-380-45-7-5-7-9-1"
         style="fill:#777b83;fill-opacity:1;stroke-width:0.264583"
         d="m -537.33433,-262.64237 v 9.11366 h 9.11365 9.11366 9.11365 v -9.11366 h -9.11365 -9.11366 z" />
      <path
         id="rect967-2-5-3-69-0-4-52-3-380-45-7-5-7-3-93-2"
         style="fill:#26283d;fill-opacity:1;stroke-width:0.264583"
         d="m -537.33432,-226.18739 v 9.11366 h 9.11365 9.11366 9.11365 v -9.11366 h -9.11365 -9.11366 z" />
      <rect
         style="fill:#f2f5ec;fill-opacity:1;stroke-width:0.793747"
         id="rect967-2-5-3-69-0-4-52-3-380-5-2-8-6-0-7-0-7-6-1-8"
         width="27.340969"
         height="27.341488"
         x="-619.35876"
         y="-253.52872" />
      <path
         id="rect967-2-5-3-69-0-4-52-3-380-45-7-5-7-0"
         style="fill:#f5faff;fill-opacity:1;stroke-width:0.264583"
         d="m -619.35876,-262.64237 v 9.11366 h 9.11365 9.11366 9.11365 v -9.11366 h -9.11365 -9.11366 z" />
      <path
         id="rect967-2-5-3-69-0-4-52-3-380-45-7-5-7-3-9"
         style="fill:#b2b8c6;fill-opacity:1;stroke-width:0.264583"
         d="m -619.35875,-226.18739 v 9.11366 h 9.11365 9.11366 9.11365 v -9.11366 h -9.11365 -9.11366 z" />
      <rect
         style="fill:#f2f5ec;fill-opacity:1;stroke-width:0.793747"
         id="rect967-2-5-3-69-0-4-52-3-380-5-2-8-6-0-7-0-7-6-1-8-2"
         width="27.340969"
         height="27.341488"
         x="-564.67584"
         y="-253.52872" />
      <path
         id="rect967-2-5-3-69-0-4-52-3-380-45-7-5-7-0-4"
         style="fill:#f5faff;fill-opacity:1;stroke-width:0.264583"
         d="m -564.67582,-262.64237 v 9.11366 h 9.11365 9.11366 9.11365 v -9.11366 h -9.11365 -9.11366 z" />
      <path
         id="rect967-2-5-3-69-0-4-52-3-380-45-7-5-7-3-9-3"
         style="fill:#b2b8c6;fill-opacity:1;stroke-width:0.264583"
         d="m -564.67581,-226.18739 v 9.11366 h 9.11365 9.11366 9.11365 v -9.11366 h -9.11365 -9.11366 z" />
      <path
         id="rect967-2-5-3-69-0-4-52-3-380-45-7-5-3"
         style="fill:#f2f5ec;fill-opacity:1;stroke-width:0.37418"
         d="m -664.92737,-253.52861 v 27.34138 h 6.07577 6.07577 6.07577 v -27.34138 h -6.07577 -6.07577 z" />
      <path
         id="rect967-2-5-3-69-0-4-52-3-380-45-7-7"
         style="fill:#b2b8c6;fill-opacity:1;stroke-width:0.529165"
         d="m -674.04103,-253.52871 v 36.45514 h 9.11366 9.11365 9.11366 v -9.11366 h -9.11366 -9.11365 v -27.34148 z"
         sodipodi:nodetypes="cccccccccc" />
      <rect
         style="fill:#c6cfd8;fill-opacity:1;stroke-width:0.264583"
         id="rect967-2-5-3-69-0-4-52-3-380-45-2"
         width="9.1137505"
         height="9.1137505"
         x="-719.60986"
         y="-153.27737" />
      <rect
         style="fill:#c6cfd8;fill-opacity:1;stroke-width:0.264583"
         id="rect967-2-5-3-69-0-4-52-3-380-45-0"
         width="9.1137505"
         height="9.1137505"
         x="-719.60986"
         y="-135.04979" />
      <rect
         style="fill:#c6cfd8;fill-opacity:1;stroke-width:0.264583"
         id="rect967-2-5-3-69-0-4-52-3-380-45-29"
         width="9.1137505"
         height="9.1137505"
         x="-509.99329"
         y="-198.84616" />
      <rect
         style="fill:#c6cfd8;fill-opacity:1;stroke-width:0.264583"
         id="rect967-2-5-3-69-0-4-52-3-380-45-09"
         width="9.1137505"
         height="9.1137505"
         x="-509.99329"
         y="-153.27736" />
      <rect
         style="fill:#c6cfd8;fill-opacity:1;stroke-width:0.264583"
         id="rect967-2-5-3-69-0-4-52-3-380-45-9"
         width="9.1137505"
         height="9.1137505"
         x="-509.99353"
         y="-135.0498" />
      <path
         id="rect967-2-5-3-69-0-4-52-3-380-7-8-6-0"
         style="fill:#f2f5ec;fill-opacity:1;stroke-width:0.264583"
         d="m -664.92737,-189.7326 v 9.11417 9.11365 9.11366 9.11365 h 9.11365 v -9.11365 -9.11366 -9.11365 -9.11417 z" />
      <path
         id="rect967-2-5-3-69-0-4-52-3-380-7-8-6-0-79"
         style="fill:#f2f5ec;fill-opacity:1;stroke-width:0.264583"
         d="m -564.67568,-189.73251 v 9.11417 9.11365 9.11366 9.11365 h 9.11365 v -9.11365 -9.11366 -9.11365 -9.11417 z" />
      <rect
         style="fill:#26283d;fill-opacity:1;stroke-width:0.529164"
         id="rect967-2-5-3-69-0-4-52-3-380-5-6-5"
         width="9.1136875"
         height="36.454906"
         x="-674.04108"
         y="-189.73238" />
      <rect
         style="fill:#26283d;fill-opacity:1;stroke-width:0.529164"
         id="rect967-2-5-3-69-0-4-52-3-380-5-6-5-3"
         width="9.1136875"
         height="36.454906"
         x="-655.81372"
         y="-189.73224" />
      <rect
         style="fill:#26283d;fill-opacity:1;stroke-width:0.529164"
         id="rect967-2-5-3-69-0-4-52-3-380-5-6-5-38"
         width="9.1136875"
         height="36.454906"
         x="-573.78937"
         y="-189.73251" />
      <rect
         style="fill:#26283d;fill-opacity:1;stroke-width:0.529164"
         id="rect967-2-5-3-69-0-4-52-3-380-5-6-5-3-3"
         width="9.1136875"
         height="36.454906"
         x="-555.56201"
         y="-189.73238" />
      <rect
         style="fill:#c6cfd8;fill-opacity:1;stroke-width:0.264583"
         id="rect967-2-5-3-69-0-4-52-3-380-45-7"
         width="9.1137505"
         height="9.1137505"
         x="-674.04108"
         y="-262.64249" />
      <rect
         style="fill:#c6cfd8;fill-opacity:1;stroke-width:0.264583"
         id="rect967-2-5-3-69-0-4-52-3-380-45-7-2"
         width="9.1137505"
         height="9.1137505"
         x="-710.49622"
         y="-317.32474" />
      <rect
         style="fill:#777b83;fill-opacity:1;stroke-width:0.264583"
         id="rect967-2-5-3-69-0-4-52-3-380-45-7-2-1"
         width="9.1137505"
         height="9.1137505"
         x="-683.15521"
         y="-326.44" />
      <rect
         style="fill:#b2b8c6;fill-opacity:1;stroke-width:0.264583"
         id="rect967-2-5-3-69-0-4-52-3-380-45-7-2-2"
         width="9.1137505"
         height="9.1137505"
         x="-710.49615"
         y="-308.21124" />
      <rect
         style="fill:#b2b8c6;fill-opacity:1;stroke-width:0.264583"
         id="rect967-2-5-3-69-0-4-52-3-380-45-7-2-2-9"
         width="9.1137505"
         height="9.1137505"
         x="-701.38202"
         y="-299.0976" />
      <path
         id="rect967-2-5-3-69-0-4-52-3-380-45-7-2-2-9-7"
         style="fill:#b2b8c6;fill-opacity:1;stroke-width:0.264583"
         d="m -692.26886,-289.98333 v 9.11365 h 9.11418 9.11365 v -9.11365 h -9.11365 z" />
      <rect
         style="fill:#f5faff;fill-opacity:1;stroke-width:0.264583"
         id="rect967-2-5-3-69-0-4-52-3-380-45-7-2-2-9-7-5-6"
         width="9.1137505"
         height="9.1137505"
         x="-701.38257"
         y="-317.32483" />
      <path
         id="rect967-2-5-3-69-0-4-52-3-380-45-7-2-2-9-7-5-6-7"
         style="fill:#777b83;fill-opacity:1;stroke-width:0.264583"
         d="m -674.04051,-335.55368 v 9.11366 h 9.11365 9.11366 v -9.11366 h -9.11366 z" />
      <path
         id="rect967-2-5-3-69-0-4-52-3-380-45-7-2-2-9-7-5-6-6"
         style="fill:#f2f5ec;fill-opacity:1;stroke-width:0.264583"
         d="m -692.26886,-317.32482 v 9.11314 h -9.11365 v 9.11366 h 9.11365 9.11366 0.002 v 9.11365 h 9.11314 5.2e-4 9.11313 v -9.11365 h -9.11313 -5.2e-4 -5.2e-4 v -9.11366 h -9.11417 v -9.11314 z m 10e-4,18.22783 v 9.11366 h 9.11365 v -9.11366 z" />
      <rect
         style="fill:#777b83;fill-opacity:1;stroke-width:0.264583"
         id="rect967-2-5-3-69-0-4-52-3-380-45-7-2-1-9"
         width="9.1137505"
         height="9.1137505"
         x="-628.47375"
         y="-353.77991" />
      <path
         id="rect967-2-5-3-69-0-4-52-3-380-45-7-2-2-9-7-5-6-7-8"
         style="fill:#777b83;fill-opacity:1;stroke-width:0.264583"
         d="m -619.35902,-362.8936 v 9.11366 h 9.11365 9.11366 v -9.11366 h -9.11366 z" />
      <rect
         style="fill:#777b83;fill-opacity:1;stroke-width:0.264583"
         id="rect967-2-5-3-69-0-4-52-3-380-45-7-2-1-9-2"
         width="9.1137505"
         height="9.1137505"
         x="-573.79022"
         y="-381.12521" />
      <path
         id="rect967-2-5-3-69-0-4-52-3-380-45-7-2-2-9-7-5-6-7-8-2"
         style="fill:#777b83;fill-opacity:1;stroke-width:0.264583"
         d="m -564.67552,-390.23889 v 9.11366 h 9.11365 9.11366 v -9.11366 h -9.11366 z" />
      <rect
         style="fill:#f5faff;fill-opacity:1;stroke-width:0.264583"
         id="rect967-2-5-3-69-0-4-52-3-380-45-7-2-2-9-7-5-6-4"
         width="9.1137505"
         height="9.1137505"
         x="-692.26886"
         y="-326.43851" />
      <path
         id="rect967-2-5-3-69-0-4-52-3-380-45-7-71"
         style="fill:#494e61;fill-opacity:1;stroke-width:0.264583"
         d="m -737.83765,-308.21116 v 91.13759 h 27.34097 5.1e-4 27.34149 v -63.79611 h -27.34149 v -5.1e-4 h 9.11366 5.2e-4 9.11313 v -9.11366 h -9.11313 v -9.11366 h -9.11418 v -9.11365 z" />
      <rect
         style="fill:#f2f5ec;fill-opacity:1;stroke-width:0.648083"
         id="rect967-2-5-3-69-0-4-52-3-380-5-2-8-6-0-7-0-7-6-1-8-2-2"
         width="18.226896"
         height="27.341381"
         x="-509.99283"
         y="-253.52861" />
      <path
         id="rect967-2-5-3-69-0-4-52-3-380-45-7-5-7-0-4-1"
         style="fill:#f5faff;fill-opacity:1;stroke-width:0.21603"
         d="m -509.99279,-262.64237 v 9.11376 h 6.07562 6.07562 6.07562 v -9.11376 h -6.07562 -6.07562 z" />
      <path
         id="rect967-2-5-3-69-0-4-52-3-380-45-7-5-7-3-9-3-7"
         style="fill:#b2b8c6;fill-opacity:1;stroke-width:0.264583"
         d="m -491.76585,-253.52871 v 27.34148 h -9.11314 -9.11365 v 9.11366 h 9.11365 9.11366 9.11365 v -9.11366 h -5.1e-4 v -27.34148 z" />
      <rect
         style="fill:#c6cfd8;fill-opacity:1;stroke-width:0.264583"
         id="rect967-2-5-3-69-0-4-52-3-380-45-7-51"
         width="9.1137505"
         height="9.1137505"
         x="-491.76593"
         y="-262.64236" />
      <path
         id="rect967-2-5-3-69-0-4-52-3-380-45-7-51-3"
         style="fill:#f2f5ec;fill-opacity:1;stroke-width:0.264583"
         d="m -528.22099,-399.35288 v 9.11313 h -9.11365 v 0.001 h -9.11366 v 18.22731 h 9.11366 v -9.11469 h 9.11365 9.11366 0.002 v 9.11366 h 9.11314 5.2e-4 9.11314 v -9.11366 h -9.11314 -5.2e-4 -5.1e-4 v -0.002 h 9.11314 v -9.11365 -9.11107 h -9.11366 -9.11366 z m -9.11262,18.22782 v 18.22783 h 9.11366 v -5.2e-4 h 18.22627 v -9.11313 h -18.22627 v -5.2e-4 h 9.11365 v -9.11366 h -9.11365 z" />
      <path
         id="rect967-2-5-3-69-0-4-52-3-380-45-7-5-7-3-7"
         style="fill:#26283d;fill-opacity:1;stroke-width:0.374181"
         d="m -737.83765,-235.3014 v 9.11417 9.11366 h 18.22783 18.22731 18.22731 v -9.11366 -9.11417 h -9.11366 v 9.11417 h -9.11365 -18.22731 -9.11366 v -9.11417 z" />
      <path
         id="rect967-2-5-3-69-0-4-52-3-380-793-0-1-6"
         style="fill:#0d1021;fill-opacity:1;stroke-width:0.264583"
         d="m -619.35836,-372.00828 v 9.11365 h 9.11366 9.11365 v -9.11365 h -9.11365 z" />
      <path
         id="rect967-2-5-3-69-0-4-52-3-380-793-0-1-6-6"
         style="fill:#0d1021;fill-opacity:1;stroke-width:0.264583"
         d="m -582.90302,-335.55222 v 9.11365 h 9.11366 9.11365 v -9.11365 h -9.11365 z" />
      <path
         id="rect967-2-5-3-69-0-4-52-3-380-45-7-5-2"
         style="fill:#f2f5ec;fill-opacity:1;stroke-width:0.216033"
         d="m -719.61011,-271.756 v 9.11368 h 6.07589 6.07589 6.07588 v -9.11368 h -6.07588 -6.07589 z" />
      <path
         id="rect967-2-5-3-69-0-4-52-3-380-45-7-5-2-1"
         style="fill:#b2b8c6;fill-opacity:1;stroke-width:0.216033"
         d="m -719.61011,-262.64236 v 9.11366 h 6.07589 6.07589 6.07588 v -9.11366 h -6.07588 -6.07589 z" />
      <path
         id="rect967-2-5-3-69-0-4-52-3-380-45-7-5-2-1-9"
         style="fill:#26283d;fill-opacity:1;stroke-width:0.216033"
         d="m -719.61011,-253.52838 v 9.11366 h 6.07589 6.07589 6.07588 v -9.11366 h -6.07588 -6.07589 z" />
      <path
         id="rect967-2-5-3-69-0-4-52-3-380-45-7-5-2-1-9-6"
         style="fill:#26283d;fill-opacity:1;stroke-width:0.216033"
         d="m -728.72376,-253.52838 h 9.11365 v -6.07589 -6.07589 -6.07588 h -9.11365 v 6.07588 6.07589 z"
         inkscape:transform-center-x="-13.240331"
         inkscape:transform-center-y="9.4873625" />
      <path
         id="rect967-2-5-3-69-0-4-52-3-380-45-7-5-7-1"
         style="fill:#777b83;fill-opacity:1;stroke-width:0.216034"
         d="m -719.61011,-280.8697 v 9.1137 h 6.07588 6.0759 6.07588 v -9.1137 h -6.07588 -6.0759 z" />
      <rect
         style="fill:#26283d;fill-opacity:1;stroke-width:0.264583"
         id="rect967-2-5-3-69-0-4-52-3-380-45-7-0"
         width="9.1137505"
         height="9.1137505"
         x="-692.26862"
         y="-280.86972" />
      <path
         id="rect967-2-5-3-69-0-4-52-3-380-45-7-2-9"
         style="fill:#f5faff;fill-opacity:1;stroke-width:0.264583"
         d="m -655.8132,-344.66682 v 9.11418 h 9.11366 v -5.2e-4 h 9.11365 v -9.11366 h -9.11365 z" />
      <path
         id="rect967-2-5-3-69-0-4-52-3-380-45-7-2-2-9-7-5-6-6-5"
         style="fill:#f2f5ec;fill-opacity:1;stroke-width:0.264583"
         d="m -637.58589,-344.66682 v 9.11314 h -9.11365 v 10e-4 h -9.11366 v 18.22731 h 9.11366 v -9.11469 h 9.11365 9.11366 0.002 v 9.11365 h 9.11314 5.2e-4 9.11314 v -9.11365 h -9.11314 -5.2e-4 -5.1e-4 v -9.11366 h -9.11418 v -9.11314 z m -9.11262,18.22783 v 18.22783 h 9.11365 v -5.2e-4 h 18.22628 v -9.11314 h -18.22628 v -5.1e-4 h 9.11366 v -9.11366 h -9.11366 z" />
      <rect
         style="fill:#f5faff;fill-opacity:1;stroke-width:0.264583"
         id="rect967-2-5-3-69-0-4-52-3-380-45-7-2-2-9-7-5-6-4-4"
         width="9.1137505"
         height="9.1137505"
         x="-637.58582"
         y="-353.78033" />
      <path
         id="rect967-2-5-3-69-0-4-52-3-380-45-7-2-9-8"
         style="fill:#f5faff;fill-opacity:1;stroke-width:0.264583"
         d="m -601.13136,-372.00788 v 9.11418 h 9.11366 v -5.2e-4 h 9.11365 v -9.11366 h -9.11365 z" />
      <path
         id="rect967-2-5-3-69-0-4-52-3-380-45-7-2-2-9-7-5-6-6-5-5"
         style="fill:#f2f5ec;fill-opacity:1;stroke-width:0.264583"
         d="m -582.90405,-372.00788 v 9.11314 h -9.11365 v 0.001 h -9.11366 v 18.22731 h 9.11366 v -9.11469 h 9.11365 9.11366 0.002 v 9.11365 h 9.11314 5.2e-4 9.11314 v -9.11365 h -9.11314 -5.2e-4 -5.1e-4 v -9.11366 h -9.11418 v -9.11314 z m -9.11262,18.22783 v 18.22783 h 9.11365 v -5.2e-4 h 18.22628 v -9.11314 h -18.22628 v -5.1e-4 h 9.11366 v -9.11366 h -9.11366 z" />
      <rect
         style="fill:#f5faff;fill-opacity:1;stroke-width:0.264583"
         id="rect967-2-5-3-69-0-4-52-3-380-45-7-2-2-9-7-5-6-4-4-2"
         width="9.1137505"
         height="9.1137505"
         x="-582.90399"
         y="-381.1214" />
      <path
         id="rect967-2-5-3-69-0-4-52-3-380-45-7-2-9-8-0"
         style="fill:#f5faff;fill-opacity:1;stroke-width:0.264583"
         d="m -546.44809,-399.35304 v 9.11418 h 9.11366 v -5.2e-4 h 9.11365 v -9.11366 h -9.11365 z" />
      <path
         id="rect967-2-5-3-69-0-4-52-3-380-45-7-2-9-8-0-6"
         style="fill:#c6cfd8;fill-opacity:1;stroke-width:0.264583"
         d="m -528.22094,-408.46357 v 9.11418 h 9.11366 v -5.2e-4 h 9.11365 v -9.11366 h -9.11365 z" />
      <path
         id="rect967-2-5-3-69-0-4-52-3-380-45-7-2-2-9-7-5-6-6-6"
         style="fill:#494e61;fill-opacity:1;stroke-width:0.264583"
         d="m -664.92729,-326.43799 v 9.11365 h -5.1e-4 v -9.11314 h -9.11417 v 9.11314 h -9.11366 v 9.11366 h 9.11366 9.11365 0.002 v 9.11365 h 9.11314 5.1e-4 9.11263 v 0.002 h 9.11365 v -9.11365 h -9.11314 v -0.002 h 9.11314 v -9.11366 h -9.11365 -0.001 v -9.11365 h -9.11262 -10e-4 z m -9.11365,18.22834 v 9.11366 h 9.11365 v -9.11366 z m 9.11262,9.11417 v 9.11366 h 9.11417 v -9.11366 z" />
      <path
         id="rect967-2-5-3-69-0-4-52-3-380-45-7-2-2-9-7-5-6-6-6-4"
         style="fill:#494e61;fill-opacity:1;stroke-width:0.264583"
         d="m -610.24389,-353.78202 v 9.11365 h -5.1e-4 v -9.11314 h -9.11417 v 9.11314 h -9.11366 v 9.11366 h 9.11366 9.11365 0.002 v 9.11365 h 9.11314 5.1e-4 9.11263 v 0.002 h 9.11365 v -9.11365 h -9.11314 v -0.002 h 9.11314 v -9.11366 h -9.11365 -10e-4 v -9.11365 h -9.11262 -10e-4 z m -9.11365,18.22834 v 9.11366 h 9.11365 v -9.11366 z m 9.11262,9.11417 v 9.11366 h 9.11417 v -9.11366 z" />
      <path
         id="rect967-2-5-3-69-0-4-52-3-380-45-7-2-2-9-7-5-6-6-6-4-3"
         style="fill:#494e61;fill-opacity:1;stroke-width:0.264583"
         d="m -555.56108,-381.12209 v 9.11365 h -5.1e-4 v -9.11314 h -9.11417 v 9.11314 h -9.11366 v 9.11366 h 9.11366 9.11365 0.002 v 9.11365 h 9.11314 5.1e-4 9.11263 v 0.002 h 9.11365 v -9.11365 h -9.11314 v -0.002 h 9.11314 v -9.11366 h -9.11365 -10e-4 v -9.11365 h -9.11262 -10e-4 z m -9.11365,18.22834 v 9.11366 h 9.11365 v -9.11366 z m 9.11262,9.11417 v 9.11366 h 9.11416 v -9.11366 z" />
      <path
         id="rect967-2-5-3-69-0-4-52-3-380-45-7-2-2-9-7-9"
         style="fill:#b2b8c6;fill-opacity:1;stroke-width:0.264583"
         d="m -528.22091,-372.00843 v 9.11365 h 9.11418 9.11365 v -9.11365 h -9.11365 z" />
      <path
         id="rect967-2-5-3-69-0-4-52-3-380-45-7-2-2-9-7-9-7"
         style="fill:#b2b8c6;fill-opacity:1;stroke-width:0.324045"
         d="m -509.99363,-399.34939 v 27.33696 h 4.55771 4.55745 v -27.33696 h -4.55745 z" />
    </g>
  </g>
</svg>
