<svg width="145" height="120" viewBox="0 0 38.365 31.75" xmlns="http://www.w3.org/2000/svg"><path style="fill:#396a8b;fill-opacity:1;stroke-width:4.09889" d="M-238.617-126.962h182.274v109.365h-182.274z" transform="translate(40.777 28.46)scale(.14642)"/><path style="fill:#1a2b3d;fill-opacity:1;stroke-width:.264583" d="M-229.503-154.303v18.227h-9.114v9.114h63.796v-18.228h-9.114v9.114h-9.113v-18.227h-27.342zm9.113 9.113h18.228v9.114h-18.228zm-27.34 18.228v109.365h9.113v-18.228h9.114v-9.113h-9.114v-36.455h9.114v-9.114h-9.114v-36.455zm27.34 9.114v9.114h27.342v-9.114h-18.228z" transform="translate(40.777 28.46)scale(.14642)"/><path style="fill:#9cc1d4;fill-opacity:1;stroke-width:.264583" d="M-238.617-126.962v18.228h9.114v-18.228z" transform="translate(40.777 28.46)scale(.14642)"/><path style="fill:#85b2c9;fill-opacity:1;stroke-width:.264583" d="M-238.617-108.734v18.227h9.114v-18.227z" transform="translate(40.777 28.46)scale(.14642)"/><path style="fill:#9cc1d4;fill-opacity:1;stroke-width:.264583" d="M-65.456-126.962v18.228h9.114v-18.228z" transform="translate(40.777 28.46)scale(.14642)"/><path style="fill:#85b2c9;fill-opacity:1;stroke-width:.748353" d="M-156.593-90.507v36.455h36.454v-36.455z" transform="translate(40.777 28.46)scale(.14642)"/><path style="fill:#85b2c9;fill-opacity:1;stroke-width:.264583" d="M-65.456-108.734v18.227h9.114v-18.227z" transform="translate(40.777 28.46)scale(.14642)"/><path style="fill:#85b2c9;fill-opacity:1;stroke-width:.374178" d="M-229.503-81.393v36.455h9.113v-36.455z" transform="translate(40.777 28.46)scale(.14642)"/><path style="fill:#517f99;fill-opacity:1;stroke-width:.305517" d="M-214.314-81.393h-6.076v36.455h18.228v-36.455h-6.076z" transform="translate(40.777 28.46)scale(.14642)"/><path style="fill:#517f99;fill-opacity:1;stroke-width:.187085" d="M-211.276-35.825h-9.114v9.114h27.341v-9.114h-9.113z" transform="translate(40.777 28.46)scale(.14642)"/><path style="fill:#517f99;fill-opacity:1;stroke-width:.374178" d="M-74.57-81.393v36.455h9.114v-36.455z" transform="translate(40.777 28.46)scale(.14642)"/><path style="fill:#396a8b;fill-opacity:1;stroke-width:.264583" d="M-238.617-35.825h9.114v9.114h-9.114zM-229.503-44.938h9.114v9.114h-9.114zM-229.503-90.507h9.114v9.114h-9.114zM-165.707-54.052h9.114v9.114h-9.114zM-120.139-54.052h9.114v9.114h-9.114z" transform="translate(40.777 28.46)scale(.14642)"/><path style="fill:#517f99;fill-opacity:1;stroke-width:.482638" d="M-120.139-81.393h10.109v27.341h-10.109z" transform="translate(40.777 28.46)scale(.14642)"/><path style="fill:#517f99;fill-opacity:1;stroke-width:.264583" d="M-165.707-63.165h9.114v9.114h-9.114z" transform="translate(40.777 28.46)scale(.14642)"/><path style="fill:#517f99;fill-opacity:1;stroke-width:.529188" d="M-156.593-54.052h36.455v9.115h-36.455z" transform="translate(40.777 28.46)scale(.14642)"/><path style="fill:#396a8b;fill-opacity:1;stroke-width:.529177" d="M-156.594-44.939h36.455v9.114h-36.455z" transform="translate(40.777 28.46)scale(.14642)"/><path style="fill:#396a8b;fill-opacity:1;stroke-width:.264583" d="M-202.163-35.825h9.114v9.114h-9.114z" transform="translate(40.777 28.46)scale(.14642)"/><path style="fill:#396a8b;fill-opacity:1;stroke-width:.529165" d="M-156.593-136.076h36.455v9.114h-36.455z" transform="translate(40.777 28.46)scale(.14642)"/><path style="fill:#fdfffe;fill-opacity:1;stroke-width:.264583" d="M-229.503-126.962v9.113h36.455v-9.113zm0 9.114v9.114h9.113v-9.114z" transform="translate(40.777 28.46)scale(.14642)"/><path style="fill:#396a8b;fill-opacity:1;stroke-width:.264583" d="M-220.39-145.19h9.114v9.114h-9.114z" transform="translate(40.777 28.46)scale(.14642)"/><path style="fill:#85b2c9;fill-opacity:1;stroke-width:.264583" d="M-238.617-26.711h9.114v9.114h-9.114z" transform="translate(40.777 28.46)scale(.14642)"/><path style="fill:#396a8b;fill-opacity:1;stroke-width:.264583" d="M-65.456-35.824h9.114v9.114h-9.114z" transform="translate(40.777 28.46)scale(.14642)"/><path style="fill:#85b2c9;fill-opacity:1;stroke-width:.264583" d="M-65.456-26.711h9.114v9.114h-9.114z" transform="translate(40.777 28.46)scale(.14642)"/><path style="fill:#517f99;fill-opacity:1;stroke-width:.458296" d="M-92.797-35.826h27.341v9.115h-27.341z" transform="translate(40.777 28.46)scale(.14642)"/><path style="fill:#85b2c9;fill-opacity:1;stroke-width:.264583" d="M-229.503-35.825h9.114v9.114h-9.114zM-211.276-145.189h9.114v9.114h-9.114z" transform="translate(40.777 28.46)scale(.14642)"/><path style="fill:#fdfffe;fill-opacity:1;stroke-width:.264583" d="M-156.594-90.507v9.113h-9.113v9.114h27.341v-9.114h-9.114v-9.113zm0 18.228v9.113h9.114v-9.113z" transform="translate(40.777 28.46)scale(.14642)"/><path style="fill:#85b2c9;fill-opacity:1;stroke-width:.264583" d="M-174.821-136.076h9.114v9.114h-9.114z" transform="translate(40.777 28.46)scale(.14642)"/><path style="fill:#9cc1d4;fill-opacity:1;stroke-width:.264583" d="M-165.707-72.279h9.114v9.114h-9.114zM-156.593-63.165h9.114v9.114h-9.114zM-147.48-72.28h9.114v9.114h-9.114z" transform="translate(40.777 28.46)scale(.14642)"/><path style="fill:#9cc1d4;fill-opacity:1;stroke-width:.264583" d="M-138.366-81.393h9.114v9.114h-9.114zM-147.48-90.507h9.114v9.114h-9.114z" transform="translate(40.777 28.46)scale(.14642)"/><path style="fill:#85b2c9;fill-opacity:1;stroke-width:.264583" d="M-193.048-126.962h9.114v9.114h-9.114z" transform="translate(40.777 28.46)scale(.14642)"/><path style="fill:#c6dbde;fill-opacity:1;stroke-width:.264583" d="M-165.707-136.076v9.114h-18.228v9.113h-9.113v9.114h9.113-45.568v18.227h45.568v-9.114h9.114v-9.113h9.114v-9.114h54.682v9.114h18.228v9.114h18.23v9.114h9.114v-9.113h-.003v-9.114h-18.227v-9.115h-9.114v-9.113h-18.228v-9.114h-9.113v9.114h-36.456v-9.114zm82.025 36.457v9.114h9.113v-9.114z" transform="translate(40.777 28.46)scale(.14642)"/><path style="fill:#fdfffe;fill-opacity:1;stroke-width:.374173" d="M-83.683-126.962h18.227v9.114h-18.227z" transform="translate(40.777 28.46)scale(.14642)"/><path style="fill:#c6dbde;fill-opacity:1;stroke-width:.64809" d="M-229.503-26.711h54.682v9.114h-54.682z" transform="translate(40.777 28.46)scale(.14642)"/><path style="fill:#c6dbde;fill-opacity:1;stroke-width:.648088" d="M-165.707-26.711h54.682v9.114h-54.682z" transform="translate(40.777 28.46)scale(.14642)"/><path style="fill:#c6dbde;fill-opacity:1;stroke-width:.529165" d="M-101.911-26.711h36.455v9.114h-36.455z" transform="translate(40.777 28.46)scale(.14642)"/><path style="fill:#85b2c9;fill-opacity:1;stroke-width:.264583" d="M-111.025-136.076h9.114v9.114h-9.114z" transform="translate(40.777 28.46)scale(.14642)"/><path style="fill:#fdfffe;fill-opacity:1;stroke-width:.591624" d="M-165.707-154.303v9.113h-9.114v9.114h63.796v-9.114h-9.113v-9.113z" transform="translate(40.777 28.46)scale(.14642)"/><path style="fill:#85b2c9;fill-opacity:1;stroke-width:.264583" d="M-83.683-145.19h9.114v9.114h-9.114z" transform="translate(40.777 28.46)scale(.14642)"/><path style="fill:#c6dbde;fill-opacity:1;stroke-width:.529106" d="M-156.593-145.188h36.455v9.112h-36.455z" transform="translate(40.777 28.46)scale(.14642)"/><path style="fill:#35678a;fill-opacity:1;stroke-width:.529166" d="M-238.617-81.393h9.114v36.455h-9.114zM-65.456-81.393h9.114v36.455h-9.114zM-83.683-81.393h9.114v36.455h-9.114zM-202.162-81.393h9.114v36.455h-9.114z" transform="translate(40.777 28.46)scale(.14642)"/><path style="fill:#1a2b3d;fill-opacity:1;stroke-width:.264583" d="M-174.821-154.303h9.114v9.114h-9.114zM-165.707-163.417v9.114h45.569v-9.114h-36.455zM-120.138-154.303h9.114v9.114h-9.114z" transform="translate(40.777 28.46)scale(.14642)"/><path style="fill:#1a2b3d;fill-opacity:1;stroke-width:.264583" d="M-111.025-145.19h9.114v9.114h-9.114zM-56.342-126.962v36.455h-27.34v-9.112h-9.114v36.453h9.113v-18.227h27.341v36.455h-27.341v-18.228h-9.113v27.34h9.113-9.113v9.114h9.113v-9.113h27.341v18.228h9.114v-109.365zm0 109.365h-36.455v-18.227h-9.114v9.113h-9.114v9.114h-54.682v-9.114h-18.226v9.114h-54.684v9.114h182.275zM-174.82-117.849v9.114h-9.115v9.114h18.228v-9.114h54.682v9.114h9.114v9.114h9.114v-18.228h-9.114v-9.114h-63.795zm-18.23 18.229v9.113h9.114v-9.113zm9.114 0v9.114h9.114v-9.114zm0 9.114h-36.455v9.114h27.342v27.34h9.113v-27.34zm-9.113 36.455v9.114h-27.342v9.113h27.341v9.114h9.114v-18.227h.001v-9.114zm9.113 18.227v9.114h9.114v-9.114z" transform="translate(40.777 28.46)scale(.14642)"/><path style="fill:#1a2b3d;fill-opacity:1;stroke-width:.264583" d="M-92.797-154.303v18.227h-9.114v9.114h45.569v-9.114h-9.114v-18.227h-18.227zm9.114 9.113h9.113v9.114h-9.113z" transform="translate(40.777 28.46)scale(.14642)"/><path style="fill:#85b2c9;fill-opacity:1;stroke-width:.264583" d="M-92.797-126.962h9.114v9.114h-9.114z" transform="translate(40.777 28.46)scale(.14642)"/><path style="fill:#85b2c9;fill-opacity:1;stroke-width:.374188" d="M-83.683-117.849h18.227v9.114h-18.227z" transform="translate(40.777 28.46)scale(.14642)"/><path style="fill:#c6dbde;fill-opacity:1;stroke-width:.264583" d="M-174.82-35.825h9.114v9.114h-9.114z" transform="translate(40.777 28.46)scale(.14642)"/><path style="fill:#c6dbde;fill-opacity:1;stroke-width:.648092" d="M-183.935-90.507h9.114v54.683h-9.114zM-165.707-108.735h54.682v9.114h-54.682z" transform="translate(40.777 28.46)scale(.14642)"/><path style="fill:#c6dbde;fill-opacity:1;stroke-width:.264583" d="M-111.025-35.824h9.114v9.114h-9.114z" transform="translate(40.777 28.46)scale(.14642)"/><path style="fill:#c6dbde;fill-opacity:1;stroke-width:.648102" d="M-101.911-90.507h9.114v54.684h-9.114z" transform="translate(40.777 28.46)scale(.14642)"/><path style="fill:#c6dbde;fill-opacity:1;stroke-width:.264583" d="M-111.025-99.621h9.114v9.114h-9.114zM-174.821-99.621h9.114v9.114h-9.114z" transform="translate(40.777 28.46)scale(.14642)"/><path style="fill:#fdfffe;fill-opacity:1;stroke-width:.264581" d="M-174.821-99.621h9.114v9.114h-9.114z" transform="translate(40.777 28.46)scale(.14642)"/><path style="fill:#1a2b3d;fill-opacity:1;stroke-width:.648063" d="M-165.707-99.62v9.112h54.682v-9.113zm0 9.112h-9.113v54.683h18.226v-9.113h-9.113v-36.455h9.113v-9.114zm45.568 0v9.115h9.114v-9.114zm9.115 0v54.684h9.113v-54.683zm-9.115 45.57v9.113h9.114v-9.114zm-45.567 9.114v9.113h54.681v-9.113z" transform="translate(40.777 28.46)scale(.14642)"/><path style="fill:#fdfffe;fill-opacity:1;stroke-width:.648092" d="M-165.707-108.735h54.682v9.114h-54.682z" transform="translate(40.777 28.46)scale(.14642)"/></svg>
