<?xml version="1.0" encoding="UTF-8" standalone="no"?>
<!-- Created with Inkscape (http://www.inkscape.org/) -->

<svg
   width="38.364582mm"
   height="31.75mm"
   viewBox="0 0 38.364582 31.75"
   version="1.1"
   id="svg362666"
   inkscape:version="1.2.2 (b0a8486541, 2022-12-01)"
   sodipodi:docname="stand-seo.svg"
   xmlns:inkscape="http://www.inkscape.org/namespaces/inkscape"
   xmlns:sodipodi="http://sodipodi.sourceforge.net/DTD/sodipodi-0.dtd"
   xmlns="http://www.w3.org/2000/svg"
   xmlns:svg="http://www.w3.org/2000/svg">
  <sodipodi:namedview
     id="namedview362668"
     pagecolor="#ffffff"
     bordercolor="#000000"
     borderopacity="0.25"
     inkscape:showpageshadow="2"
     inkscape:pageopacity="0.0"
     inkscape:pagecheckerboard="0"
     inkscape:deskcolor="#d1d1d1"
     inkscape:document-units="mm"
     showgrid="false"
     inkscape:zoom="2.9647587"
     inkscape:cx="24.285282"
     inkscape:cy="98.321661"
     inkscape:window-width="1920"
     inkscape:window-height="1001"
     inkscape:window-x="0"
     inkscape:window-y="0"
     inkscape:window-maximized="1"
     inkscape:current-layer="layer1" />
  <defs
     id="defs362663" />
  <g
     inkscape:label="Layer 1"
     inkscape:groupmode="layer"
     id="layer1"
     transform="translate(-51.141346,-62.921265)">
    <g
       id="g22481"
       transform="matrix(0.06401653,0,0,0.06401653,91.053156,66.893333)">
      <path
         id="rect967-2-5-3-69-3-2-34-3-9-7"
         style="fill:#fbbd00;fill-opacity:1;stroke-width:3.32449"
         d="m -204.71317,50.95309 v 31.760852 h -31.76188 V 289.15663 h 31.76137 v 31.76086 h 95.28152 v -31.76086 h 31.760331 V 82.713942 H -109.43165 V 50.95309 Z m 31.75982,63.52119 h 31.75982 V 257.3963 h -31.75982 z" />
      <path
         id="rect967-2-5-3-69-3-6-7-5-3-5-6-2-9-1-2-7-0-9-3-6-0-6-2-6-1-8-7-9-2-0-2-3-7-5-9-2-2-8-9-7-3-6-1-2-9-3-1-2-85-5-9-9-0"
         style="fill:#4086f4;fill-opacity:1;stroke-width:2.25055"
         d="m -538.1383,67.328379 v 15.880684 h -15.88069 v 15.880173 h -30.66169 v 76.294044 h 38.60178 v 28.99203 h 31.76085 v 12.26178 h 30.95056 v 57.13398 h -23.00996 v -25.15298 h -15.8812 v -19.33216 h -49.25953 v 60.36531 h 17.49919 v 13.69219 h 3.56568 v 14.96136 h 107.59601 v -28.99048 h 23.01048 v -94.60766 h -23.01048 v -16.21658 h -31.76085 V 162.6099 146.72973 h -46.54186 v -5.28856 h 4.33513 V 114.9694 h 42.20673 v 25.37364 h 58.0564 V 83.209063 h -26.29607 V 67.328379 Z" />
      <path
         id="rect967-2-5-3-69-3-6-7-5-3-5-6-2-9-1-2-7-0-9-3-6-0-6-2-6-1-8-7-9-2-0-2-3-7-5-9-2-2-8-9-7-3-6-1-2-9-3-1-2-85-5-9-4-0"
         style="fill:#eb4132;fill-opacity:1;stroke-width:3.58447"
         d="m -377.79521,60.792236 v 6.041492 h -17.4811 V 314.37107 h 15.88017 v 0.67644 h 116.69003 v -61.62207 h -70.98481 v -36.67942 h 60.28004 v -61.62208 h -60.28004 v -32.70963 h 72.58626 V 60.792236 Z" />
      <rect
         style="fill:#1a2b3d;fill-opacity:1;stroke-width:0.461021"
         id="rect967-2-5-3-69-3"
         width="15.880188"
         height="15.880188"
         x="-442.91708"
         y="66.833435" />
      <path
         id="rect967-2-5-3-69-3-7"
         style="fill:#1a2b3d;fill-opacity:1;stroke-width:0.461021"
         d="m -395.27665,50.953479 v 15.880168 h 79.40084 15.88017 15.88017 15.88016 v 47.640503 h -15.88016 -15.88017 -15.88017 -15.88017 -15.88017 v 15.88017 15.88016 15.88017 h 15.88017 15.88017 15.88017 15.88017 v 47.64051 h -15.88017 -15.88017 -15.88017 -15.88017 v 15.88016 15.88017 15.88017 h 15.88017 15.88017 15.88017 15.88017 15.88016 v 47.64102 h -15.88016 -15.88017 -15.88017 v -5.2e-4 h -79.40084 V 66.833647 h -15.88017 v 15.880167 h -15.88016 v 15.880168 15.880168 15.88017 h -15.88017 -15.88017 v -15.88017 h -15.88017 V 98.593982 h -15.88016 -15.88017 v 15.880168 h -15.88017 v 15.88017 15.88016 h 15.88017 v -15.88016 h 15.88017 15.88016 v 15.88016 h 15.88017 15.88017 15.88017 15.88016 v 47.64051 h -15.88016 v 15.88017 15.88016 15.88017 15.88017 15.88017 15.88016 h 15.88016 v 31.76034 h 15.88017 79.40084 v 5.2e-4 h 15.88017 15.88017 15.88016 15.88017 v -47.64051 h 15.88017 V 98.593982 h -15.88017 V 50.953479 h -15.88017 -15.88016 -15.88017 -15.88017 z m 63.52067,79.400841 h 15.88017 15.88017 15.88017 15.88016 15.88017 v 111.16117 h -15.88017 -15.88016 -15.88017 -15.88017 -15.88017 v -15.88017 h 15.88017 15.88017 15.88017 15.88016 v -79.40084 h -15.88016 -15.88017 -15.88017 -15.88017 z" />
      <path
         id="rect967-2-5-3-69-3-6-7-5-3-5-6-2-9-1-2-7-0-9-3-6-0-6-2-6-1-8-7-9-2-0-2-3-7-5-9-2-2-8-9-7-3-6-1-2-9-3-1-9-4-7-8-4-5-4-84-90-9-76"
         style="fill:#4086f4;fill-opacity:1;stroke-width:0.461021"
         d="m -442.91706,82.713742 v 15.88017 h -15.88017 v 15.880168 h 15.88017 15.88016 V 98.593912 82.713742 Z" />
      <path
         id="rect967-2-5-3-69-3-6-7-5-3-5-6-2-9-1-2-7-0-9-3-6-0-6-2-6-1-8-7-9-2-0-2-3-7-5-9-2-2-8-9-7-3-6-1-2-9-3-1-9-4-7-8-4-5-37-15"
         style="fill:#1a2b3d;fill-opacity:1;stroke-width:0.461021"
         d="m -538.19807,50.953412 v 15.88016 h 15.88017 15.88017 15.88016 15.88017 15.88017 15.88017 v -15.88016 h -15.88017 -15.88017 -15.88017 -15.88016 -15.88017 z" />
      <rect
         style="fill:#1a2b3d;fill-opacity:1;stroke-width:0.461021"
         id="rect967-2-5-3-69-3-6-7-5-3-5-6"
         width="15.880188"
         height="15.880188"
         x="-569.95856"
         y="82.713623" />
      <rect
         style="fill:#1a2b3d;fill-opacity:1;stroke-width:0.461021"
         id="rect967-2-5-3-69-3-6-7-5-3-5-6-9"
         width="15.880188"
         height="15.880188"
         x="-554.07837"
         y="66.833435" />
      <path
         id="rect967-2-5-3-69-3-6-7-5-3-5-6-2"
         style="fill:#1a2b3d;fill-opacity:1;stroke-width:0.461021"
         d="m -585.83857,98.593912 v 15.880168 15.88017 15.88016 15.88017 15.88017 h 15.88017 v 15.88017 h 15.88016 v 15.88016 h 15.88017 15.88017 v 15.88017 h 15.88017 15.88016 v 15.88017 15.88017 h -15.88016 v 15.88016 h 15.88016 15.88017 v -15.88016 -15.88017 -15.88017 -15.88017 h -15.88017 -15.88016 v -15.88016 h -15.88017 -15.88017 v -15.88017 h -15.88017 V 162.11458 H -569.9584 V 146.23441 130.35425 114.47408 98.593912 Z" />
      <rect
         style="fill:#1a2b3d;fill-opacity:1;stroke-width:0.461021"
         id="rect967-2-5-3-69-3-6-7-5-3-5-6-2-9-1-2-7-0-9-3-6-0-6-2-6-1-8-7-9-2-0"
         width="15.880188"
         height="15.880188"
         x="-522.31799"
         y="241.51549" />
      <path
         id="rect967-2-5-3-69-3-6-7-5-3-5-6-2-9-1-2-7-0-9-3-6-0-6-2-6-1-8-7-9-2-0-3-7"
         style="fill:#bf2113;fill-opacity:1;stroke-width:1.78552"
         d="M -395.27656,66.833572 V 305.03609 h 15.88017 v 5.2e-4 h 111.16117 V 289.15644 H -379.39639 V 66.833572 Z" />
      <path
         id="rect967-2-5-3-69-3-6-7-5-3-5-6-2-9-1-2-7-0-9-3-6-0-6-2-6-1-8-7-9-2-0-2"
         style="fill:#1a2b3d;fill-opacity:1;stroke-width:0.461021"
         d="m -585.83857,225.63525 v 15.88017 15.88017 15.88016 15.88017 h 15.88017 v 15.88017 h 15.88016 v 15.88017 h 15.88017 15.88017 15.88017 15.88016 15.88017 15.88017 15.88017 v -15.88017 h -15.88017 -15.88017 -15.88017 -15.88016 -15.88017 -15.88017 v -15.88017 h -15.88017 v -15.88017 h -15.88016 v -15.88016 -15.88017 h 15.88016 15.88017 15.88017 v -15.88017 h -15.88017 -15.88017 -15.88016 z" />
      <rect
         style="fill:#1a2b3d;fill-opacity:1;stroke-width:0.461021"
         id="rect967-2-5-3-69-3-6-7-5-3-5-6-2-9-1-2-7-0-9-3-6-0-6-2-6-1-8-7-9-2-0-2-3-7-5-9-2-2-8-9-7-3-6-1-2-9-3-1"
         width="15.880188"
         height="15.880188"
         x="-442.91708"
         y="289.15604" />
      <rect
         style="fill:#0c51bf;fill-opacity:1;stroke-width:0.651982"
         id="rect967-2-5-3-69-3-6-7-5-3-5-6-2-9-1-2-7-0-9-3-6-0-6-2-6-1-8-7-9-2-0-2-3-7-5-9-2-2-8-9-7-3-6-1-2-9-3-1-2-9"
         width="15.880188"
         height="31.760328"
         x="-569.95844"
         y="241.51543" />
      <rect
         style="fill:#0c51bf;fill-opacity:1;stroke-width:0.798511"
         id="rect967-2-5-3-69-3-6-7-5-3-5-6-2-9-1-2-7-0-9-3-6-0-6-2-6-1-8-7-9-2-0-2-3-7-5-9-2-2-8-9-7-3-6-1-2-9-3-1-2-85"
         width="15.880188"
         height="47.640503"
         x="-474.67743"
         y="209.75511" />
      <rect
         style="fill:#0c51bf;fill-opacity:1;stroke-width:0.46102"
         id="rect967-2-5-3-69-3-6-7-5-3-5-6-2-9-1-2-7-0-9-3-6-0-6-2-6-1-8-7-9-2-0-2-3-7-5-9-2-2-8-9-7-3-6-1-2-9-3-1-2-85-5"
         width="15.880169"
         height="15.880169"
         x="-554.07825"
         y="82.713737" />
      <rect
         style="fill:#0c51bf;fill-opacity:1;stroke-width:0.46102"
         id="rect967-2-5-3-69-3-6-7-5-3-5-6-2-9-1-2-7-0-9-3-6-0-6-2-6-1-8-7-9-2-0-2-3-7-5-9-2-2-8-9-7-3-6-1-2-9-3-1-2-85-5-6"
         width="15.880169"
         height="15.880169"
         x="-538.19818"
         y="66.833435" />
      <rect
         style="fill:#0c51bf;fill-opacity:1;stroke-width:0.46102"
         id="rect967-2-5-3-69-3-6-7-5-3-5-6-2-9-1-2-7-0-9-3-6-0-6-2-6-1-8-7-9-2-0-2-3-7-5-9-2-2-8-9-7-3-6-1-2-9-3-1-2-85-5-1"
         width="15.880169"
         height="15.880169"
         x="-474.6774"
         y="98.59391" />
      <rect
         style="fill:#0c51bf;fill-opacity:1;stroke-width:0.651981"
         id="rect967-2-5-3-69-3-6-7-5-3-5-6-2-9-1-2-7-0-9-3-6-0-6-2-6-1-8-7-9-2-0-2-3-7-5-9-2-2-8-9-7-3-6-1-2-9-3-1-2-85-5-15"
         width="31.760334"
         height="15.880169"
         x="-458.79724"
         y="114.47408" />
      <rect
         style="fill:#0c51bf;fill-opacity:1;stroke-width:0.651982"
         id="rect967-2-5-3-69-3-6-7-5-3-5-6-2-9-1-2-7-0-9-3-6-0-6-2-6-1-8-7-9-2-0-2-3-7-5-9-2-2-8-9-7-3-6-1-2-9-3-1-2"
         width="31.760345"
         height="15.880188"
         x="-506.43774"
         y="193.87489" />
      <path
         id="rect967-2-5-3-69-3-6-7-5-3-5-6-2-9-1-2-7-0-9-3-6-0-6-2-6-1-8-7-9-2-0-2-3-7-5-9-2-2-8-9-7-3-6-1-2-9-3-1-2-0"
         style="fill:#0c51bf;fill-opacity:1;stroke-width:0.651982"
         d="m -554.07824,162.11458 v 15.88017 h 15.88017 v 15.88017 h 31.76034 v -15.88017 h -15.88017 v -15.88017 z" />
      <rect
         style="fill:#0c51bf;fill-opacity:1;stroke-width:0.922046"
         id="rect967-2-5-3-69-3-6-7-5-3-5-6-2-9-1-2-7-0-9-3-6-0-6-2-6-1-8-7-9-2-0-2-3-7-5-9-2-2-8-9-7-3-6-1-2-9-3-1-2-38"
         width="15.880314"
         height="63.520771"
         x="-569.95856"
         y="98.593811" />
      <rect
         style="fill:#0c51bf;fill-opacity:1;stroke-width:0.461021"
         id="rect967-2-5-3-69-3-6-7-5-3-5-6-2-9-1-2-7-0-9-3-6-0-6-2-6-1-8-7-9-2-0-2-3-7-5-9-2-2-8-9-7-3-6-1-2-9-3-1-2-3"
         width="15.880188"
         height="15.880188"
         x="-554.07825"
         y="273.27576" />
      <rect
         style="fill:#0c51bf;fill-opacity:1;stroke-width:1.12927"
         id="rect967-2-5-3-69-3-6-7-5-3-5-6-2-9-1-2-7-0-9-3-6-0-6-2-6-1-8-7-9-2-0-2-3-7-5-9-2-2-8-9-7-3-6-1-2-9-3-1-2-90"
         width="95.281021"
         height="15.880188"
         x="-538.19812"
         y="289.15591" />
      <rect
         style="fill:#0c51bf;fill-opacity:1;stroke-width:0.461021"
         id="rect967-2-5-3-69-3-6-7-5-3-5-6-2-9-1-2-7-0-9-3-6-0-6-2-6-1-8-7-9-2-0-2-3-7-5-9-2-2-8-9-7-3-6-1-2-9-3-1-2-8"
         width="15.880188"
         height="15.880188"
         x="-442.91708"
         y="273.27585" />
      <rect
         style="fill:#1a2b3d;fill-opacity:1;stroke-width:0.461021"
         id="rect967-2-5-3-69-3-6-7-5-3-5-6-2-9-1-2-7-0-9-3-6-0-6-2-6-1-8-7-9-2-0-2-3-7-5-9-2-2-8-9-7-3-6-1-2-9-3-1-9-4-7-8-4-5-0"
         width="15.880188"
         height="15.880188"
         x="-442.91705"
         y="177.99474" />
      <path
         id="rect967-2-5-3-69-3-6-7-5-3-5-6-2-9-1-2-7-0-9-3-6-0-6-2-6-1-8-7-9-2-0-2-3-7-5-9-2-2-8-9-7-3-6-1-2-9-3-1-9-4-7-8-4-5-3"
         style="fill:#1a2b3d;fill-opacity:1;stroke-width:0.461021"
         d="m -474.6774,162.11458 v 15.88017 h 15.88017 15.88017 v -15.88017 h -15.88017 z" />
      <path
         id="rect967-2-5-3-69-3-6-7-5-3-5-6-2-9-1-2-7-0-9-3-6-0-6-2-6-1-8-7-9-2-0-2-3-7-5-9-2-2-8-9-7-3-6-1-2-9-3-1-9-4-7-8-4-5-4-84-04"
         style="fill:#4086f4;fill-opacity:1;stroke-width:0.461021"
         d="m -506.43773,177.99475 v 15.88017 h 15.88016 15.88017 v -15.88017 h -15.88017 z" />
      <path
         id="rect967-2-5-3-69-3-6-7-5-3-5-6-2-9-1-2-7-0-9-3-6-0-6-2-6-1-8-7-9-2-0-2-3-7-5-9-2-2-8-9-7-3-6-1-2-9-3-1-9-4-7-8-4-5-1"
         style="fill:#1a2b3d;fill-opacity:1;stroke-width:0.461021"
         d="m -506.43773,146.23441 v 15.88017 h 15.88016 15.88017 v -15.88017 h -15.88017 z" />
      <path
         id="rect967-2-5-3-69-3-6-7-5-3-5-6-2-9-1-2-7-0-9-3-6-0-6-2-6-1-8-7-9-2-0-2-3-7-5-9-2-2-8-9-7-3-6-1-2-9-3-1-9-4-7-8-4-5-4-84-7"
         style="fill:#4086f4;fill-opacity:1;stroke-width:0.461021"
         d="m -538.19807,98.593912 v 15.880168 h -15.88017 v 15.88017 15.88016 15.88017 h 15.88017 15.88017 v 15.88017 h 15.88017 V 162.11458 146.23441 H -522.3179 V 130.35425 114.47408 98.593912 Z" />
      <path
         id="rect967-2-5-3-69-3-6-7-5-3-5-6-2-9-1-2-7-0-9-3-6-0-6-2-6-1-8-7-9-2-0-2-3-7-5-9-2-2-8-9-7-3-6-1-2-9-3-1-9-4-7-8-4-5-4"
         style="fill:#4086f4;fill-opacity:1;stroke-width:0.461021"
         d="m -442.91706,193.87492 v 15.88016 h -15.88017 v 15.88017 15.88017 15.88017 15.88016 h -15.88017 -15.88017 -15.88016 v -15.88016 h -15.88017 v -15.88017 h -15.88017 v 15.88017 h -15.88017 v 15.88016 h 15.88017 v 15.88017 h 15.88017 15.88017 15.88016 15.88017 15.88017 15.88017 v -15.88017 h 15.88016 v -15.88016 -15.88017 -15.88017 -15.88017 -15.88016 z" />
      <rect
         style="fill:#4086f4;fill-opacity:1;stroke-width:0.461021"
         id="rect967-2-5-3-69-3-6-7-5-3-5-6-2-9-1-2-7-0-9-3-6-0-6-2-6-1-8-7-9-2-0-2-3-7-5-9-2-2-8-9-7-3-6-1-2-9-3-1-9-4-7-8-4-5-4-84-4"
         width="15.880188"
         height="15.880188"
         x="-474.67743"
         y="193.87492" />
      <rect
         style="fill:#4086f4;fill-opacity:1;stroke-width:0.461021"
         id="rect967-2-5-3-69-3-6-7-5-3-5-6-2-9-1-2-7-0-9-3-6-0-6-2-6-1-8-7-9-2-0-2-3-7-5-9-2-2-8-9-7-3-6-1-2-9-3-1-9-4-7-8-4-5-4-84-95"
         width="15.880188"
         height="15.880188"
         x="-458.79724"
         y="177.99474" />
      <rect
         style="fill:#4086f4;fill-opacity:1;stroke-width:0.461021"
         id="rect967-2-5-3-69-3-6-7-5-3-5-6-2-9-1-2-7-0-9-3-6-0-6-2-6-1-8-7-9-2-0-2-3-7-5-9-2-2-8-9-7-3-6-1-2-9-3-1-9-4-7-8-4-5-4-84-90-9-7-3"
         width="15.880188"
         height="15.880188"
         x="-458.79727"
         y="66.833435" />
      <path
         id="rect967-2-5-3-69-3-6-7-5-3-5-6-2-9-1-2-7-0-9-3-6-0-6-2-6-1-8-7-9-2-0-2-3-7-5-9-2-2-8-9-7-3-6-1-2-9-3-1-9-4-7-8-4-5-4-84-90-9-7-3-6"
         style="fill:#4086f4;fill-opacity:1;stroke-width:0.461021"
         d="m -522.3179,82.713742 v 15.88017 h 15.88017 15.88016 15.88017 15.88017 v -15.88017 h -15.88017 -15.88017 -15.88016 z" />
      <rect
         style="fill:#63a0f7;fill-opacity:1;stroke-width:0.46102"
         id="rect967-2-5-3-69-3-6-7-5-3-5-6-2-9-1-2-7-0-9-3-6-0-6-2-6-1-8-7-9-2-0-2-3-7-5-9-2-2-8-9-7-3-6-1-2-9-3-1-2-85-5-9"
         width="15.880169"
         height="15.880169"
         x="-458.79724"
         y="82.713737" />
      <rect
         style="fill:#63a0f7;fill-opacity:1;stroke-width:0.46102"
         id="rect967-2-5-3-69-3-6-7-5-3-5-6-2-9-1-2-7-0-9-3-6-0-6-2-6-1-8-7-9-2-0-2-3-7-5-9-2-2-8-9-7-3-6-1-2-9-3-1-2-85-5-9-3"
         width="15.880169"
         height="15.880169"
         x="-458.79724"
         y="193.87492" />
      <rect
         style="fill:#63a0f7;fill-opacity:1;stroke-width:0.46102"
         id="rect967-2-5-3-69-3-6-7-5-3-5-6-2-9-1-2-7-0-9-3-6-0-6-2-6-1-8-7-9-2-0-2-3-7-5-9-2-2-8-9-7-3-6-1-2-9-3-1-2-85-5-9-0"
         width="15.880169"
         height="15.880169"
         x="-474.67743"
         y="177.99474" />
      <rect
         style="fill:#63a0f7;fill-opacity:1;stroke-width:0.46102"
         id="rect967-2-5-3-69-3-6-7-5-3-5-6-2-9-1-2-7-0-9-3-6-0-6-2-6-1-8-7-9-2-0-2-3-7-5-9-2-2-8-9-7-3-6-1-2-9-3-1-2-85-5-9-447"
         width="15.880169"
         height="15.880169"
         x="-474.6774"
         y="257.39557" />
      <rect
         style="fill:#63a0f7;fill-opacity:1;stroke-width:0.46102"
         id="rect967-2-5-3-69-3-6-7-5-3-5-6-2-9-1-2-7-0-9-3-6-0-6-2-6-1-8-7-9-2-0-2-3-7-5-9-2-2-8-9-7-3-6-1-2-9-3-1-2-85-5-9-6"
         width="15.880169"
         height="15.880169"
         x="-554.07825"
         y="241.51543" />
      <rect
         style="fill:#63a0f7;fill-opacity:1;stroke-width:0.46102"
         id="rect967-2-5-3-69-3-6-7-5-3-5-6-2-9-1-2-7-0-9-3-6-0-6-2-6-1-8-7-9-2-0-2-3-7-5-9-2-2-8-9-7-3-6-1-2-9-3-1-2-85-5-9-8"
         width="15.880169"
         height="15.880169"
         x="-554.07825"
         y="98.59391" />
      <rect
         style="fill:#63a0f7;fill-opacity:1;stroke-width:0.46102"
         id="rect967-2-5-3-69-3-6-7-5-3-5-6-2-9-1-2-7-0-9-3-6-0-6-2-6-1-8-7-9-2-0-2-3-7-5-9-2-2-8-9-7-3-6-1-2-9-3-1-2-85-5-9-4"
         width="15.880169"
         height="15.880169"
         x="-538.19806"
         y="82.713737" />
      <rect
         style="fill:#63a0f7;fill-opacity:1;stroke-width:0.92204"
         id="rect967-2-5-3-69-3-6-7-5-3-5-6-2-9-1-2-7-0-9-3-6-0-6-2-6-1-8-7-9-2-0-2-3-7-5-9-2-2-8-9-7-3-6-1-2-9-3-1-2-85-5-9-81"
         width="63.520649"
         height="15.880169"
         x="-522.31793"
         y="66.833572" />
      <rect
         style="fill:#0c51bf;fill-opacity:1;stroke-width:0.46102"
         id="rect967-2-5-3-69-3-6-7-5-3-5-6-2-9-1-2-7-0-9-3-6-0-6-2-6-1-8-7-9-2-0-2-3-7-5-9-2-2-8-9-7-3-6-1-2-9-3-1-2-85-5-6-0"
         width="15.880169"
         height="15.880169"
         x="-522.31793"
         y="98.593918" />
      <path
         id="rect967-2-5-3-69-3-6-7-5-3-5-6-2-9-1-2-7-0-9-3-6-0-6-2-6-1-8-7-9-2-0-5-5"
         style="fill:#f17769;fill-opacity:1;stroke-width:0.651982"
         d="m -379.39639,66.833572 v 31.76034 h 15.88016 v -15.88017 h 95.28101 v -15.88017 h -95.28101 z" />
      <rect
         style="fill:#f17769;fill-opacity:1;stroke-width:0.922045"
         id="rect967-2-5-3-69-3-6-7-5-3-5-6-2-9-1-2-7-0-9-3-6-0-6-2-6-1-8-7-9-2-0-5-5-3-1-0-0"
         width="63.520828"
         height="15.880271"
         x="-347.63608"
         y="162.11458" />
      <path
         id="rect967-2-5-3-69-3-6-7-5-3-5-6-2-9-1-2-7-0-9-3-6-0-6-2-6-1-8-7-9-2-0-5-5-3-8-8-88-9"
         style="fill:#eb4132;fill-opacity:1;stroke-width:0.922044"
         d="m -363.51623,82.713742 v 15.88017 h -15.88016 V 289.15644 h 15.88016 95.28101 v -15.88069 h -95.28101 v -15.88016 h 15.88017 v -63.52067 h 63.52067 v -15.88017 h -63.52067 V 98.593912 h 79.40084 v -15.88017 h -79.40084 z" />
      <rect
         style="fill:#bf2113;fill-opacity:1;stroke-width:0.922038"
         id="rect967-2-5-3-69-3-6-7-5-3-5-6-2-9-1-2-7-0-9-3-6-0-6-2-6-1-8-7-9-2-0-5-5-3-8-8-8-9-9-6"
         width="63.520828"
         height="15.88003"
         x="-347.63608"
         y="193.87506" />
      <rect
         style="fill:#bf2113;fill-opacity:1;stroke-width:1.03087"
         id="rect967-2-5-3-69-3-6-7-5-3-5-6-2-9-1-2-7-0-9-3-6-0-6-2-6-1-8-7-9-2-0-5-5-3-8-8-8-9-9-6-0"
         width="79.400932"
         height="15.88019"
         x="-347.63599"
         y="98.593918" />
      <rect
         style="fill:#f17769;fill-opacity:1;stroke-width:1.12927"
         id="rect967-2-5-3-69-3-6-7-5-3-5-6-2-9-1-2-7-0-9-3-6-0-6-2-6-1-8-7-9-2-0-5-5-3-1-0-0-84"
         width="95.281113"
         height="15.88019"
         x="-363.51617"
         y="257.39581" />
      <rect
         style="fill:#fb8100;fill-opacity:1;stroke-width:0.461021"
         id="rect967-2-5-3-69-3-2-34"
         width="15.880188"
         height="15.880188"
         x="-204.71362"
         y="66.83374" />
      <rect
         style="fill:#fb8100;fill-opacity:1;stroke-width:0.461021"
         id="rect967-2-5-3-69-3-2-34-1"
         width="15.880188"
         height="15.880188"
         x="-125.31213"
         y="66.83374" />
      <rect
         style="fill:#fb8100;fill-opacity:1;stroke-width:0.461021"
         id="rect967-2-5-3-69-3-2-34-1-0"
         width="15.880188"
         height="15.880188"
         x="-109.43249"
         y="273.27628" />
      <rect
         style="fill:#fb8100;fill-opacity:1;stroke-width:0.461021"
         id="rect967-2-5-3-69-3-2-34-1-4"
         width="15.880188"
         height="15.880188"
         x="-93.552299"
         y="257.39612" />
      <rect
         style="fill:#fb8100;fill-opacity:1;stroke-width:0.461021"
         id="rect967-2-5-3-69-3-2-34-0"
         width="15.880188"
         height="15.880188"
         x="-220.59424"
         y="82.713921" />
      <rect
         style="fill:#ffda69;fill-opacity:1;stroke-width:0.461021"
         id="rect967-2-5-3-69-3-2-34-3-9"
         width="15.880188"
         height="15.880188"
         x="-220.59424"
         y="98.594124" />
      <path
         id="rect967-2-5-3-69-3-2-34-3-9-3"
         style="fill:#fbbd00;fill-opacity:1;stroke-width:0.461021"
         d="m -109.43242,82.713792 v 15.88017 h -15.8801 v 15.880168 h 15.8801 v 15.88017 15.88015 15.88017 15.88018 15.88068 15.88017 15.88017 15.88017 h -15.8801 v 15.88016 h -15.8802 -31.76035 v -15.88016 h -15.88017 v -15.88017 -15.88017 h -15.88016 v -47.64103 h 15.88016 V 146.23445 130.3543 114.47413 98.593962 h -15.88017 v 15.880168 h -15.88016 l -5e-4,158.8022 h 31.76033 v 15.88017 h 79.40082 l 4.9e-4,-15.88021 h 15.880185 V 257.3961 h 15.88019 l 3e-5,-31.76028 v -15.88017 -15.88017 h -15.8802 V 177.9948 162.11462 146.23445 130.3543 h 15.8802 V 114.47413 98.593962 h -15.8802 v -15.88017 z"
         sodipodi:nodetypes="ccccccccccccccccccccccccccccccccccccccccccccccccccccc" />
      <path
         id="rect967-2-5-3-69-3-2-34-3-9-3-5"
         style="fill:#fbbd00;fill-opacity:1;stroke-width:0.461021"
         d="m -188.83324,82.713792 v 15.88017 h 15.88017 15.88016 15.8802 15.8802 v -15.88017 h -15.8802 -15.8802 -15.88016 z" />
      <rect
         style="fill:#fb8100;fill-opacity:1;stroke-width:0.461021"
         id="rect967-2-5-3-69-3-2-34-3-9-3-00"
         width="15.880188"
         height="15.880188"
         x="-188.83293"
         y="98.594109" />
      <rect
         style="fill:#fb8100;fill-opacity:1;stroke-width:0.461021"
         id="rect967-2-5-3-69-3-2-34-3-9-3-00-2"
         width="15.880188"
         height="15.880188"
         x="-141.19237"
         y="98.594109" />
      <rect
         style="fill:#ffda69;fill-opacity:1;stroke-width:0.461021"
         id="rect967-2-5-3-69-3-2-34-3-9-1"
         width="15.880188"
         height="15.880188"
         x="-204.71362"
         y="82.713928" />
      <path
         id="rect967-2-5-3-69-3-2-34-3-9-9"
         style="fill:#ffda69;fill-opacity:1;stroke-width:0.461021"
         d="m -188.83324,66.833632 v 15.88016 h 15.88017 15.88016 15.8802 15.8802 v -15.88016 h -15.8802 -15.8802 -15.88016 z" />
      <rect
         style="fill:#ffda69;fill-opacity:1;stroke-width:0.461021"
         id="rect967-2-5-3-69-3-2-34-3-9-93-6-9"
         width="15.880188"
         height="15.880188"
         x="-125.31213"
         y="82.713928" />
      <path
         id="rect967-2-5-3-69-3-2-34-3-9-93-6-9-8"
         style="fill:#ffda69;fill-opacity:1;stroke-width:0.461021"
         d="m -204.71362,162.11487 v 47.64103 15.88017 h 15.88016 V 209.7559 162.11487 Z" />
      <rect
         style="fill:#1a2b3d;fill-opacity:1;stroke-width:0.461021"
         id="rect967-2-5-3-69-3-2-9"
         width="15.880188"
         height="15.880188"
         x="-236.47487"
         y="82.713928" />
      <rect
         style="fill:#1a2b3d;fill-opacity:1;stroke-width:0.651982"
         id="rect967-2-5-3-69-3-2-9-4"
         width="31.760315"
         height="15.880188"
         x="-172.95268"
         y="98.594109" />
      <rect
         style="fill:#1a2b3d;fill-opacity:1;stroke-width:1.38306"
         id="rect967-2-5-3-69-3-2-9-4-9-28"
         width="15.880249"
         height="142.92184"
         x="-188.83293"
         y="114.47429" />
      <rect
         style="fill:#1a2b3d;fill-opacity:1;stroke-width:0.651983"
         id="rect967-2-5-3-69-3-2-9-4-9-8-3"
         width="31.760559"
         height="15.880142"
         x="-172.95317"
         y="257.39615" />
      <rect
         style="fill:#1a2b3d;fill-opacity:1;stroke-width:1.38306"
         id="rect967-2-5-3-69-3-2-9-4-9-288"
         width="15.879913"
         height="142.92184"
         x="-141.19237"
         y="114.47429" />
      <rect
         style="fill:#1a2b3d;fill-opacity:1;stroke-width:0.461021"
         id="rect967-2-5-3-69-3-2-90"
         width="15.880188"
         height="15.880188"
         x="-220.59424"
         y="66.83374" />
      <path
         id="rect967-2-5-3-69-3-2-90-3"
         style="fill:#1a2b3d;fill-opacity:1;stroke-width:0.461021"
         d="m -204.71341,50.953462 v 15.88017 h 15.88017 15.88017 15.88016 15.8802 15.8802 15.88009 v -15.88017 h -15.88009 -15.8802 -15.8802 -15.88016 -15.88017 z" />
      <rect
         style="fill:#1a2b3d;fill-opacity:1;stroke-width:0.461021"
         id="rect967-2-5-3-69-3-2-90-2"
         width="15.880188"
         height="15.880188"
         x="-109.432"
         y="66.83374" />
      <rect
         style="fill:#1a2b3d;fill-opacity:1;stroke-width:0.461021"
         id="rect967-2-5-3-69-3-2-90-1"
         width="15.880188"
         height="15.880188"
         x="-93.551872"
         y="82.713928" />
      <rect
         style="fill:#1a2b3d;fill-opacity:1;stroke-width:0.461021"
         id="rect967-2-5-3-69-3-2-90-1-0"
         width="15.880188"
         height="15.880188"
         x="-93.552299"
         y="273.27628" />
      <rect
         style="fill:#1a2b3d;fill-opacity:1;stroke-width:0.461021"
         id="rect967-2-5-3-69-3-2-90-1-0-3-3"
         width="15.880188"
         height="15.880188"
         x="-236.47487"
         y="273.27618" />
      <rect
         style="fill:#1a2b3d;fill-opacity:1;stroke-width:0.461021"
         id="rect967-2-5-3-69-3-2-90-1-0-3-8"
         width="15.880188"
         height="15.880188"
         x="-220.59412"
         y="289.15646" />
      <rect
         style="fill:#1a2b3d;fill-opacity:1;stroke-width:0.461021"
         id="rect967-2-5-3-69-3-2-90-1-9"
         width="15.880188"
         height="15.880188"
         x="-109.43249"
         y="289.15646" />
      <path
         id="rect967-2-5-3-69-3-2-90-1-1"
         style="fill:#1a2b3d;fill-opacity:1;stroke-width:0.461021"
         d="m -204.71392,305.03667 v 15.88017 h 15.88016 15.88017 15.88017 15.8802 15.8801 15.8807 v -15.88017 h -15.8807 -15.8801 -15.8802 -15.88017 -15.88017 z" />
      <rect
         style="fill:#1a2b3d;fill-opacity:1;stroke-width:1.52905"
         id="rect967-2-5-3-69-3-2-90-5"
         width="15.880489"
         height="174.68222"
         x="-77.67205"
         y="98.594109" />
      <path
         id="rect967-2-5-3-69-3-2-34-1-0-1"
         style="fill:#fb8100;fill-opacity:1;stroke-width:1.12926"
         d="m -220.59407,273.27633 v 15.88017 h 15.88016 v 15.88017 h 95.28099 V 289.1565 h -79.40082 v -15.88017 z" />
      <rect
         style="fill:#fb8100;fill-opacity:1;stroke-width:1.52904"
         id="rect967-2-5-3-69-3-2-34-1-0-1-4"
         width="15.880188"
         height="174.68208"
         x="-236.47487"
         y="98.594109" />
      <rect
         style="fill:#ffda69;fill-opacity:1;stroke-width:0.922045"
         id="rect967-2-5-3-69-3-2-34-3-9-93-6-9-3"
         width="15.880182"
         height="63.521191"
         x="-93.55175"
         y="130.35429" />
      <rect
         style="fill:#fb8100;fill-opacity:1;stroke-width:0.461021"
         id="rect967-2-5-3-69-3-2-34-1-4-8"
         width="15.880188"
         height="15.880188"
         x="-141.19267"
         y="257.39615" />
      <rect
         style="fill:#fb8100;fill-opacity:1;stroke-width:1.38309"
         id="rect967-2-5-3-69-3-2-34-1-4-8-6"
         width="15.880609"
         height="142.92203"
         x="-125.31255"
         y="114.47412" />
    </g>
  </g>
</svg>
