<svg xml:space="preserve" width="1944.359" height="1506.852" viewBox="0 0 1944.359 1506.852" xmlns="http://www.w3.org/2000/svg"><path style="fill:#706132;fill-opacity:1;stroke-width:3.62341" d="M-1035.167 454.636v18.01h-18.011v18.012h-18.011v144.151h18.01v36.022h36.022v-36.022h18.011v17.978h36.022v-36.022h18.01V508.701h-18.01v-36.054h-36.022v-18.011z" transform="translate(4495.102 -1032.713)scale(2.69889)"/><path style="fill:#55402c;fill-opacity:1;stroke-width:.522871" d="M-1017.157 562.734V760.85h36.021v-18.01h-18.01V634.776h18.01v-36.021h-18.01v-36.021Z" transform="translate(4495.102 -1032.713)scale(2.69889)"/><path style="fill:#7e723b;fill-opacity:1;stroke-width:.522871" d="M-1017.157 454.636v36.021h18.011v18.011h18.01v18.01h18.012v18.044h18.01v-36.02h-18.01v-36.055h-36.021v-18.01z" transform="translate(4495.102 -1032.713)scale(2.69889)"/><path style="fill:#7e723b;fill-opacity:1;stroke-width:.522871" transform="matrix(-2.69889 0 0 2.69889 4495.102 -1032.713)" d="M981.135 526.679h18.011v18.011h-18.011z"/><path style="fill:#706132;fill-opacity:1;stroke-width:.522871" transform="matrix(-2.69889 0 0 2.69889 4495.102 -1032.713)" d="M981.135 724.829h18.011v18.011h-18.011zm-18.01 18.011h18.011v18.011h-18.011z"/><path style="fill:#7e723b;fill-opacity:1;stroke-width:.522871" d="M-963.124 562.733v36.021h18.01v-36.02z" transform="translate(4495.102 -1032.713)scale(2.69889)"/><path style="fill:#706132;fill-opacity:1;stroke-width:3.65455" d="M-1698.829 370.897v36.022h-18.01v18.01h-18.011v17.628h-18.011v18.01h-18.01v18.011h18.01v54.032h36.021v18.01h126.075V424.93h-18.01v-18.01h-18.01v-18.011h-18.011v-18.011z" transform="translate(4779.382 -222.28)scale(2.69889)"/><path style="fill:#7e723b;fill-opacity:1;stroke-width:.905643" d="M-1698.829 370.897v36.022h36.021v18.01h54.033v-18.01h-18.01v-18.011h-18.011v-18.011z" transform="translate(4779.382 -222.28)scale(2.69889)"/><path style="fill:#7e723b;fill-opacity:1;stroke-width:.522871" transform="matrix(-2.69889 0 0 2.69889 4779.382 -222.28)" d="M1680.818 442.94h18.011v18.011h-18.011z"/><path style="fill:#7e723b;fill-opacity:1;stroke-width:.522871" d="M-1752.861 460.567v18.011h36.021v-18.01h-18.01z" transform="translate(4779.382 -222.28)scale(2.69889)"/><path style="fill:#55402c;fill-opacity:1;stroke-width:.522871" d="M-1680.818 460.95v36.022h18.01v18.01h36.022v-18.01h-18.01v-18.01h-18.011V460.95z" transform="translate(4779.382 -222.28)scale(2.69889)"/><path style="fill:#7e723b;fill-opacity:1;stroke-width:.905639" d="M-1483.766 297v18.01h-54.032v18.011h-18.01v36.022h-18.012v90.053h-18.01v54.032h18.01v54.032h18.011v17.987h36.021v18.011h36.022v18.01h18.01v-54.031h-36.021v-54.01 54.009h36.021v-36.02h-18.01v-17.988h18.01v-72.043h18.011v36.022h18.01v36.02h-18.01v72.044h36.021v-36.022h72.042V405.064h-18.01v-54.032h-18.01v-18.01h-18.011V315.01h-36.021V297Zm144.085 162.096v90.053h36.021v-54.032h-18.01v-36.021z" transform="translate(4587.823 -801.582)scale(2.69889)"/><path style="fill:#55402c;fill-opacity:1;stroke-width:.522871" d="M-1465.756 441.085v72.042h-18.01v18.011h18.01v72.02h18.01v-90.03h18.012v-36.022h-18.011v-36.02z" transform="translate(4587.823 -801.582)scale(2.69889)"/><path style="fill:#706132;fill-opacity:1;stroke-width:.522871" d="M-1465.755 387.054v18.064h-18.011v53.924h18.01v-17.957h18.01v18.011h18.012v-36.021h-18.01v-36.021zm-126.075 72.042v54.032h18.01v54.032h18.011v17.999h18.01v-18h.001v18h18.01v-18 36.021h18.011v-36.02 36.02h18.01v17.989h18.011v-90.03h-18.01v36.02-54.031h18.01v-54.032zm162.096-72.043v18.011h36.02v-18.01h-18.01z" transform="translate(4587.823 -801.582)scale(2.69889)"/><path style="fill:#706132;fill-opacity:1;stroke-width:.522871" transform="matrix(-2.69889 0 0 2.69889 4587.823 -801.582)" d="M1375.702 405.064h18.011v18.011h-18.011zm0 36.021h18.011v18.011h-18.011zm18.011 18.011h18.011v18.011h-18.011z"/><path style="fill:#706132;fill-opacity:1;stroke-width:.522871" d="M-1555.808 423.129v18.01h36.021v-18.01h-18.01z" transform="translate(4587.823 -801.582)scale(2.69889)"/><path style="fill:#706132;fill-opacity:1;stroke-width:.522871" transform="matrix(-2.69889 0 0 2.69889 4587.823 -801.582)" d="M1501.777 459.096h18.011v18.011h-18.011z"/><path style="fill:#706132;fill-opacity:1;stroke-width:2.39609" d="M-1429.734 495.117v18h-18.011v72.053h144.085v-90.053Z" transform="translate(4587.823 -801.582)scale(2.69889)"/><path style="fill:#706132;fill-opacity:1;stroke-width:.522871" transform="matrix(-2.69889 0 0 2.69889 4587.823 -801.582)" d="M1429.734 351.032h18.011v18.011h-18.011z"/><path style="fill:#706132;fill-opacity:1;stroke-width:.522871" d="M-1519.787 351.032v36.021h18.01v-36.021zm18.01 0v36.021h18.01v-36.021z" transform="translate(4587.823 -801.582)scale(2.69889)"/><path style="fill:#706132;fill-opacity:1;stroke-width:.522871" transform="matrix(-2.69889 0 0 2.69889 4587.823 -801.582)" d="M1501.777 315.011h18.011v18.011h-18.011z"/><path style="fill:#f1d9b0;fill-opacity:1;stroke-width:.522871" d="M-385.78 396.566v216.127h126.074V396.568H-367.77z" transform="translate(2207.785 -730.07)scale(2.69889)"/><path style="fill:#deb47b;fill-opacity:1;stroke-width:.522871" d="M-457.824 342.534v18.011h-18.01v18.01h-18.01v18.01h-18.011v216.127h126.073V414.577h126.075v-18.01h-18.01v-.001h-108.064v-18.01h-18.01v-18.011h-18.011v-18.01h-18.01zm54.032 54.032" transform="translate(2207.785 -730.07)scale(2.69889)"/><path style="fill:#be6a34;fill-opacity:1;stroke-width:1.16918" d="M-403.791 324.524h-18.011v18.01h18.01v18.011h18.01v18.01h18.012v.001h90.053v-18.01h-18.01v-18.011h-18.011v-18.011z" transform="translate(2207.785 -730.07)scale(2.69889)"/><path style="fill:#6b3925;fill-opacity:1;stroke-width:1.38342" d="M-385.781 378.555h126.074v18.011h-126.074z" transform="translate(2207.785 -730.07)scale(2.69889)"/><path style="fill:#6b3925;fill-opacity:1;stroke-width:.522871" d="M-385.781 558.662h18.011v18.011h-18.011z" transform="translate(2207.785 -730.07)scale(2.69889)"/><path style="fill:#f1d9b0;fill-opacity:1;stroke-width:.522871" d="M-295.728 594.683v54.032h126.074v-54.032h-108.063z" transform="translate(2207.785 -730.07)scale(2.69889)"/><path style="fill:#6b3925;fill-opacity:1;stroke-width:.522871" d="M-367.77 540.651h18.011v18.011h-18.011zm72.042 0h18.011v18.011h-18.011z" transform="translate(2207.785 -730.07)scale(2.69889)"/><path style="fill:#6b3925;fill-opacity:1;stroke-width:.522871" d="M-349.76 522.641h18.011v18.011h-18.011zm18.011-18.011h18.011v18.011h-18.011z" transform="translate(2207.785 -730.07)scale(2.69889)"/><path style="fill:#be6a34;fill-opacity:1;stroke-width:1.16918" d="M-313.738 504.63v18.01h18.01v18.011h18.01v18.01h90.054v-18.01h-18.01v-18.01h-18.011V504.63z" transform="translate(2207.785 -730.07)scale(2.69889)"/><path style="fill:#6b3925;fill-opacity:1;stroke-width:1.28077" d="M-277.717 558.662h108.064v18.011h-108.064z" transform="translate(2207.785 -730.07)scale(2.69889)"/><path style="fill:#6b3925;fill-opacity:1;stroke-width:.522871" d="M-313.738 522.641h18.011v18.011h-18.011z" transform="translate(2207.785 -730.07)scale(2.69889)"/><path style="fill:#deb47b;fill-opacity:1;stroke-width:2.09148" d="M-331.75 522.64v18.011h-18.01v18.01h-18.01v90.054h90.052v-54.032h108.064v-18.01h-108.063v-18.011h-18.011v-18.01h-18.01V522.64zm36.022 54.032v18.01z" transform="translate(2207.785 -730.07)scale(2.69889)"/><path style="fill:#523e2d;fill-opacity:1;stroke-width:.739451" d="M-259.707 594.683h18.011v36.021h-18.011zm-198.116-180.107h18.011v36.021h-18.011zm108.063 180.107v36.022h36.021v-36.022h-18.01z" transform="translate(2207.785 -730.07)scale(2.69889)"/><path style="fill:#523e2d;fill-opacity:1;stroke-width:.73945" d="M-205.675 594.683h18.011v36.021h-18.011z" transform="translate(2207.785 -730.07)scale(2.69889)"/><path style="fill:#523e2d;fill-opacity:1;stroke-width:.739451" d="M-367.77 414.576h18.011v36.021h-18.011z" transform="translate(2207.785 -730.07)scale(2.69889)"/><path style="fill:#523e2d;fill-opacity:1;stroke-width:.73945" d="M-313.738 414.576h18.011v36.021h-18.011z" transform="translate(2207.785 -730.07)scale(2.69889)"/><path style="fill:#deb47b;fill-opacity:1;stroke-width:.73945" d="M-367.492 306.513h18.011v36.021h-18.011z" transform="translate(2207.785 -730.07)scale(2.69889)"/><path style="fill:#6b3925;fill-opacity:1;stroke-width:.522871" d="M-349.76 630.705v18.01h36.021v-18.01h-18.01z" transform="translate(2207.785 -730.07)scale(2.69889)"/><path style="fill:#ac8f4a;fill-opacity:1;stroke-width:.640363" d="M-421.802 612.694v18.01h54.032v-18.01h-27.016z" transform="translate(2207.785 -730.07)scale(2.69889)"/><path style="fill:#ac8f4a;fill-opacity:1;stroke-width:1.51149" d="M-493.845 630.704v18.01h72.043v-18.01h-36.022zm41.17 18.011h-23.159v18.01h23.159v18.01h-5.149v-18.007h-36.021v18.009h18.015v18.009h46.312v18.012h97.77v18.01h-108.067v-18.01h-18.01v18.01-36.021h-36.02v36.021h-270.16v-18.01h-54.033v18.01h18.01v18.01h36.021v18.012h36.021v18.01h72.043v18.01h108.064v18.012h180.104V810.81h108.064V792.8h72.042v-18.01h36.021v-18.011h36.021v-18.01h18.011v-18.011h-54.011v-.002h-.02v-72.042H-302.16zm-41.17 36.022v18.008h18.01v-18.008h-9.005zm324.187 54.031h18.01z" transform="translate(2207.785 -730.07)scale(2.69889)"/><path style="fill:#eccfa1;fill-opacity:1;stroke-width:.640363" d="M-421.802 630.704v18.01h54.031v-18.01h-27.016zm-18.01 18.012v18.01h-18.012v18.011h-18.01v18.01h18.01v18.009h90.055v-18.01h-18.012v-18.008h-18.01v-18.01h18.01v-18.013h-27.016zm-18.012 72.04v18.009h126.076v-18.009h-63.038zm36.02 18.013v18.009h126.077v-18.009h-63.038zm18.011 18.01v18.01h144.087v-18.01h-72.044zm-36.02 18.01v18.01h162.097v-18.01h-81.049zm-36.024 18.01v18.012h180.11v-18.012h-90.055zm-36.023 18.013v18.01h144.086v-18.01h-72.043z" transform="translate(2207.785 -730.07)scale(2.69889)"/><path style="fill:#6b3925;fill-opacity:1;stroke-width:.522871" transform="matrix(-2.69889 0 0 2.69889 2207.785 -730.07)" d="M403.791 540.651h18.011v18.011h-18.011z"/><path style="fill:#deb47b;fill-opacity:1;stroke-width:.522871" d="M-493.844 576.672v54.032h-126.074v-54.031h108.062z" transform="translate(2207.785 -730.07)scale(2.69889)"/><path style="fill:#6b3925;fill-opacity:1;stroke-width:.522871" transform="matrix(-2.69889 0 0 2.69889 2207.785 -730.07)" d="M421.802 522.64h18.011v18.011h-18.011zm72.043 0h18.011v18.011h-18.011z"/><path style="fill:#6b3925;fill-opacity:1;stroke-width:.522871" transform="matrix(-2.69889 0 0 2.69889 2207.785 -730.07)" d="M439.813 504.63h18.011v18.011h-18.011z"/><path style="fill:#6b3925;fill-opacity:1;stroke-width:.522871" transform="matrix(-2.69889 0 0 2.69889 2207.785 -730.07)" d="M457.823 486.619h18.011v18.011h-18.011z"/><path style="fill:#be6a34;fill-opacity:1;stroke-width:1.16918" d="M-475.834 486.62v18.01h-18.01v18.01h-18.011v18.01h-90.054v-18.01h18.011v-18.01h18.01v-18.01z" transform="translate(2207.785 -730.07)scale(2.69889)"/><path style="fill:#6b3925;fill-opacity:1;stroke-width:1.28077" transform="matrix(-2.69889 0 0 2.69889 2207.785 -730.07)" d="M511.855 540.651h108.064v18.011H511.855z"/><path style="fill:#6b3925;fill-opacity:1;stroke-width:.522871" transform="matrix(-2.69889 0 0 2.69889 2207.785 -730.07)" d="M475.834 504.63h18.011v18.011h-18.011z"/><path style="fill:#f1d9b0;fill-opacity:1;stroke-width:2.09148" d="M-457.823 504.63v18.01h18.01v18.01h18.01v90.054h-90.052v-54.032h-108.064v-18.01h108.064V540.65h18.01v-18.01h18.011v-18.01zm-36.021 54.032v18.01z" transform="translate(2207.785 -730.07)scale(2.69889)"/><path style="fill:#523e2d;fill-opacity:1;stroke-width:.739451" transform="matrix(-2.69889 0 0 2.69889 2207.785 -730.07)" d="M529.866 576.672h18.011v36.021h-18.011z"/><path style="fill:#523e2d;fill-opacity:1;stroke-width:.739451" d="M-439.813 576.672v36.022h-36.021v-36.022h18.01z" transform="translate(2207.785 -730.07)scale(2.69889)"/><path style="fill:#523e2d;fill-opacity:1;stroke-width:.73945" transform="matrix(-2.69889 0 0 2.69889 2207.785 -730.07)" d="M583.898 576.672h18.011v36.021h-18.011z"/><path style="fill:#6b3925;fill-opacity:1;stroke-width:.522871" d="M-439.813 612.694v18.01h-36.021v-18.01h18.01z" transform="translate(2207.785 -730.07)scale(2.69889)"/><path style="fill:#deb47b;fill-opacity:1;stroke-width:1.28077" transform="matrix(-2.69889 0 0 2.69889 2207.785 -730.07)" d="M511.855 558.662h108.064v18.011H511.855z"/><path style="fill:#6b3925;fill-opacity:1;stroke-width:.522871" d="M-493.845 360.546h18.011v18.011h-18.011z" transform="translate(2207.785 -730.07)scale(2.69889)"/><path style="fill:#6b3925;fill-opacity:1;stroke-width:.522871" d="M-511.855 378.556h18.011v18.011h-18.011zm36.021-36.021h18.011v18.011h-18.011zm72.043 18.01h18.011v18.011h-18.011zm-54.033-36.021v18.01h36.021v-18.01h-18.01zm36.022 18.011h18.011v18.011h-18.011z" transform="translate(2207.785 -730.07)scale(2.69889)"/><path style="fill:#be6a34;fill-opacity:1;stroke-width:1.16918" d="M-529.866 594.683v18.01h-18.01v18.011h-18.011v18.01h-90.054v-18.01h18.011v-18.01h18.011v-18.011z" transform="translate(2207.785 -730.07)scale(2.69889)"/><path style="fill:#6b3925;fill-opacity:1;stroke-width:.522871" transform="matrix(-2.69889 0 0 2.69889 2207.785 -730.07)" d="M475.834 648.715h18.011v18.011h-18.011z"/><path style="fill:#9d8443;fill-opacity:1;stroke-width:.522871" transform="matrix(-2.69889 0 0 2.69889 2207.785 -730.07)" d="M529.868 810.811h18.011v18.011h-18.011z"/><path style="fill:#ac8f4a;fill-opacity:1;stroke-width:.522871" transform="matrix(-2.69889 0 0 2.69889 2207.785 -730.07)" d="M421.803 738.768h18.011v18.011h-18.011zm-18.011 18.011h18.011v18.011h-18.011zm36.022 18.009h18.011v18.011h-18.011z"/><path style="fill:#ac8f4a;fill-opacity:1;stroke-width:.522871" transform="matrix(-2.69889 0 0 2.69889 2207.785 -730.07)" d="M457.824 774.788h18.011v18.011h-18.011zm-36.021-18.009h18.011v18.011h-18.011zm-162.097 18.009h18.011v18.011h-18.011zm18.011 18.011h18.011v18.011h-18.011z"/><path style="fill:#6b3925;fill-opacity:1;stroke-width:.522871" transform="matrix(-2.69889 0 0 2.69889 2207.785 -730.07)" d="M541.375 718.922h18.011v18.011h-18.011z"/><path style="fill:#deb47b;fill-opacity:1;stroke-width:.441907" d="M-673.951 666.725v72.043h90.053v-72.043z" transform="translate(2207.785 -730.07)scale(2.69889)"/><path style="fill:#6b3925;fill-opacity:1;stroke-width:.522871" transform="matrix(-2.69889 0 0 2.69889 2207.785 -730.07)" d="M493.845 630.705h18.011v18.011h-18.011zm72.042 0h18.011v18.011h-18.011zm-54.032-18.011h18.011v18.011h-18.011zm18.011-18.011h18.011v18.011h-18.011z"/><path style="fill:#6b3925;fill-opacity:1;stroke-width:1.16918" transform="matrix(-2.69889 0 0 2.69889 2207.785 -730.07)" d="M583.898 648.715h90.053v18.011h-90.053z"/><path style="fill:#6b3925;fill-opacity:1;stroke-width:.522871" transform="matrix(-2.69889 0 0 2.69889 2207.785 -730.07)" d="M547.877 612.694h18.011v18.011h-18.011z"/><path style="fill:#f1d9b0;fill-opacity:1;stroke-width:2.09148" d="M-529.866 612.694v18.01h18.011v18.01h18.01v90.054h-90.052v-90.053h18.01v-18.01h18.01v-18.011zm-36.02 54.032v18.01z" transform="translate(2207.785 -730.07)scale(2.69889)"/><path style="fill:#523e2d;fill-opacity:1;stroke-width:.739451" transform="matrix(-2.69889 0 0 2.69889 2207.785 -730.07)" d="M619.919 684.736h18.011v36.021h-18.011z"/><path style="fill:#523e2d;fill-opacity:1;stroke-width:.739451" d="M-529.866 684.736v36.022h-36.022v-36.022h18.011z" transform="translate(2207.785 -730.07)scale(2.69889)"/><path style="fill:#6b3925;fill-opacity:1;stroke-width:.522871" d="M-529.866 720.758v18.01h-36.022v-18.01h18.011z" transform="translate(2207.785 -730.07)scale(2.69889)"/><path style="fill:#e5c695;fill-opacity:1;stroke-width:.522871" transform="matrix(-2.69889 0 0 2.69889 2207.785 -730.07)" d="M277.707 756.778h18.011v18.011h-18.011zm126.095 18.007h18.011v18.011h-18.011zm-54.037 18.014h18.011v18.011h-18.011zm72.051 18.015h18.011v18.011h-18.011zm-18.024-72.046h18.011v18.011h-18.011zm-18.019-36.017h18.011v18.011h-18.011zm-36.016 36.025h18.011v18.011h-18.011zm36.021-108.073h18.011v18.011h-18.011zm18.008 18.024h18.011v18.011h-18.011zm36.024 36.009h18.011v18.011H439.81z"/><path style="fill:#9d8443;fill-opacity:1;stroke-width:.522871" transform="matrix(-2.69889 0 0 2.69889 2207.785 -730.07)" d="M475.837 792.8h18.011v18.011h-18.011zm36.021-36.021h18.011v18.011h-18.011zm54.032 18.01h18.011V792.8H565.89z"/><path style="fill:#9d8443;fill-opacity:1;stroke-width:.522871" d="M-619.922 738.768v18.01h36.021v-18.01h-18.01zm-36.021 18.011v18.01h36.021v-18.01h-18.01z" transform="translate(2207.785 -730.07)scale(2.69889)"/><path style="fill:#9d8443;fill-opacity:1;stroke-width:.522871" transform="matrix(-2.69889 0 0 2.69889 2207.785 -730.07)" d="M673.953 756.779h18.011v18.011h-18.011zm-522.326-36.023h18.011v18.011h-18.011zm18.011 0h18.011v18.011h-18.011zm-18.011 18.011h18.011v18.011h-18.011zm18.011 0h18.011v18.011h-18.011z"/><path style="fill:#9d8443;fill-opacity:1;stroke-width:.522871" transform="matrix(-2.69889 0 0 2.69889 2207.785 -730.07)" d="M187.648 720.756h18.011v18.011h-18.011zm18.011 0h18.011v18.011h-18.011zm-18.011 18.011h18.011v18.011h-18.011zm18.011 0h18.011v18.011h-18.011zm18.011-18.011h18.011v18.011H223.67zm54.037 18.012h18.011v18.011h-18.011zm-54.037-54.033h18.011v18.011H223.67z"/><path style="fill:#9d8443;fill-opacity:1;stroke-width:.522871" transform="matrix(-2.69889 0 0 2.69889 2207.785 -730.07)" d="M241.68 684.735h18.011v18.011H241.68zm-18.01 18.011h18.011v18.011H223.67z"/><path style="fill:#9d8443;fill-opacity:1;stroke-width:.522871" transform="matrix(-2.69889 0 0 2.69889 2207.785 -730.07)" d="M241.68 702.746h18.011v18.011H241.68zm18.011-18.011h18.011v18.011h-18.011zm18.011 0h18.011v18.011h-18.011z"/><path style="fill:#9d8443;fill-opacity:1;stroke-width:.522871" transform="matrix(-2.69889 0 0 2.69889 2207.785 -730.07)" d="M259.691 702.746h18.011v18.011h-18.011zm18.011 0h18.011v18.011h-18.011z"/><path style="fill:#9d8443;fill-opacity:1;stroke-width:.522871" d="M-367.77 666.725v18.01h36.02v-18.01h-18.01z" transform="translate(2207.785 -730.07)scale(2.69889)"/><path style="fill:#9d8443;fill-opacity:1;stroke-width:.522871" transform="matrix(-2.69889 0 0 2.69889 2207.785 -730.07)" d="M151.627 666.724h18.011v18.011h-18.011zm18.011 0h18.011v18.011h-18.011zm-18.011 18.011h18.011v18.011h-18.011zm18.011 0h18.011v18.011h-18.011z"/><path style="fill:#9d8443;fill-opacity:1;stroke-width:.522871" transform="matrix(-2.69889 0 0 2.69889 2207.785 -730.07)" d="M187.648 666.724h18.011v18.011h-18.011zm18.011 0h18.011v18.011h-18.011zm-18.011 18.011h18.011v18.011h-18.011z"/><path style="fill:#9d8443;fill-opacity:1;stroke-width:1.81133" transform="matrix(-2.69889 0 0 2.69889 2207.785 -730.07)" d="M97.616 648.682h54.012v72.074H97.616z"/><path style="fill:#9d8443;fill-opacity:1;stroke-width:.522871" transform="matrix(-2.69889 0 0 2.69889 2207.785 -730.07)" d="M205.659 684.735h18.011v18.011h-18.011zm18.011-18.011h18.011v18.011H223.67zm504.315 72.044h18.011v18.011h-18.011zm36.022-18.01h18.011v18.011h-18.011z"/><path style="fill:#9d8443;fill-opacity:1;stroke-width:.522871" transform="matrix(-2.69889 0 0 2.69889 2207.785 -730.07)" d="M782.017 720.758h18.011v18.011h-18.011zm-342.202 0h18.011v18.011h-18.011z"/><path style="fill:#706132;fill-opacity:1;stroke-width:.739453" d="M1993.73 772.556v36.022h36.022v18.01h36.021v36.81h-180.107v-36.81h18.01v-18.01h36.022v-18.011h18.01v-18.011z" transform="matrix(-2.69889 0 0 2.69889 6936.375 -1112.916)"/><path style="fill:#7e723b;fill-opacity:1;stroke-width:.522871" transform="matrix(-2.69889 0 0 2.69889 6372.744 -934.398)" d="M1766.882 742.433h18.011v18.011h-18.011zm-54.032 0h18.011v18.011h-18.011zm108.064 18.01h18.011v18.011h-18.011zm-72.043 0h18.011v18.011h-18.011zm0-54.032h18.011v18.011h-18.011zm-72.043 72.832h18.011v18.011h-18.011z"/></svg>
