<svg width="1142.871" height="184.097" viewBox="0 0 302.384 48.709" xmlns="http://www.w3.org/2000/svg"><g transform="translate(8.986 -59.336)"><path style="fill:#1e0f68;fill-opacity:1;stroke-width:.264583" d="M48.659 89.082V72.15h3.043c2.978 0 3.042.012 3.046.595.002.327.074.858.16 1.178.151.566.198.552 1.534-.457 2.085-1.574 3.285-1.934 6.504-1.95 3.195-.017 4.877.495 6.958 2.116 5.352 4.17 5.872 14.024.997 18.898-2.042 2.042-4.221 2.957-7.413 3.11-2.894.14-4.814-.274-6.461-1.392-.54-.367-1.038-.667-1.104-.667s-.12 2.798-.12 6.218v6.217h-7.144zm14.998-.017c1.059-.4 2.186-1.53 2.757-2.761.663-1.432.656-4.13-.014-5.606-1.008-2.22-3.703-3.392-6.301-2.74-3.066.772-4.671 3.519-4.03 6.899.543 2.867 2.473 4.49 5.339 4.49.827 0 1.84-.127 2.249-.282M220.638 72.15h2.88c2.762 0 2.886.024 3.039.595.087.327.16.863.163 1.19.005.782.15.755 1.28-.237 2.224-1.953 6.137-2.825 9.336-2.08 5.722 1.331 8.96 6.142 8.638 12.833-.262 5.436-2.885 9.124-7.63 10.726-1.426.481-2.123.555-4.345.457-2.654-.117-4.048-.534-5.622-1.683l-.595-.435v12.5h-7.144zm15.514 16.53c2.122-1.245 3.066-3.775 2.473-6.634-.789-3.803-5.002-5.473-8.442-3.344-1.613.998-2.386 2.559-2.388 4.825-.004 3.676 2.026 5.816 5.52 5.819 1.339.001 1.937-.14 2.837-.667M.181 95.304c-3.74-1.029-6.348-4.085-6.958-8.152l-.187-1.246H.727l.172.781c.649 2.955 4.769 3.886 7.06 1.596.605-.606.748-.982.748-1.972 0-2.123-.947-2.631-7.823-4.197-5.015-1.142-7.41-2.645-8.839-5.546-1.803-3.662-1.205-8.064 1.504-11.061 2.545-2.817 7.46-4.254 12.559-3.673 6.476.739 9.893 3.668 11.182 9.586l.158.728H9.837l-.456-1.195c-.737-1.928-2.697-3.034-5.386-3.037-3.056-.004-5.078 1.375-5.078 3.465 0 2.214.598 2.59 6.428 4.052 2.504.628 5.114 1.407 5.8 1.731 1.851.875 3.52 2.478 4.36 4.187.663 1.351.742 1.795.742 4.158 0 2.315-.088 2.835-.706 4.153-1.289 2.75-3.873 4.751-7.282 5.639-1.85.482-6.333.484-8.078.003m26.78.159c-2.111-.688-3.74-2.155-4.736-4.265 0 0-.069.286-.455-1.405-.387-1.69-.313-8.848-.313-8.848l-.083-8.797h7.154l.077 7.8.078 7.8.842.842c.688.688 1.103.863 2.278.96 1.9.158 3.207-.45 3.905-1.818.474-.93.515-1.595.515-8.298V72.15h7.144v23.019H37.57l-.179-.993c-.264-1.463-.355-1.51-1.264-.647-1.605 1.525-2.944 2-5.857 2.08-1.455.04-2.944-.026-3.309-.144m58.597-.304c-3.126-.991-5.805-3.497-7.065-6.607-.509-1.256-.59-1.945-.59-5.027s.081-3.772.59-5.027c1.218-3.007 3.8-5.472 6.81-6.499 1.966-.67 5.734-.8 7.818-.267 4.106 1.048 7.045 4.04 7.892 8.036.33 1.549.387 3.773.133 5.047l-.166.827H84.585l.18.727c.571 2.32 2.438 3.633 5.169 3.636 1.398.002 1.949-.133 2.945-.718.675-.397 1.296-.903 1.381-1.125.215-.56 7.051-.608 7.051-.05 0 .196-.365 1.085-.81 1.977-1.283 2.568-4.018 4.602-7.157 5.326-1.943.448-5.986.315-7.786-.256m8.332-15.116c-.512-1.787-2.202-2.868-4.485-2.868s-3.973 1.08-4.486 2.868l-.24.836h9.451zm77.343 15.407c-5.573-1.398-9.031-7.447-8.065-14.108.602-4.15 2.86-7.371 6.296-8.98 3.315-1.55 8.363-1.27 10.959.61l1.057.767V59.963h7.011l.136 35.205h-6.02l-.179-1.34-.177-1.341-.97.85c-1.835 1.612-3.582 2.22-6.548 2.277-1.455.028-3.03-.045-3.5-.163m6.958-6.605c2.395-1.088 3.629-3.863 3.02-6.794-.851-4.1-6.13-5.787-9.221-2.945-2.166 1.99-2.168 6.885-.004 8.818 1.658 1.482 4.154 1.852 6.205.92zm22.461 6.314c-3.137-.995-5.836-3.525-7.049-6.607-.864-2.199-.992-6.769-.256-9.192 1.008-3.318 3.445-5.972 6.632-7.223 2.056-.807 5.905-1 8.224-.411 4.635 1.176 7.72 4.862 8.126 9.712.08.963.064 2.303-.037 2.977l-.184 1.227h-8.186c-6.376 0-8.185.073-8.18.33.013.75 1.042 2.536 1.752 3.042 2.293 1.633 6.313 1.24 7.71-.753.315-.45.711-.503 3.776-.503 2.686 0 3.425.077 3.425.355 0 .195-.365 1.084-.81 1.976-1.284 2.568-4.018 4.602-7.157 5.326-1.943.448-5.986.315-7.786-.256m8.332-15.116c-.512-1.787-2.203-2.868-4.486-2.868s-3.973 1.08-4.485 2.868l-.24.836h9.451zm-103.44-7.912 3.238.075c2.641.06 3.248.147 3.29.47.028.22.128.862.22 1.428l.17 1.031.484-.795c.924-1.52 2.901-2.452 5.21-2.455 1.958-.003 1.94-.034 1.94 3.334v3.014l-1.256.002c-1.81.002-3.12.436-4.216 1.4-1.8 1.579-1.924 2.174-1.93 9.248l-.006 6.284h-7.144zm18.257.017h7.143v23.019h-7.143zm12.7-.018 2.973.075c2.74.07 2.98.116 3.053.604.044.291.14.807.212 1.146l.132.617.844-.826c.465-.454 1.502-1.148 2.305-1.542 1.293-.635 1.765-.718 4.107-.718 2.256 0 2.82.091 3.836.618 2.449 1.51 4.153 3.16 4.63 5.732.382 1.7.083 8.665.083 8.665l.082 8.666h-7.176v-7.21c-.001-7.93-.085-8.407-1.673-9.573-1.102-.808-3.448-.764-4.641.087-1.537 1.096-1.624 1.606-1.624 9.543v7.153H136.5zm126.206 5.839h-4.234v-5.821h4.234v-2.5c0-1.376.13-3.104.287-3.842.658-3.069 3.143-5.247 6.662-5.84 1.829-.31 4.868-.239 5.459.126.183.113.292 1.213.292 2.943V65.8h-1.464c-3.393 0-4.336 1.188-4.146 5.225l.054 1.125h5.556v5.82h-5.556v17.199h-7.144zm16.404-5.821h6.527l.088 1.565s.229 1.121 1.24.001c1.009-1.116 2.808-1.83 4.607-1.83 1.827 0 1.825-.003 1.825 3.299v2.978l-1.734.139c-2.333.187-3.937 1.167-4.866 2.97-.66 1.282-.678 1.463-.766 7.605l-.09 6.292h-6.831z"/><circle style="fill:#ff799c;fill-opacity:1;stroke-width:.770001;stroke-linecap:square;stroke-linejoin:round;paint-order:markers fill stroke" cx="4.01" cy="103.365" r="4.68"/><circle style="fill:#ff799c;fill-opacity:1;stroke-width:.770001;stroke-linecap:square;stroke-linejoin:round;paint-order:markers fill stroke" cx="127.264" cy="64.016" r="4.68"/><circle style="fill:#ff799c;fill-opacity:1;stroke-width:.770001;stroke-linecap:square;stroke-linejoin:round;paint-order:markers fill stroke" cx="252.196" cy="91.13" r="4.68"/></g></svg>
